<svg width="373" height="622" viewBox="0 0 373 622" fill="none" xmlns="http://www.w3.org/2000/svg">
<g filter="url(#filter0_d_1249_2535)">
<rect x="4" width="365" height="614" rx="15" fill="white" fill-opacity="0.5" shape-rendering="crispEdges"/>
<rect x="4.5" y="0.5" width="364" height="613" rx="14.5" stroke="white" stroke-opacity="0.5" shape-rendering="crispEdges"/>
</g>
<path d="M56.2647 29V66H45.435V29H56.2647ZM68.0501 29V37.2575H34V29H68.0501Z" fill="url(#paint0_radial_1249_2535)"/>
<path d="M83.0843 29V66H72.3183V29H83.0843Z" fill="url(#paint1_radial_1249_2535)"/>
<path d="M99.743 29V66H88.977V29H99.743ZM115 43.7682V52.0258H96.5578V43.7682H115ZM116.274 29V37.2575H96.5578V29H116.274Z" fill="url(#paint2_radial_1249_2535)"/>
<path d="M132.838 48.1828L141.469 29H153L139.495 54.1854H133.889L132.838 48.1828ZM128.283 29L136.978 48.4051L135.8 54.1854H130.226L116.752 29H128.283ZM140.164 48.5004V66H129.366V48.5004H140.164Z" fill="url(#paint3_radial_1249_2535)"/>
<path d="M42.5859 71.8984V81H41.6641V71.8984H42.5859ZM45.9141 71.8984V72.7109H38.3438V71.8984H45.9141ZM54.0547 76.1016V76.9062H48.1719V76.1016H54.0547ZM48.4062 71.8984V81H47.4766V71.8984H48.4062ZM54.7812 71.8984V81H53.8516V71.8984H54.7812ZM58.3203 71.8984V81H57.3906V71.8984H58.3203ZM66.4141 78.7422C66.4141 78.5078 66.3698 78.2969 66.2812 78.1094C66.1979 77.9219 66.0599 77.7526 65.8672 77.6016C65.6745 77.4505 65.4141 77.3125 65.0859 77.1875C64.7578 77.0573 64.3516 76.9349 63.8672 76.8203C63.3672 76.6953 62.9141 76.5547 62.5078 76.3984C62.1068 76.2422 61.763 76.0625 61.4766 75.8594C61.1953 75.651 60.9792 75.4089 60.8281 75.1328C60.6771 74.8516 60.6016 74.526 60.6016 74.1562C60.6016 73.7969 60.6823 73.4714 60.8438 73.1797C61.0052 72.888 61.2344 72.638 61.5312 72.4297C61.8281 72.2161 62.1771 72.0547 62.5781 71.9453C62.9844 71.8307 63.4297 71.7734 63.9141 71.7734C64.6016 71.7734 65.1979 71.8932 65.7031 72.1328C66.2083 72.3724 66.599 72.7005 66.875 73.1172C67.151 73.5286 67.2891 73.9922 67.2891 74.5078H66.3594C66.3594 74.138 66.263 73.8073 66.0703 73.5156C65.8776 73.224 65.599 72.9948 65.2344 72.8281C64.875 72.6615 64.4323 72.5781 63.9062 72.5781C63.3906 72.5781 62.9557 72.6484 62.6016 72.7891C62.2474 72.9297 61.9792 73.1198 61.7969 73.3594C61.6198 73.5938 61.5312 73.8542 61.5312 74.1406C61.5312 74.349 61.5729 74.5417 61.6562 74.7188C61.7448 74.8906 61.888 75.0495 62.0859 75.1953C62.2891 75.3411 62.5573 75.4792 62.8906 75.6094C63.2292 75.7396 63.6458 75.8646 64.1406 75.9844C64.6354 76.1042 65.0807 76.2448 65.4766 76.4062C65.8724 76.5677 66.2083 76.7578 66.4844 76.9766C66.7656 77.1901 66.9792 77.4427 67.125 77.7344C67.276 78.0208 67.3516 78.3516 67.3516 78.7266C67.3516 79.1016 67.2682 79.4375 67.1016 79.7344C66.9349 80.0312 66.6979 80.2839 66.3906 80.4922C66.0885 80.6953 65.7292 80.8516 65.3125 80.9609C64.901 81.0703 64.4531 81.125 63.9688 81.125C63.5312 81.125 63.0938 81.0729 62.6562 80.9688C62.224 80.8646 61.8281 80.7005 61.4688 80.4766C61.1094 80.2526 60.8229 79.9661 60.6094 79.6172C60.3958 79.263 60.2891 78.8411 60.2891 78.3516H61.2188C61.2188 78.7214 61.2969 79.0339 61.4531 79.2891C61.6146 79.5391 61.8281 79.7422 62.0938 79.8984C62.3646 80.0495 62.6615 80.1615 62.9844 80.2344C63.3073 80.3021 63.6354 80.3359 63.9688 80.3359C64.4688 80.3359 64.901 80.2682 65.2656 80.1328C65.6302 79.9974 65.9115 79.8099 66.1094 79.5703C66.3125 79.3307 66.4141 79.0547 66.4141 78.7422ZM74.1172 71.8984V81H73.1875V71.8984H74.1172ZM82.2109 78.7422C82.2109 78.5078 82.1667 78.2969 82.0781 78.1094C81.9948 77.9219 81.8568 77.7526 81.6641 77.6016C81.4714 77.4505 81.2109 77.3125 80.8828 77.1875C80.5547 77.0573 80.1484 76.9349 79.6641 76.8203C79.1641 76.6953 78.7109 76.5547 78.3047 76.3984C77.9036 76.2422 77.5599 76.0625 77.2734 75.8594C76.9922 75.651 76.776 75.4089 76.625 75.1328C76.474 74.8516 76.3984 74.526 76.3984 74.1562C76.3984 73.7969 76.4792 73.4714 76.6406 73.1797C76.8021 72.888 77.0312 72.638 77.3281 72.4297C77.625 72.2161 77.974 72.0547 78.375 71.9453C78.7812 71.8307 79.2266 71.7734 79.7109 71.7734C80.3984 71.7734 80.9948 71.8932 81.5 72.1328C82.0052 72.3724 82.3958 72.7005 82.6719 73.1172C82.9479 73.5286 83.0859 73.9922 83.0859 74.5078H82.1562C82.1562 74.138 82.0599 73.8073 81.8672 73.5156C81.6745 73.224 81.3958 72.9948 81.0312 72.8281C80.6719 72.6615 80.2292 72.5781 79.7031 72.5781C79.1875 72.5781 78.7526 72.6484 78.3984 72.7891C78.0443 72.9297 77.776 73.1198 77.5938 73.3594C77.4167 73.5938 77.3281 73.8542 77.3281 74.1406C77.3281 74.349 77.3698 74.5417 77.4531 74.7188C77.5417 74.8906 77.6849 75.0495 77.8828 75.1953C78.0859 75.3411 78.3542 75.4792 78.6875 75.6094C79.026 75.7396 79.4427 75.8646 79.9375 75.9844C80.4323 76.1042 80.8776 76.2448 81.2734 76.4062C81.6693 76.5677 82.0052 76.7578 82.2812 76.9766C82.5625 77.1901 82.776 77.4427 82.9219 77.7344C83.0729 78.0208 83.1484 78.3516 83.1484 78.7266C83.1484 79.1016 83.0651 79.4375 82.8984 79.7344C82.7318 80.0312 82.4948 80.2839 82.1875 80.4922C81.8854 80.6953 81.526 80.8516 81.1094 80.9609C80.6979 81.0703 80.25 81.125 79.7656 81.125C79.3281 81.125 78.8906 81.0729 78.4531 80.9688C78.0208 80.8646 77.625 80.7005 77.2656 80.4766C76.9062 80.2526 76.6198 79.9661 76.4062 79.6172C76.1927 79.263 76.0859 78.8411 76.0859 78.3516H77.0156C77.0156 78.7214 77.0938 79.0339 77.25 79.2891C77.4115 79.5391 77.625 79.7422 77.8906 79.8984C78.1615 80.0495 78.4583 80.1615 78.7812 80.2344C79.1042 80.3021 79.4323 80.3359 79.7656 80.3359C80.2656 80.3359 80.6979 80.2682 81.0625 80.1328C81.4271 79.9974 81.7083 79.8099 81.9062 79.5703C82.1094 79.3307 82.2109 79.0547 82.2109 78.7422ZM89.7344 71.8984V81H88.8047V71.8984H89.7344ZM94.2422 76.0312V76.8359H89.4297V76.0312H94.2422ZM94.8906 71.8984V72.7109H89.4297V71.8984H94.8906ZM103.828 76.0078V76.8984C103.828 77.5443 103.737 78.1276 103.555 78.6484C103.378 79.1693 103.12 79.6146 102.781 79.9844C102.448 80.3542 102.044 80.638 101.57 80.8359C101.102 81.0286 100.576 81.125 99.9922 81.125C99.4193 81.125 98.8958 81.0286 98.4219 80.8359C97.9531 80.638 97.5495 80.3542 97.2109 79.9844C96.8724 79.6146 96.6094 79.1693 96.4219 78.6484C96.2396 78.1276 96.1484 77.5443 96.1484 76.8984V76.0078C96.1484 75.362 96.2396 74.7786 96.4219 74.2578C96.6042 73.737 96.862 73.2917 97.1953 72.9219C97.5339 72.5469 97.9375 72.263 98.4062 72.0703C98.8802 71.8724 99.4062 71.7734 99.9844 71.7734C100.568 71.7734 101.094 71.8724 101.562 72.0703C102.036 72.263 102.44 72.5469 102.773 72.9219C103.112 73.2917 103.372 73.737 103.555 74.2578C103.737 74.7786 103.828 75.362 103.828 76.0078ZM102.906 76.8984V75.9922C102.906 75.4661 102.841 74.9948 102.711 74.5781C102.581 74.1615 102.391 73.8047 102.141 73.5078C101.891 73.2109 101.583 72.9844 101.219 72.8281C100.859 72.6719 100.448 72.5938 99.9844 72.5938C99.5312 72.5938 99.125 72.6719 98.7656 72.8281C98.4062 72.9844 98.1016 73.2109 97.8516 73.5078C97.6016 73.8047 97.4089 74.1615 97.2734 74.5781C97.1432 74.9948 97.0781 75.4661 97.0781 75.9922V76.8984C97.0781 77.4245 97.1432 77.8984 97.2734 78.3203C97.4089 78.7422 97.6016 79.1016 97.8516 79.3984C98.1068 79.6953 98.4141 79.9219 98.7734 80.0781C99.138 80.2344 99.5443 80.3125 99.9922 80.3125C100.461 80.3125 100.875 80.2344 101.234 80.0781C101.594 79.9219 101.898 79.6953 102.148 79.3984C102.398 79.1016 102.586 78.7422 102.711 78.3203C102.841 77.8984 102.906 77.4245 102.906 76.8984ZM105.844 71.8984H109.07C109.581 71.8984 110.042 71.9609 110.453 72.0859C110.87 72.2057 111.224 72.3828 111.516 72.6172C111.807 72.8464 112.031 73.1328 112.188 73.4766C112.344 73.8151 112.422 74.2031 112.422 74.6406C112.422 75.0833 112.326 75.4792 112.133 75.8281C111.94 76.1771 111.672 76.4688 111.328 76.7031C110.99 76.9375 110.596 77.1016 110.148 77.1953L109.828 77.3438H106.445L106.43 76.5391H109.242C109.742 76.5391 110.156 76.4531 110.484 76.2812C110.818 76.1094 111.068 75.8802 111.234 75.5938C111.401 75.3073 111.484 75 111.484 74.6719C111.484 74.276 111.391 73.9323 111.203 73.6406C111.021 73.3438 110.75 73.1146 110.391 72.9531C110.031 72.7917 109.591 72.7109 109.07 72.7109H106.781V81H105.844V71.8984ZM111.836 81L109.336 76.9922L110.328 76.9844L112.828 80.9219V81H111.836ZM121.328 77.1094L124.375 71.8984H125.438L121.906 77.7422H121.273L121.328 77.1094ZM118.578 71.8984L121.633 77.1328L121.664 77.7422H121.055L117.516 71.8984H118.578ZM121.93 77.0391V81H121V77.0391H121.93ZM134.125 76.0078V76.8984C134.125 77.5443 134.034 78.1276 133.852 78.6484C133.674 79.1693 133.417 79.6146 133.078 79.9844C132.745 80.3542 132.341 80.638 131.867 80.8359C131.398 81.0286 130.872 81.125 130.289 81.125C129.716 81.125 129.193 81.0286 128.719 80.8359C128.25 80.638 127.846 80.3542 127.508 79.9844C127.169 79.6146 126.906 79.1693 126.719 78.6484C126.536 78.1276 126.445 77.5443 126.445 76.8984V76.0078C126.445 75.362 126.536 74.7786 126.719 74.2578C126.901 73.737 127.159 73.2917 127.492 72.9219C127.831 72.5469 128.234 72.263 128.703 72.0703C129.177 71.8724 129.703 71.7734 130.281 71.7734C130.865 71.7734 131.391 71.8724 131.859 72.0703C132.333 72.263 132.737 72.5469 133.07 72.9219C133.409 73.2917 133.669 73.737 133.852 74.2578C134.034 74.7786 134.125 75.362 134.125 76.0078ZM133.203 76.8984V75.9922C133.203 75.4661 133.138 74.9948 133.008 74.5781C132.878 74.1615 132.688 73.8047 132.438 73.5078C132.188 73.2109 131.88 72.9844 131.516 72.8281C131.156 72.6719 130.745 72.5938 130.281 72.5938C129.828 72.5938 129.422 72.6719 129.062 72.8281C128.703 72.9844 128.398 73.2109 128.148 73.5078C127.898 73.8047 127.706 74.1615 127.57 74.5781C127.44 74.9948 127.375 75.4661 127.375 75.9922V76.8984C127.375 77.4245 127.44 77.8984 127.57 78.3203C127.706 78.7422 127.898 79.1016 128.148 79.3984C128.404 79.6953 128.711 79.9219 129.07 80.0781C129.435 80.2344 129.841 80.3125 130.289 80.3125C130.758 80.3125 131.172 80.2344 131.531 80.0781C131.891 79.9219 132.195 79.6953 132.445 79.3984C132.695 79.1016 132.883 78.7422 133.008 78.3203C133.138 77.8984 133.203 77.4245 133.203 76.8984ZM142.023 71.8984H142.961V78.0312C142.961 78.7135 142.805 79.2865 142.492 79.75C142.185 80.2083 141.768 80.5521 141.242 80.7812C140.721 81.0104 140.138 81.125 139.492 81.125C138.831 81.125 138.237 81.0104 137.711 80.7812C137.19 80.5521 136.779 80.2083 136.477 79.75C136.174 79.2865 136.023 78.7135 136.023 78.0312V71.8984H136.945V78.0312C136.945 78.5417 137.055 78.9688 137.273 79.3125C137.492 79.651 137.792 79.9062 138.172 80.0781C138.557 80.2448 138.997 80.3281 139.492 80.3281C139.987 80.3281 140.424 80.2448 140.805 80.0781C141.185 79.9062 141.482 79.651 141.695 79.3125C141.914 78.9688 142.023 78.5417 142.023 78.0312V71.8984Z" fill="url(#paint4_diamond_1249_2535)"/>
<defs>
<filter id="filter0_d_1249_2535" x="0" y="0" width="373" height="622" filterUnits="userSpaceOnUse" color-interpolation-filters="sRGB">
<feFlood flood-opacity="0" result="BackgroundImageFix"/>
<feColorMatrix in="SourceAlpha" type="matrix" values="0 0 0 0 0 0 0 0 0 0 0 0 0 0 0 0 0 0 127 0" result="hardAlpha"/>
<feOffset dy="4"/>
<feGaussianBlur stdDeviation="2"/>
<feComposite in2="hardAlpha" operator="out"/>
<feColorMatrix type="matrix" values="0 0 0 0 0.319096 0 0 0 0 0.313958 0 0 0 0 0.570833 0 0 0 0.1 0"/>
<feBlend mode="normal" in2="BackgroundImageFix" result="effect1_dropShadow_1249_2535"/>
<feBlend mode="normal" in="SourceGraphic" in2="effect1_dropShadow_1249_2535" result="shape"/>
</filter>
<radialGradient id="paint0_radial_1249_2535" cx="0" cy="0" r="1" gradientUnits="userSpaceOnUse" gradientTransform="translate(119.544 58.3606) rotate(-173.179) scale(111.039 32.8308)">
<stop stop-color="#FFEFE0" stop-opacity="0.35"/>
<stop offset="0.125" stop-color="#FF6C63" stop-opacity="0.58"/>
<stop offset="0.411458" stop-color="#FF6B62"/>
<stop offset="0.78125" stop-color="#FF3A61"/>
<stop offset="0.822917" stop-color="#FF3B62" stop-opacity="0.86"/>
<stop offset="1" stop-color="#3D96E8" stop-opacity="0.26"/>
</radialGradient>
<radialGradient id="paint1_radial_1249_2535" cx="0" cy="0" r="1" gradientUnits="userSpaceOnUse" gradientTransform="translate(119.544 58.3606) rotate(-173.179) scale(111.039 32.8308)">
<stop stop-color="#FFEFE0" stop-opacity="0.35"/>
<stop offset="0.125" stop-color="#FF6C63" stop-opacity="0.58"/>
<stop offset="0.411458" stop-color="#FF6B62"/>
<stop offset="0.78125" stop-color="#FF3A61"/>
<stop offset="0.822917" stop-color="#FF3B62" stop-opacity="0.86"/>
<stop offset="1" stop-color="#3D96E8" stop-opacity="0.26"/>
</radialGradient>
<radialGradient id="paint2_radial_1249_2535" cx="0" cy="0" r="1" gradientUnits="userSpaceOnUse" gradientTransform="translate(119.544 58.3606) rotate(-173.179) scale(111.039 32.8308)">
<stop stop-color="#FFEFE0" stop-opacity="0.35"/>
<stop offset="0.125" stop-color="#FF6C63" stop-opacity="0.58"/>
<stop offset="0.411458" stop-color="#FF6B62"/>
<stop offset="0.78125" stop-color="#FF3A61"/>
<stop offset="0.822917" stop-color="#FF3B62" stop-opacity="0.86"/>
<stop offset="1" stop-color="#3D96E8" stop-opacity="0.26"/>
</radialGradient>
<radialGradient id="paint3_radial_1249_2535" cx="0" cy="0" r="1" gradientUnits="userSpaceOnUse" gradientTransform="translate(119.544 58.3606) rotate(-173.179) scale(111.039 32.8308)">
<stop stop-color="#FFEFE0" stop-opacity="0.35"/>
<stop offset="0.125" stop-color="#FF6C63" stop-opacity="0.58"/>
<stop offset="0.411458" stop-color="#FF6B62"/>
<stop offset="0.78125" stop-color="#FF3A61"/>
<stop offset="0.822917" stop-color="#FF3B62" stop-opacity="0.86"/>
<stop offset="1" stop-color="#3D96E8" stop-opacity="0.26"/>
</radialGradient>
<radialGradient id="paint4_diamond_1249_2535" cx="0" cy="0" r="1" gradientUnits="userSpaceOnUse" gradientTransform="translate(91.5 75.5) rotate(90) scale(9.5 53.5)">
<stop stop-color="#FF7062"/>
<stop offset="1" stop-color="#FE3360"/>
</radialGradient>
</defs>
</svg>
