<svg width="801" height="138" viewBox="0 0 801 138" fill="none" xmlns="http://www.w3.org/2000/svg">
<path d="M84.1281 57.8504V121.561C84.1281 122.456 83.6803 122.904 82.7848 122.904H78.3711C77.4756 122.904 77.0278 122.456 77.0278 121.561V57.8504H57.2623C56.3668 57.8504 55.919 57.4026 55.919 56.5071V53.2448C55.919 52.3493 56.3668 51.9015 57.2623 51.9015H104.086C104.981 51.9015 105.429 52.3493 105.429 53.2448V56.5071C105.429 57.4026 104.981 57.8504 104.086 57.8504H84.1281ZM166.541 121.561C166.541 122.456 166.093 122.904 165.198 122.904H160.88C159.985 122.904 159.537 122.456 159.537 121.561V89.2258H123.172V121.561C123.172 122.456 122.724 122.904 121.829 122.904H117.511C116.615 122.904 116.168 122.456 116.168 121.561V53.0529C116.168 52.1574 116.615 51.7096 117.511 51.7096H121.829C122.724 51.7096 123.172 52.1574 123.172 53.0529V83.181H159.537V53.0529C159.537 52.1574 159.985 51.7096 160.88 51.7096H165.198C166.093 51.7096 166.541 52.1574 166.541 53.0529V121.561ZM192.022 125.783C192.022 126.678 191.574 127.126 190.678 127.126H186.073C185.177 127.126 184.73 126.678 184.73 125.783V57.4666C184.73 56.5711 185.177 56.1233 186.073 56.1233H190.678C191.574 56.1233 192.022 56.5711 192.022 57.4666V125.783ZM207.488 121.945C206.464 121.625 206.048 121.049 206.24 120.217L206.624 115.804C206.752 115.292 206.944 114.94 207.2 114.748C207.519 114.556 207.871 114.588 208.255 114.844C210.494 116.06 212.733 116.955 214.972 117.531C217.274 118.043 219.897 118.298 222.839 118.298C227.509 118.298 231.315 117.019 234.257 114.461C237.264 111.902 238.767 108.288 238.767 103.618C238.767 101.763 238.031 99.9082 236.56 98.0532C235.153 96.1981 233.17 94.4391 230.611 92.7759C228.372 91.3687 225.846 89.8975 223.031 88.3623C220.217 86.8271 217.53 85.164 214.972 83.3729C212.413 81.5179 210.27 79.471 208.543 77.2322C206.816 74.9294 205.952 72.2748 205.952 69.2684C205.952 66.198 206.592 63.5114 207.871 61.2086C209.151 58.8419 210.846 56.8909 212.957 55.3557C215.131 53.7565 217.594 52.5412 220.345 51.7096C223.095 50.8781 225.91 50.4623 228.788 50.4623C231.283 50.4623 233.49 50.6222 235.409 50.942C237.328 51.1979 239.407 51.6776 241.645 52.3813C242.605 52.7011 242.989 53.2768 242.797 54.1084L242.029 57.8504C241.837 58.9378 241.294 59.2257 240.398 58.7139C238.607 57.8824 236.848 57.3386 235.121 57.0828C233.458 56.763 231.315 56.603 228.692 56.603C226.581 56.603 224.566 56.8589 222.648 57.3706C220.792 57.8824 219.161 58.65 217.754 59.6734C216.411 60.6969 215.323 61.9762 214.492 63.5114C213.66 65.0466 213.244 66.8696 213.244 68.9805C213.244 70.6436 213.788 72.2108 214.876 73.682C216.027 75.1532 217.402 76.5285 219.001 77.8078C220.665 79.0872 222.424 80.2705 224.279 81.358C226.198 82.3814 227.925 83.3409 229.46 84.2365C231.571 85.4518 233.618 86.6992 235.601 87.9785C237.584 89.2578 239.343 90.697 240.878 92.2962C242.413 93.8954 243.66 95.6544 244.62 97.5734C245.579 99.4924 246.059 101.699 246.059 104.194C246.059 107.392 245.388 110.239 244.044 112.733C242.765 115.228 241.038 117.339 238.863 119.066C236.688 120.793 234.161 122.104 231.283 123C228.468 123.959 225.526 124.439 222.456 124.439C219.641 124.439 217.114 124.247 214.876 123.864C212.701 123.48 210.238 122.84 207.488 121.945ZM294.436 125.783C294.436 126.678 293.989 127.126 293.093 127.126H288.488C287.592 127.126 287.144 126.678 287.144 125.783V57.4666C287.144 56.5711 287.592 56.1233 288.488 56.1233H293.093C293.989 56.1233 294.436 56.5711 294.436 57.4666V125.783ZM309.902 121.945C308.879 121.625 308.463 121.049 308.655 120.217L309.039 115.804C309.167 115.292 309.358 114.94 309.614 114.748C309.934 114.556 310.286 114.588 310.67 114.844C312.909 116.06 315.147 116.955 317.386 117.531C319.689 118.043 322.312 118.298 325.254 118.298C329.924 118.298 333.73 117.019 336.672 114.461C339.678 111.902 341.182 108.288 341.182 103.618C341.182 101.763 340.446 99.9082 338.975 98.0532C337.568 96.1981 335.585 94.4391 333.026 92.7759C330.787 91.3687 328.261 89.8975 325.446 88.3623C322.631 86.8271 319.945 85.164 317.386 83.3729C314.828 81.5179 312.685 79.471 310.958 77.2322C309.231 74.9294 308.367 72.2748 308.367 69.2684C308.367 66.198 309.007 63.5114 310.286 61.2086C311.565 58.8419 313.26 56.8909 315.371 55.3557C317.546 53.7565 320.009 52.5412 322.759 51.7096C325.51 50.8781 328.324 50.4623 331.203 50.4623C333.698 50.4623 335.904 50.6222 337.823 50.942C339.742 51.1979 341.821 51.6776 344.06 52.3813C345.02 52.7011 345.403 53.2768 345.212 54.1084L344.444 57.8504C344.252 58.9378 343.708 59.2257 342.813 58.7139C341.022 57.8824 339.263 57.3386 337.536 57.0828C335.872 56.763 333.73 56.603 331.107 56.603C328.996 56.603 326.981 56.8589 325.062 57.3706C323.207 57.8824 321.576 58.65 320.169 59.6734C318.825 60.6969 317.738 61.9762 316.907 63.5114C316.075 65.0466 315.659 66.8696 315.659 68.9805C315.659 70.6436 316.203 72.2108 317.29 73.682C318.442 75.1532 319.817 76.5285 321.416 77.8078C323.079 79.0872 324.838 80.2705 326.693 81.358C328.612 82.3814 330.339 83.3409 331.875 84.2365C333.985 85.4518 336.032 86.6992 338.015 87.9785C339.998 89.2578 341.757 90.697 343.293 92.2962C344.828 93.8954 346.075 95.6544 347.035 97.5734C347.994 99.4924 348.474 101.699 348.474 104.194C348.474 107.392 347.802 110.239 346.459 112.733C345.18 115.228 343.453 117.339 341.278 119.066C339.103 120.793 336.576 122.104 333.698 123C330.883 123.959 327.941 124.439 324.87 124.439C322.056 124.439 319.529 124.247 317.29 123.864C315.115 123.48 312.653 122.84 309.902 121.945ZM396.659 121.561C396.659 122.456 396.211 122.904 395.316 122.904H390.902C390.007 122.904 389.559 122.456 389.559 121.561V54.6841C389.559 53.2768 389.655 52.4772 389.847 52.2853C390.103 52.0294 390.934 51.9015 392.341 51.9015H424.389C425.284 51.9015 425.732 52.3493 425.732 53.2448V56.5071C425.732 57.4026 425.284 57.8504 424.389 57.8504H396.659V83.277H423.045C423.941 83.277 424.389 83.7247 424.389 84.6203V88.0744C424.389 88.97 423.941 89.4177 423.045 89.4177H396.659V121.561ZM491.45 87.4028C491.45 83.3729 490.939 79.5669 489.915 75.9848C488.892 72.4027 487.453 69.1724 485.597 66.2939C483.359 63.1596 480.672 60.7608 477.538 59.0977C474.467 57.3706 470.981 56.5071 467.079 56.5071C463.113 56.5071 459.563 57.3706 456.429 59.0977C453.359 60.7608 450.704 63.1596 448.465 66.2939C446.61 69.1724 445.171 72.4027 444.147 75.9848C443.124 79.5669 442.612 83.3729 442.612 87.4028C442.612 91.4327 443.124 95.2706 444.147 98.9167C445.171 102.499 446.61 105.729 448.465 108.608C450.768 111.678 453.486 114.077 456.621 115.804C459.755 117.531 463.241 118.394 467.079 118.394C470.981 118.394 474.467 117.563 477.538 115.9C480.672 114.173 483.359 111.742 485.597 108.608C487.453 105.729 488.892 102.499 489.915 98.9167C490.939 95.2706 491.45 91.4327 491.45 87.4028ZM498.455 87.4028C498.327 98.7888 495.704 107.68 490.587 114.077C485.022 120.985 477.186 124.439 467.079 124.439C456.973 124.439 449.105 120.985 443.476 114.077C438.23 107.488 435.608 98.5969 435.608 87.4028C435.608 82.0936 436.248 77.2961 437.527 73.0104C438.806 68.7246 440.661 64.9187 443.092 61.5924C445.97 58.0743 449.425 55.3557 453.454 53.4367C457.548 51.4538 462.09 50.4623 467.079 50.4623C472.133 50.4623 476.642 51.4218 480.608 53.3408C484.638 55.2597 488.092 58.0423 490.971 61.6884C493.465 65.1425 495.352 69.0125 496.632 73.2982C497.911 77.52 498.519 82.2215 498.455 87.4028ZM549.606 72.6266C549.606 69.94 549.286 67.6692 548.647 65.8142C548.071 63.8952 547.048 62.36 545.576 61.2086C544.169 59.9932 542.314 59.1297 540.011 58.618C537.708 58.1062 534.83 57.8504 531.376 57.8504H521.493V86.4433H531.568C534.19 86.4433 536.589 86.1235 538.764 85.4838C541.003 84.8441 542.922 83.9166 544.521 82.7013C546.12 81.4859 547.367 80.0467 548.263 78.3835C549.158 76.6565 549.606 74.7375 549.606 72.6266ZM561.024 121.561C561.152 121.881 561.152 122.2 561.024 122.52C560.896 122.776 560.64 122.904 560.257 122.904H555.267C554.308 122.904 553.604 122.456 553.156 121.561C550.278 115.548 547.879 110.655 545.96 106.881C544.041 103.043 542.538 100.004 541.451 97.7653C540.107 95.1427 539.084 93.1278 538.38 91.7205C536.909 92.0403 535.534 92.2322 534.254 92.2962C533.039 92.3602 531.472 92.4241 529.553 92.4881H521.493V121.561C521.493 122.456 521.045 122.904 520.15 122.904H515.832C514.937 122.904 514.489 122.456 514.489 121.561V54.78C514.489 54.0764 514.489 53.5327 514.489 53.1489C514.553 52.7651 514.681 52.4772 514.873 52.2853C515.064 52.0934 515.352 51.9975 515.736 51.9975C516.12 51.9335 516.664 51.9015 517.367 51.9015H535.502C539.148 51.9015 542.282 52.4132 544.905 53.4367C547.591 54.3962 549.798 55.7715 551.525 57.5625C553.316 59.3536 554.628 61.5284 555.459 64.0871C556.355 66.6457 556.802 69.4922 556.802 72.6266C556.802 74.5456 556.451 76.3686 555.747 78.0957C555.107 79.8228 554.212 81.4219 553.06 82.8932C551.909 84.3644 550.566 85.7077 549.031 86.923C547.559 88.0744 546.024 89.0339 544.425 89.8015L561.024 121.561ZM626.974 125.783C626.974 126.678 626.527 127.126 625.631 127.126H621.217C620.322 127.126 619.874 126.678 619.874 125.783V97.0937C615.588 90.3772 611.303 83.7247 607.017 77.1362C602.795 70.4837 598.541 63.8632 594.256 57.2747C594.128 56.9548 594.128 56.667 594.256 56.4111C594.384 56.0913 594.639 55.9314 595.023 55.9314H600.492C601.26 55.9314 601.9 56.3792 602.411 57.2747L623.328 90.9529C627.166 85.132 630.78 79.5349 634.171 74.1618C637.561 68.7246 641.175 63.0956 645.013 57.2747C645.461 56.3792 646.1 55.9314 646.932 55.9314H651.729C652.113 55.9314 652.369 56.0913 652.497 56.4111C652.689 56.667 652.689 56.9548 652.497 57.2747L626.974 97.0937V125.783ZM717.456 87.4028C717.456 83.3729 716.944 79.5669 715.921 75.9848C714.897 72.4027 713.458 69.1724 711.603 66.2939C709.364 63.1596 706.678 60.7608 703.543 59.0977C700.473 57.3706 696.987 56.5071 693.085 56.5071C689.119 56.5071 685.569 57.3706 682.435 59.0977C679.364 60.7608 676.71 63.1596 674.471 66.2939C672.616 69.1724 671.177 72.4027 670.153 75.9848C669.13 79.5669 668.618 83.3729 668.618 87.4028C668.618 91.4327 669.13 95.2706 670.153 98.9167C671.177 102.499 672.616 105.729 674.471 108.608C676.774 111.678 679.492 114.077 682.627 115.804C685.761 117.531 689.247 118.394 693.085 118.394C696.987 118.394 700.473 117.563 703.543 115.9C706.678 114.173 709.364 111.742 711.603 108.608C713.458 105.729 714.897 102.499 715.921 98.9167C716.944 95.2706 717.456 91.4327 717.456 87.4028ZM724.46 87.4028C724.333 98.7888 721.71 107.68 716.593 114.077C711.028 120.985 703.192 124.439 693.085 124.439C682.978 124.439 675.11 120.985 669.481 114.077C664.236 107.488 661.614 98.5969 661.614 87.4028C661.614 82.0936 662.253 77.2961 663.533 73.0104C664.812 68.7246 666.667 64.9187 669.098 61.5924C671.976 58.0743 675.43 55.3557 679.46 53.4367C683.554 51.4538 688.096 50.4623 693.085 50.4623C698.138 50.4623 702.648 51.4218 706.614 53.3408C710.644 55.2597 714.098 58.0423 716.976 61.6884C719.471 65.1425 721.358 69.0125 722.637 73.2982C723.917 77.52 724.524 82.2215 724.46 87.4028ZM746.923 98.1491C746.923 104.226 748.49 109.023 751.625 112.542C755.143 116.443 759.844 118.394 765.729 118.394C771.742 118.394 776.507 116.443 780.026 112.542C781.625 110.814 782.776 108.768 783.48 106.401C784.247 103.97 784.631 101.219 784.631 98.1491V53.0529C784.631 52.1574 785.079 51.7096 785.974 51.7096H790.388C791.284 51.7096 791.731 52.1574 791.731 53.0529V98.1491C791.731 102.819 790.964 106.944 789.429 110.527C787.893 114.045 785.687 116.923 782.808 119.162C778.139 122.68 772.446 124.439 765.729 124.439C759.077 124.439 753.416 122.68 748.746 119.162C742.797 114.748 739.823 107.744 739.823 98.1491V53.0529C739.823 52.1574 740.271 51.7096 741.166 51.7096H745.58C746.475 51.7096 746.923 52.1574 746.923 53.0529V98.1491Z" fill="url(#paint0_diamond_1251_2539)"/>
<rect width="49" height="50" rx="24.5" fill="url(#paint1_radial_1251_2539)"/>
<defs>
<radialGradient id="paint0_diamond_1251_2539" cx="0" cy="0" r="1" gradientUnits="userSpaceOnUse" gradientTransform="translate(427.5 90) rotate(90) scale(48 373.5)">
<stop stop-color="#FF7062"/>
<stop offset="1" stop-color="#FE3360"/>
</radialGradient>
<radialGradient id="paint1_radial_1251_2539" cx="0" cy="0" r="1" gradientUnits="userSpaceOnUse" gradientTransform="translate(24.7882 25.2874) rotate(136.895) scale(22.9942 23.8416)">
<stop stop-color="#3D96E8" stop-opacity="0.35"/>
<stop offset="0.28125" stop-color="#FF3B62" stop-opacity="0.86"/>
<stop offset="0.5" stop-color="#FF3A61"/>
<stop offset="0.661458" stop-color="#FF6B62"/>
<stop offset="0.786458" stop-color="#FF6C63" stop-opacity="0.58"/>
<stop offset="1" stop-color="#FFEFE0" stop-opacity="0.35"/>
</radialGradient>
</defs>
</svg>
