<svg width="647" height="134" viewBox="0 0 647 134" fill="none" xmlns="http://www.w3.org/2000/svg">
<rect x="492" y="7" width="71" height="72" rx="35.5" fill="url(#paint0_radial_1253_2544)"/>
<path d="M210.16 30.5167C210.16 30.7539 210.061 30.9516 209.863 31.1097C209.705 31.2679 209.527 31.3469 209.33 31.3469H201.265V59.5743C201.265 60.0883 201.008 60.3452 200.494 60.3452H195.216C194.702 60.3452 194.445 60.0883 194.445 59.5743V4.83929C194.445 4.32534 194.702 4.06837 195.216 4.06837H200.494C201.008 4.06837 201.265 4.32534 201.265 4.83929V25.654H209.33C209.527 25.654 209.705 25.7331 209.863 25.8912C210.061 26.0098 210.16 26.168 210.16 26.3656V30.5167ZM187.21 39.5898C187.21 41.1316 186.894 42.2188 186.261 42.8514C185.629 43.4444 184.562 43.7409 183.059 43.7409H164.439C162.778 43.7409 161.632 43.4444 160.999 42.8514C160.367 42.2188 160.05 41.1316 160.05 39.5898V12.4298C160.05 10.9275 160.347 9.89966 160.94 9.34618C161.572 8.75317 162.64 8.45667 164.142 8.45667H183.059C184.562 8.45667 185.629 8.7334 186.261 9.28688C186.894 9.80082 187.21 10.8485 187.21 12.4298V39.5898ZM180.391 14.8019C180.391 14.4856 180.331 14.288 180.213 14.2089C180.134 14.0903 179.936 14.031 179.62 14.031H167.582C167.265 14.031 167.048 14.0705 166.929 14.1496C166.85 14.2286 166.811 14.4263 166.811 14.7426V37.3957C166.811 37.7515 166.85 37.9689 166.929 38.048C167.048 38.127 167.265 38.1666 167.582 38.1666H179.62C179.936 38.1666 180.134 38.127 180.213 38.048C180.331 37.9689 180.391 37.7515 180.391 37.3957V14.8019ZM265.098 34.6678C265.098 34.8655 264.999 35.0631 264.802 35.2608C264.604 35.4585 264.406 35.5573 264.209 35.5573H212.617C212.379 35.5573 212.182 35.4783 212.024 35.3201C211.866 35.1224 211.786 34.905 211.786 34.6678V30.7539C211.786 30.1609 212.063 29.8644 212.617 29.8644H264.209C264.406 29.8644 264.604 29.9632 264.802 30.1609C264.999 30.319 265.098 30.5167 265.098 30.7539V34.6678ZM238.413 25.8912C235.566 25.8912 232.977 25.654 230.644 25.1796C228.351 24.6657 226.375 23.954 224.714 23.0448C223.054 22.0959 221.769 20.9692 220.86 19.6646C219.99 18.36 219.555 16.8972 219.555 15.2763C219.555 13.6949 220.01 12.2519 220.919 10.9473C221.828 9.64269 223.113 8.53573 224.773 7.62645C226.434 6.67763 228.411 5.96601 230.704 5.4916C233.036 4.97766 235.606 4.72069 238.413 4.72069C241.259 4.72069 243.829 4.97766 246.122 5.4916C248.415 5.96601 250.372 6.67763 251.993 7.62645C253.653 8.53573 254.918 9.64269 255.788 10.9473C256.697 12.2519 257.152 13.6949 257.152 15.2763C257.152 16.8972 256.697 18.36 255.788 19.6646C254.918 20.9692 253.653 22.0959 251.993 23.0448C250.372 23.954 248.415 24.6657 246.122 25.1796C243.829 25.654 241.259 25.8912 238.413 25.8912ZM238.413 10.1171C236.673 10.1171 235.072 10.2555 233.609 10.5322C232.186 10.7694 230.961 11.1252 229.933 11.5996C228.905 12.074 228.094 12.6275 227.501 13.2601C226.948 13.8926 226.671 14.5647 226.671 15.2763C226.671 15.9879 226.948 16.66 227.501 17.2925C228.094 17.9251 228.905 18.4786 229.933 18.953C230.961 19.4274 232.186 19.803 233.609 20.0797C235.072 20.3564 236.673 20.4948 238.413 20.4948C240.113 20.4948 241.674 20.3564 243.098 20.0797C244.56 19.803 245.786 19.4274 246.774 18.953C247.802 18.4786 248.593 17.9251 249.146 17.2925C249.739 16.66 250.036 15.9879 250.036 15.2763C250.036 14.5647 249.739 13.8926 249.146 13.2601C248.593 12.6275 247.802 12.074 246.774 11.5996C245.786 11.1252 244.56 10.7694 243.098 10.5322C241.674 10.2555 240.113 10.1171 238.413 10.1171ZM256.618 55.3046C256.618 56.8069 256.223 57.8743 255.432 58.5069C254.681 59.1394 253.574 59.4557 252.111 59.4557H224.714C222.935 59.4557 221.729 59.1394 221.097 58.5069C220.504 57.9139 220.207 56.8465 220.207 55.3046V44.2746C220.207 42.7723 220.583 41.7049 221.334 41.0723C222.085 40.4398 223.212 40.1235 224.714 40.1235H252.111C253.89 40.1235 255.076 40.42 255.669 41.013C256.302 41.606 256.618 42.6932 256.618 44.2746V55.3046ZM249.799 46.7653C249.799 46.1327 249.522 45.8164 248.968 45.8164H227.798C227.482 45.8164 227.264 45.8955 227.145 46.0536C227.066 46.1722 227.027 46.3897 227.027 46.706V52.9919C227.027 53.3477 227.066 53.5651 227.145 53.6442C227.264 53.7233 227.482 53.7628 227.798 53.7628H248.968C249.324 53.7628 249.542 53.7233 249.621 53.6442C249.739 53.5651 249.799 53.3477 249.799 52.9919V46.7653ZM294.3 8.63457C292.56 8.63457 290.979 8.77294 289.556 9.04968C288.133 9.28688 286.887 9.64269 285.82 10.1171C284.792 10.5915 283.982 11.145 283.389 11.7775C282.835 12.4101 282.558 13.0822 282.558 13.7938C282.558 14.5054 282.835 15.1577 283.389 15.7507C283.982 16.3437 284.792 16.8774 285.82 17.3518C286.887 17.7867 288.133 18.1228 289.556 18.36C290.979 18.5972 292.56 18.7158 294.3 18.7158C296 18.7158 297.562 18.5972 298.985 18.36C300.448 18.1228 301.693 17.7867 302.721 17.3518C303.788 16.8774 304.599 16.3437 305.152 15.7507C305.745 15.1182 306.042 14.4461 306.042 13.7345C306.042 13.0229 305.745 12.3705 305.152 11.7775C304.599 11.145 303.788 10.5915 302.721 10.1171C301.693 9.64269 300.448 9.28688 298.985 9.04968C297.562 8.77294 296 8.63457 294.3 8.63457ZM312.921 13.7345C312.921 15.1577 312.505 16.5019 311.675 17.767C310.885 18.9925 309.698 20.0599 308.117 20.9692C306.536 21.839 304.579 22.5308 302.246 23.0448C299.953 23.5587 297.305 23.8157 294.3 23.8157C291.295 23.8157 288.627 23.5587 286.294 23.0448C284.001 22.5308 282.064 21.839 280.483 20.9692C278.901 20.0599 277.696 18.9925 276.865 17.767C276.075 16.5019 275.679 15.1577 275.679 13.7345C275.679 12.3112 276.075 10.9671 276.865 9.70199C277.696 8.4369 278.901 7.34971 280.483 6.44042C282.064 5.53114 284.001 4.81952 286.294 4.30558C288.627 3.7521 291.295 3.47536 294.3 3.47536C297.305 3.47536 299.953 3.7521 302.246 4.30558C304.579 4.81952 306.536 5.53114 308.117 6.44042C309.698 7.34971 310.885 8.4369 311.675 9.70199C312.505 10.9671 312.921 12.3112 312.921 13.7345ZM313.81 58.8034C313.81 59.0011 313.711 59.179 313.514 59.3371C313.355 59.5348 313.197 59.6336 313.039 59.6336H279.949C278.407 59.6336 277.36 59.3569 276.806 58.8034C276.253 58.2499 275.976 57.3406 275.976 56.0755V49.1373C275.976 47.8722 276.233 46.9629 276.747 46.4094C277.3 45.856 278.348 45.5792 279.89 45.5792H305.033C305.35 45.5792 305.547 45.5595 305.626 45.5199C305.706 45.4409 305.745 45.2037 305.745 44.8083V43.0293C305.745 42.5944 305.706 42.3374 305.626 42.2584C305.547 42.1398 305.33 42.0805 304.974 42.0805H276.687C276.49 42.0805 276.292 42.0212 276.094 41.9026C275.936 41.7444 275.857 41.5665 275.857 41.3688V37.3957C275.857 37.198 275.936 37.0201 276.094 36.8619C276.292 36.7038 276.49 36.6247 276.687 36.6247H308.414C310.035 36.6247 311.102 36.8817 311.616 37.3957C312.169 37.8701 312.446 38.7794 312.446 40.1235V47.0618C312.446 48.4455 312.169 49.3745 311.616 49.8489C311.102 50.3233 310.035 50.5605 308.414 50.5605H283.389C283.072 50.5605 282.875 50.6198 282.796 50.7384C282.716 50.8175 282.677 51.0349 282.677 51.3907V53.407C282.677 53.7628 282.716 53.9605 282.796 54C282.875 54.0791 283.092 54.1186 283.448 54.1186H312.98C313.178 54.1186 313.355 54.1977 313.514 54.3558C313.711 54.5139 313.81 54.7116 313.81 54.9488V58.8034ZM268.385 32.8295C267.832 32.8295 267.555 32.5527 267.555 31.9992V28.204C267.555 27.9668 267.634 27.7691 267.792 27.611C267.95 27.4133 268.148 27.3145 268.385 27.3145H320.037C320.234 27.3145 320.432 27.4133 320.63 27.611C320.827 27.8086 320.926 28.0063 320.926 28.204V31.9992C320.926 32.1969 320.827 32.3946 320.63 32.5923C320.432 32.7504 320.234 32.8295 320.037 32.8295H268.385ZM385.31 29.6865C385.31 31.1888 384.974 32.2562 384.302 32.8888C383.669 33.4818 382.602 33.7783 381.099 33.7783H370.069V45.0455H392.426C392.624 45.0455 392.821 45.1444 393.019 45.342C393.217 45.5397 393.315 45.7571 393.315 45.9943V49.8489C393.315 50.0466 393.217 50.2443 393.019 50.4419C392.821 50.6396 392.624 50.7384 392.426 50.7384H340.775C340.537 50.7384 340.34 50.6396 340.181 50.4419C340.023 50.2443 339.944 50.0466 339.944 49.8489V45.9943C339.944 45.3618 340.221 45.0455 340.775 45.0455H363.25V33.7783H352.279C350.5 33.7783 349.294 33.4818 348.662 32.8888C348.069 32.2562 347.772 31.169 347.772 29.6272V11.9554C347.772 10.4531 348.088 9.40548 348.721 8.81247C349.393 8.17992 350.48 7.86365 351.982 7.86365H380.803C382.582 7.86365 383.768 8.16016 384.361 8.75317C384.993 9.34618 385.31 10.4334 385.31 12.0147V29.6865ZM378.49 14.3275C378.49 14.0112 378.431 13.8135 378.312 13.7345C378.233 13.6159 378.035 13.5566 377.719 13.5566H355.422C355.106 13.5566 354.888 13.5961 354.77 13.6752C354.691 13.7542 354.651 13.9519 354.651 14.2682V27.3145C354.651 27.7098 354.691 27.947 354.77 28.0261C354.888 28.1051 355.106 28.1447 355.422 28.1447H377.719C378.035 28.1447 378.233 28.1051 378.312 28.0261C378.431 27.947 378.49 27.7098 378.49 27.3145V14.3275ZM449.855 30.6353C449.855 30.8725 449.756 31.0702 449.558 31.2283C449.4 31.3865 449.222 31.4655 449.025 31.4655H441.019V59.5743C441.019 59.8115 440.92 59.9894 440.723 60.108C440.564 60.2662 440.386 60.3452 440.189 60.3452H434.97C434.417 60.3452 434.14 60.0883 434.14 59.5743V4.83929C434.14 4.32534 434.417 4.06837 434.97 4.06837H440.189C440.386 4.06837 440.564 4.14744 440.723 4.30558C440.92 4.46371 441.019 4.64162 441.019 4.83929V25.7726H449.025C449.222 25.7726 449.4 25.8517 449.558 26.0098C449.756 26.1284 449.855 26.2866 449.855 26.4842V30.6353ZM420.975 27.0179C420.975 25.1994 420.797 23.4796 420.442 21.8587C420.086 20.2378 419.572 18.8344 418.9 17.6484C418.228 16.4228 417.397 15.4542 416.409 14.7426C415.421 14.031 414.294 13.6752 413.029 13.6752C411.803 13.6752 410.696 14.031 409.708 14.7426C408.759 15.4542 407.949 16.4228 407.277 17.6484C406.605 18.8344 406.091 20.2378 405.735 21.8587C405.379 23.4796 405.201 25.1994 405.201 27.0179C405.201 28.797 405.379 30.4969 405.735 32.1179C406.091 33.7388 406.605 35.162 407.277 36.3875C407.949 37.6131 408.759 38.6015 409.708 39.3526C410.696 40.0642 411.803 40.42 413.029 40.42C414.294 40.42 415.421 40.0642 416.409 39.3526C417.397 38.6015 418.228 37.6131 418.9 36.3875C419.572 35.162 420.086 33.7388 420.442 32.1179C420.797 30.4969 420.975 28.797 420.975 27.0179ZM413.029 46.4687C410.775 46.4687 408.739 46.0141 406.921 45.1048C405.102 44.156 403.56 42.8316 402.295 41.1316C401.07 39.4317 400.121 37.3957 399.449 35.0236C398.777 32.6516 398.441 30.0225 398.441 27.1365C398.441 24.1715 398.777 21.4832 399.449 19.0716C400.121 16.66 401.07 14.624 402.295 12.9636C403.56 11.2636 405.102 9.95896 406.921 9.04968C408.739 8.10086 410.775 7.62645 413.029 7.62645C415.322 7.62645 417.358 8.08109 419.137 8.99037C420.955 9.89966 422.497 11.2043 423.762 12.9043C425.027 14.5647 425.996 16.6007 426.668 19.0123C427.34 21.3843 427.676 24.0529 427.676 27.0179C427.676 29.983 427.34 32.6713 426.668 35.0829C425.996 37.455 425.027 39.491 423.762 41.1909C422.497 42.8909 420.955 44.1955 419.137 45.1048C417.358 46.0141 415.322 46.4687 413.029 46.4687ZM482.749 42.377C482.71 42.456 482.69 42.5153 482.69 42.5549C482.69 42.5944 482.67 42.6339 482.631 42.6735C482.552 42.7525 482.255 42.7921 481.741 42.7921H477.353C477.195 42.7921 477.116 42.7525 477.116 42.6735C476.997 42.5549 476.938 42.2188 476.938 41.6653L476.108 10.3543C476.068 9.52409 476.108 9.02991 476.226 8.87177C476.345 8.71364 476.681 8.63457 477.234 8.63457H482.512C483.066 8.63457 483.382 8.71364 483.461 8.87177C483.58 9.02991 483.619 9.52409 483.58 10.3543L482.749 41.6653V42.377ZM479.844 54.7116C478.658 54.7116 477.669 54.3163 476.879 53.5256C476.088 52.6954 475.693 51.707 475.693 50.5605C475.693 49.414 476.088 48.4257 476.879 47.5955C477.669 46.7653 478.658 46.3501 479.844 46.3501C481.03 46.3501 482.018 46.7653 482.809 47.5955C483.639 48.4257 484.054 49.414 484.054 50.5605C484.054 51.707 483.639 52.6954 482.809 53.5256C482.018 54.3163 481.03 54.7116 479.844 54.7116ZM37.156 109.318C37.235 109.753 37.1757 110.049 36.9781 110.207C36.8199 110.365 36.642 110.484 36.4444 110.563C35.1397 110.998 33.3607 111.373 31.1072 111.69C28.8933 112.006 26.5213 112.263 23.9911 112.461C21.5004 112.658 19.0296 112.797 16.5784 112.876C14.1669 112.915 12.1309 112.856 10.4704 112.698C9.00766 112.579 7.92047 112.204 7.20885 111.571C6.53677 110.939 6.20073 109.99 6.20073 108.725V79.2519C6.20073 77.8682 6.47747 76.8997 7.03095 76.3462C7.62396 75.7927 8.67162 75.516 10.1739 75.516H31.7003C32.2933 75.516 32.5898 75.7729 32.5898 76.2869V80.438C32.5898 80.9519 32.2933 81.2089 31.7003 81.2089H14.1471C13.3959 81.2089 13.0204 81.5449 13.0204 82.217V91.2901C14.5622 91.2901 16.1436 91.2901 17.7645 91.2901C19.3854 91.2901 20.9865 91.2901 22.5679 91.2901C24.1492 91.2506 25.6713 91.211 27.1341 91.1715C28.6364 91.132 30.0003 91.0727 31.2258 90.9936C31.384 90.9936 31.5619 91.0331 31.7596 91.1122C31.9968 91.1913 32.1154 91.3296 32.1154 91.5273V95.5598C32.1154 96.2319 31.8979 96.5679 31.4631 96.5679C30.1584 96.647 28.7352 96.726 27.1934 96.8051C25.6911 96.8446 24.1295 96.8842 22.5086 96.9237C20.8877 96.9632 19.2668 96.983 17.6459 96.983C16.025 96.983 14.4831 96.983 13.0204 96.983V105.226C13.0204 105.858 13.1192 106.293 13.3169 106.531C13.5541 106.728 14.0483 106.847 14.7994 106.886C16.025 106.965 17.4482 106.985 19.0691 106.946C20.7295 106.906 22.469 106.827 24.2876 106.708C26.1457 106.55 28.0236 106.353 29.9212 106.115C31.8584 105.878 33.7165 105.601 35.4955 105.285C36.0885 105.167 36.4444 105.384 36.563 105.937L37.156 109.318ZM49.0162 126.574C49.0162 127.088 48.7592 127.345 48.2453 127.345H42.9675C42.4535 127.345 42.1966 127.088 42.1966 126.574V71.8393C42.1966 71.3253 42.4535 71.0684 42.9675 71.0684H48.2453C48.7592 71.0684 49.0162 71.3253 49.0162 71.8393V126.574ZM91.7979 80.3194C91.7979 80.5566 91.699 80.774 91.5014 80.9717C91.3432 81.1298 91.1456 81.2089 90.9084 81.2089H86.6387V104.633C87.7852 104.514 88.9316 104.415 90.0781 104.336C91.2642 104.218 92.4106 104.079 93.5176 103.921C93.7153 103.882 93.9129 103.921 94.1106 104.04C94.3478 104.119 94.4862 104.257 94.5257 104.455L95.0594 108.191C95.1385 108.507 95.0792 108.744 94.8815 108.903C94.7234 109.061 94.5455 109.16 94.3478 109.199C92.0153 109.555 89.4258 109.851 86.5794 110.089C83.7329 110.326 80.7678 110.523 77.6842 110.682C74.6005 110.84 71.4773 110.939 68.3146 110.978C65.1519 111.018 62.088 110.998 59.1229 110.919C58.8462 110.919 58.6287 110.84 58.4706 110.682C58.3124 110.484 58.2334 110.266 58.2334 110.029V106.234C58.2334 105.681 58.5299 105.404 59.1229 105.404C60.0322 105.443 60.9612 105.463 61.9101 105.463C62.8589 105.463 63.7879 105.463 64.6972 105.463V81.2089H60.0717C59.874 81.2089 59.6566 81.11 59.4194 80.9124C59.2217 80.7147 59.1229 80.4973 59.1229 80.2601V76.5834C59.1229 76.3462 59.2217 76.1287 59.4194 75.9311C59.6566 75.7334 59.874 75.6346 60.0717 75.6346H90.9084C91.1456 75.6346 91.3432 75.7334 91.5014 75.9311C91.699 76.0892 91.7979 76.3066 91.7979 76.5834V80.3194ZM104.844 126.574C104.844 127.088 104.567 127.345 104.014 127.345H98.7954C98.5977 127.345 98.4001 127.266 98.2024 127.108C98.0443 126.989 97.9652 126.812 97.9652 126.574V71.8393C97.9652 71.6416 98.0443 71.4637 98.2024 71.3056C98.4001 71.1474 98.5977 71.0684 98.7954 71.0684H104.014C104.567 71.0684 104.844 71.3253 104.844 71.8393V126.574ZM71.3389 105.404C74.3435 105.325 77.2295 105.206 79.9969 105.048V81.2089H71.3389V105.404ZM133.394 93.6028C133.394 92.1005 133.275 90.5982 133.038 89.0959C132.8 87.5936 132.425 86.2297 131.911 85.0042C131.397 83.7786 130.725 82.7902 129.895 82.0391C129.104 81.2879 128.155 80.9124 127.048 80.9124C126.02 80.9124 125.131 81.3077 124.38 82.0984C123.629 82.8495 123.016 83.8379 122.541 85.0635C122.067 86.289 121.711 87.6529 121.474 89.1552C121.237 90.6575 121.118 92.1401 121.118 93.6028C121.118 95.0261 121.237 96.4888 121.474 97.9911C121.711 99.4934 122.067 100.877 122.541 102.142C123.016 103.368 123.629 104.376 124.38 105.167C125.131 105.957 126.02 106.353 127.048 106.353C128.155 106.353 129.104 105.957 129.895 105.167C130.685 104.376 131.338 103.368 131.852 102.142C132.366 100.917 132.741 99.5527 132.978 98.0504C133.255 96.5481 133.394 95.0656 133.394 93.6028ZM151.658 124.617C151.658 125.171 151.401 125.448 150.887 125.448H146.025C145.471 125.448 145.194 125.171 145.194 124.617V96.7458H139.798C139.6 99.1574 139.126 101.312 138.375 103.21C137.663 105.107 136.734 106.728 135.588 108.072C134.481 109.377 133.196 110.385 131.733 111.097C130.27 111.769 128.689 112.105 126.989 112.105C125.091 112.105 123.372 111.69 121.83 110.859C120.288 109.99 118.964 108.764 117.857 107.183C116.789 105.562 115.959 103.605 115.366 101.312C114.773 99.019 114.476 96.4295 114.476 93.5435C114.476 90.4203 114.793 87.6925 115.425 85.36C116.058 83.0275 116.928 81.0903 118.034 79.5484C119.141 78.0066 120.446 76.8601 121.948 76.109C123.49 75.3578 125.17 74.9823 126.989 74.9823C128.728 74.9823 130.349 75.3183 131.852 75.9904C133.354 76.6229 134.678 77.6113 135.825 78.9554C136.971 80.2601 137.9 81.9205 138.612 83.9367C139.324 85.953 139.758 88.325 139.917 91.0529H145.194V72.8474C145.194 72.3335 145.471 72.0765 146.025 72.0765H150.887C151.401 72.0765 151.658 72.3335 151.658 72.8474V124.617ZM163.103 126.634C163.103 127.148 162.846 127.405 162.332 127.405H157.173C156.659 127.405 156.402 127.148 156.402 126.634V71.8393C156.402 71.3253 156.679 71.0684 157.233 71.0684H162.332C162.846 71.0684 163.103 71.3253 163.103 71.8393V126.634ZM217.33 126.574C217.33 127.088 217.073 127.345 216.559 127.345H211.281C210.768 127.345 210.511 127.088 210.511 126.574V95.204H198.295C198.097 95.204 197.899 95.1249 197.702 94.9668C197.543 94.8086 197.464 94.6307 197.464 94.4331V90.2227C197.464 90.025 197.543 89.8669 197.702 89.7483C197.899 89.5901 198.097 89.5111 198.295 89.5111H210.511V71.8393C210.511 71.3253 210.768 71.0684 211.281 71.0684H216.559C217.073 71.0684 217.33 71.3253 217.33 71.8393V126.574ZM174.871 114.833C174.119 115.426 173.428 115.406 172.795 114.773L170.008 112.164C169.454 111.611 169.514 111.018 170.186 110.385C172.755 108.013 174.95 105.404 176.768 102.557C178.587 99.7109 180.05 96.6667 181.156 93.4249C182.145 90.5389 182.817 87.6134 183.173 84.6484C183.568 81.6438 183.726 78.3822 183.647 74.8637C183.647 74.6264 183.726 74.4288 183.884 74.2706C184.082 74.073 184.28 73.9741 184.477 73.9741L189.755 74.152C189.953 74.152 190.131 74.2509 190.289 74.4485C190.447 74.6067 190.526 74.8044 190.526 75.0416C190.526 79.9043 190.17 84.3716 189.459 88.4436C189.814 90.3413 190.407 92.2587 191.238 94.1958C192.068 96.0935 193.036 97.9318 194.143 99.7109C195.29 101.45 196.515 103.071 197.82 104.574C199.125 106.076 200.429 107.341 201.734 108.369C202.367 108.843 202.406 109.476 201.853 110.266L199.362 113.291C199.164 113.568 198.888 113.726 198.532 113.765C198.215 113.805 197.86 113.686 197.464 113.409C196.476 112.658 195.428 111.709 194.321 110.563C193.254 109.416 192.226 108.191 191.238 106.886C190.249 105.542 189.34 104.178 188.51 102.795C187.68 101.371 187.027 100.007 186.553 98.7027C185.841 100.363 185.031 101.964 184.122 103.506C183.212 105.048 182.244 106.531 181.216 107.954C180.227 109.337 179.18 110.622 178.073 111.808C177.005 112.955 175.938 113.963 174.871 114.833ZM285.806 126.574C285.806 126.772 285.707 126.95 285.509 127.108C285.351 127.306 285.173 127.405 284.975 127.405H279.875C279.638 127.405 279.421 127.306 279.223 127.108C279.065 126.95 278.986 126.772 278.986 126.574V116.612C278.986 116.177 278.907 115.9 278.749 115.781C278.591 115.663 278.294 115.604 277.859 115.604H249.098C248.9 115.604 248.703 115.544 248.505 115.426C248.347 115.268 248.268 115.09 248.268 114.892V110.8C248.268 110.563 248.347 110.385 248.505 110.266C248.703 110.108 248.9 110.029 249.098 110.029H264.22V105.404H241.804C241.251 105.404 240.974 105.127 240.974 104.574V100.838C240.974 100.6 241.053 100.403 241.211 100.245C241.369 100.047 241.567 99.9481 241.804 99.9481H293.396C293.594 99.9481 293.791 100.047 293.989 100.245C294.187 100.442 294.286 100.64 294.286 100.838V104.574C294.286 104.771 294.187 104.969 293.989 105.167C293.791 105.325 293.594 105.404 293.396 105.404H271.04V110.029H281.892C283.394 110.029 284.422 110.346 284.975 110.978C285.529 111.611 285.806 112.678 285.806 114.18V126.574ZM248.92 97.2202C248.643 97.2993 248.347 97.2993 248.031 97.2202C247.714 97.1016 247.517 96.9237 247.438 96.6865L246.429 93.247C246.35 93.0098 246.39 92.7726 246.548 92.5354C246.706 92.2982 246.924 92.1401 247.2 92.061C251.945 91.1517 256.353 90.1238 260.425 88.9773C264.536 87.7913 268.252 86.4274 271.573 84.8856C271.929 84.7274 272.146 84.6088 272.226 84.5298C272.344 84.4111 272.364 84.3321 272.285 84.2925C272.245 84.2135 272.146 84.1739 271.988 84.1739C271.83 84.1344 271.692 84.1146 271.573 84.1146H251.114C250.561 84.1146 250.284 83.8577 250.284 83.3437V79.7264C250.284 79.2519 250.561 79.0147 251.114 79.0147H278.037C279.777 79.0147 281.061 79.3112 281.892 79.9043C282.722 80.4577 283.137 81.0903 283.137 81.8019C283.137 82.474 282.92 83.1263 282.485 83.7588C282.089 84.3914 281.595 84.9646 281.002 85.4786C279.697 86.7437 277.839 87.9692 275.428 89.1552C277.404 89.5901 279.5 90.0052 281.714 90.4006C283.928 90.7959 286.102 91.1517 288.237 91.468C288.553 91.5471 288.771 91.725 288.889 92.0017C289.008 92.2389 289.028 92.4761 288.948 92.7133L288.059 95.797C287.98 95.9947 287.802 96.1923 287.525 96.39C287.288 96.5481 286.992 96.5877 286.636 96.5086C283.789 96.0737 280.706 95.5005 277.385 94.7889C274.064 94.0377 270.881 93.2075 267.837 92.2982C264.951 93.3261 261.868 94.2749 258.586 95.1447C255.344 95.9749 252.122 96.6667 248.92 97.2202ZM275.606 75.6939C275.606 75.9311 275.507 76.1485 275.309 76.3462C275.112 76.5439 274.874 76.6427 274.598 76.6427H259.416C259.258 76.6427 259.061 76.5636 258.823 76.4055C258.626 76.2473 258.527 76.0299 258.527 75.7532V72.4916C258.527 72.2149 258.626 71.9974 258.823 71.8393C259.061 71.6812 259.258 71.6021 259.416 71.6021H274.598C274.835 71.6021 275.052 71.7009 275.25 71.8986C275.487 72.0963 275.606 72.3137 275.606 72.5509V75.6939ZM331.908 87.8506C331.908 88.0878 331.809 88.3053 331.612 88.5029C331.453 88.7006 331.256 88.7994 331.019 88.7994H298.877C298.64 88.7994 298.403 88.7006 298.166 88.5029C297.968 88.2657 297.869 88.0285 297.869 87.7913V84.1739C297.869 83.9763 297.968 83.7786 298.166 83.5809C298.403 83.3833 298.64 83.2844 298.877 83.2844H331.019C331.256 83.2844 331.453 83.3833 331.612 83.5809C331.809 83.7391 331.908 83.9367 331.908 84.1739V87.8506ZM324.317 78.3624C324.317 78.5996 324.219 78.8171 324.021 79.0147C323.863 79.2124 323.645 79.3112 323.369 79.3112H306.705C306.547 79.3112 306.349 79.2322 306.112 79.074C305.914 78.9159 305.816 78.6985 305.816 78.4217V74.5078C305.816 74.2311 305.914 74.0137 306.112 73.8555C306.349 73.6974 306.547 73.6183 306.705 73.6183H323.369C323.606 73.6183 323.823 73.7172 324.021 73.9148C324.219 74.1125 324.317 74.3299 324.317 74.5671V78.3624ZM315.363 97.1016C313.347 97.1016 311.726 97.7342 310.5 98.9992C309.314 100.225 308.721 101.826 308.721 103.803C308.721 105.74 309.314 107.341 310.5 108.606C311.726 109.871 313.347 110.504 315.363 110.504C317.458 110.504 319.099 109.871 320.285 108.606C321.471 107.341 322.064 105.74 322.064 103.803C322.064 101.826 321.471 100.225 320.285 98.9992C319.099 97.7342 317.458 97.1016 315.363 97.1016ZM315.363 91.7052C317.3 91.7052 319.079 92.0017 320.7 92.5947C322.321 93.1482 323.705 93.9586 324.851 95.0261C325.998 96.054 326.887 97.2993 327.52 98.762C328.192 100.225 328.528 101.846 328.528 103.625C328.528 105.404 328.192 107.044 327.52 108.547C326.887 110.049 325.978 111.354 324.792 112.461C323.645 113.528 322.262 114.378 320.641 115.011C319.02 115.643 317.241 115.959 315.304 115.959C313.367 115.959 311.587 115.663 309.967 115.07C308.385 114.437 307.021 113.568 305.875 112.461C304.728 111.354 303.839 110.049 303.206 108.547C302.574 107.044 302.257 105.404 302.257 103.625C302.257 101.885 302.574 100.284 303.206 98.8213C303.839 97.3586 304.728 96.1133 305.875 95.0854C307.061 94.0179 308.445 93.1877 310.026 92.5947C311.647 92.0017 313.426 91.7052 315.363 91.7052ZM350.944 98.3469C350.944 98.5446 350.845 98.7225 350.647 98.8806C350.489 99.0388 350.291 99.1179 350.054 99.1179H342.049V126.574C342.049 127.088 341.792 127.345 341.278 127.345H336C335.486 127.345 335.229 127.088 335.229 126.574V71.8393C335.229 71.3253 335.486 71.0684 336 71.0684H341.278C341.792 71.0684 342.049 71.3253 342.049 71.8393V93.4249H350.054C350.291 93.4249 350.489 93.504 350.647 93.6621C350.845 93.7807 350.944 93.9389 350.944 94.1365V98.3469ZM398.529 126.041C398.529 126.238 398.43 126.416 398.232 126.574C398.074 126.772 397.916 126.871 397.758 126.871H365.083C363.541 126.871 362.493 126.594 361.94 126.041C361.386 125.487 361.11 124.578 361.11 123.313V116.968C361.11 115.702 361.367 114.793 361.881 114.24C362.434 113.686 363.482 113.409 365.024 113.409H389.93C390.246 113.409 390.444 113.39 390.523 113.35C390.602 113.271 390.642 113.054 390.642 112.698V111.037C390.642 110.603 390.602 110.346 390.523 110.266C390.444 110.187 390.227 110.148 389.871 110.148H361.821C361.624 110.148 361.426 110.089 361.228 109.97C361.07 109.812 360.991 109.634 360.991 109.436V105.641C360.991 105.443 361.07 105.265 361.228 105.107C361.426 104.949 361.624 104.87 361.821 104.87H393.251C394.872 104.87 395.939 105.127 396.453 105.641C397.007 106.115 397.283 107.025 397.283 108.369V114.773C397.283 116.157 397.007 117.086 396.453 117.561C395.939 118.035 394.872 118.272 393.251 118.272H368.522C368.206 118.272 368.008 118.331 367.929 118.45C367.85 118.529 367.811 118.747 367.811 119.102V120.881C367.811 121.277 367.85 121.494 367.929 121.534C368.008 121.613 368.246 121.652 368.641 121.652H397.699C397.896 121.652 398.074 121.712 398.232 121.83C398.43 121.988 398.529 122.186 398.529 122.423V126.041ZM398.173 91.7645C398.173 91.9622 398.074 92.1598 397.876 92.3575C397.718 92.5156 397.56 92.5947 397.402 92.5947H365.261C363.719 92.5947 362.671 92.318 362.118 91.7645C361.564 91.211 361.288 90.3017 361.288 89.0366V82.9286C361.288 81.6635 361.545 80.7542 362.059 80.2008C362.612 79.6473 363.66 79.3705 365.201 79.3705H389.871C390.187 79.3705 390.385 79.331 390.464 79.2519C390.543 79.1333 390.582 78.8764 390.582 78.481V76.702C390.582 76.3462 390.543 76.1485 390.464 76.109C390.385 76.0299 390.167 75.9904 389.811 75.9904H362.355C362.157 75.9904 361.96 75.9311 361.762 75.8125C361.604 75.6543 361.525 75.4764 361.525 75.2788V71.5428C361.525 71.3451 361.604 71.1672 361.762 71.0091C361.96 70.8509 362.157 70.7719 362.355 70.7719H393.192C394.813 70.7719 395.88 71.0288 396.394 71.5428C396.947 72.0172 397.224 72.9265 397.224 74.2706V80.7345C397.224 82.1182 396.947 83.0472 396.394 83.5216C395.88 83.996 394.813 84.2332 393.192 84.2332H368.76C368.404 84.2332 368.186 84.2925 368.107 84.4111C368.028 84.4902 367.989 84.6879 367.989 85.0042V86.6053C367.989 86.9611 368.028 87.1785 368.107 87.2576C368.186 87.2971 368.424 87.3169 368.819 87.3169H397.343C397.54 87.3169 397.718 87.396 397.876 87.5541C398.074 87.6727 398.173 87.8506 398.173 88.0878V91.7645ZM405.823 100.541C405.823 100.739 405.724 100.936 405.526 101.134C405.329 101.332 405.131 101.431 404.933 101.431H353.341C353.104 101.431 352.906 101.352 352.748 101.193C352.59 100.996 352.511 100.778 352.511 100.541V96.9237C352.511 96.3702 352.788 96.0935 353.341 96.0935H404.933C405.131 96.0935 405.329 96.1923 405.526 96.39C405.724 96.5481 405.823 96.726 405.823 96.9237V100.541ZM472.697 126.574C472.697 127.088 472.42 127.345 471.867 127.345H466.648C466.451 127.345 466.253 127.266 466.055 127.108C465.897 126.989 465.818 126.812 465.818 126.574V71.8393C465.818 71.6416 465.897 71.4637 466.055 71.3056C466.253 71.1474 466.451 71.0684 466.648 71.0684H471.867C472.42 71.0684 472.697 71.3253 472.697 71.8393V126.574ZM443.639 80.1415C441.386 80.1415 439.528 80.8728 438.065 82.3356C436.602 83.7984 435.871 85.7751 435.871 88.2657C435.871 90.7959 436.602 92.7924 438.065 94.2551C439.528 95.7179 441.386 96.4493 443.639 96.4493C445.972 96.4493 447.87 95.7179 449.332 94.2551C450.795 92.7924 451.526 90.7959 451.526 88.2657C451.526 85.7751 450.795 83.7984 449.332 82.3356C447.87 80.8728 445.972 80.1415 443.639 80.1415ZM443.639 74.5078C445.656 74.5078 447.533 74.8439 449.273 75.516C451.052 76.1485 452.594 77.0776 453.898 78.3031C455.203 79.4891 456.231 80.9321 456.982 82.6321C457.733 84.3321 458.109 86.21 458.109 88.2657C458.109 90.361 457.733 92.2587 456.982 93.9586C456.231 95.6191 455.203 97.0423 453.898 98.2283C452.594 99.3748 451.052 100.264 449.273 100.897C447.533 101.529 445.636 101.846 443.58 101.846C441.564 101.846 439.686 101.529 437.946 100.897C436.207 100.264 434.685 99.3748 433.38 98.2283C432.115 97.0423 431.107 95.6191 430.356 93.9586C429.605 92.2587 429.229 90.361 429.229 88.2657C429.229 86.21 429.605 84.3321 430.356 82.6321C431.107 80.9321 432.115 79.4891 433.38 78.3031C434.685 77.0776 436.207 76.1485 437.946 75.516C439.725 74.8439 441.623 74.5078 443.639 74.5078ZM425.73 110.385C425.73 110.148 425.809 109.95 425.968 109.792C426.126 109.594 426.343 109.496 426.62 109.496C429.427 109.575 432.392 109.575 435.515 109.496C438.638 109.416 441.742 109.298 444.825 109.14C447.949 108.982 450.973 108.784 453.898 108.547C456.824 108.27 459.512 107.973 461.963 107.657C462.161 107.618 462.379 107.637 462.616 107.717C462.893 107.756 463.051 107.934 463.09 108.25L463.446 112.105C463.486 112.421 463.406 112.678 463.209 112.876C463.051 113.034 462.873 113.133 462.675 113.172C460.461 113.489 457.872 113.785 454.907 114.062C451.942 114.338 448.818 114.576 445.537 114.773C442.295 114.971 439.034 115.129 435.752 115.248C432.471 115.327 429.427 115.347 426.62 115.307C426.343 115.307 426.126 115.228 425.968 115.07C425.809 114.872 425.73 114.655 425.73 114.418V110.385ZM528.406 126.574C528.406 127.088 528.149 127.345 527.635 127.345H522.358C521.844 127.345 521.587 127.088 521.587 126.574V71.8393C521.587 71.3253 521.844 71.0684 522.358 71.0684H527.635C528.149 71.0684 528.406 71.3253 528.406 71.8393V126.574ZM512.573 106.59C512.573 108.132 512.257 109.219 511.624 109.851C510.992 110.444 509.944 110.741 508.481 110.741H489.801C488.141 110.741 486.994 110.444 486.362 109.851C485.729 109.219 485.413 108.132 485.413 106.59V79.4298C485.413 77.9275 485.709 76.8997 486.302 76.3462C486.935 75.7532 488.002 75.4567 489.505 75.4567H508.481C509.944 75.4567 510.992 75.7334 511.624 76.2869C512.257 76.8008 512.573 77.8485 512.573 79.4298V106.59ZM505.813 81.8019C505.813 81.4856 505.753 81.288 505.635 81.2089C505.516 81.0903 505.299 81.031 504.982 81.031H492.944C492.628 81.031 492.41 81.0705 492.292 81.1496C492.213 81.2286 492.173 81.4263 492.173 81.7426V104.396C492.173 104.751 492.213 104.969 492.292 105.048C492.41 105.127 492.628 105.167 492.944 105.167H504.982C505.338 105.167 505.556 105.127 505.635 105.048C505.753 104.969 505.813 104.751 505.813 104.396V81.8019ZM568.282 86.7832C568.282 88.7599 567.926 90.5785 567.215 92.2389C566.543 93.8993 565.554 95.3226 564.25 96.5086C562.985 97.6946 561.463 98.6237 559.683 99.2958C557.944 99.9678 556.007 100.304 553.872 100.304C551.777 100.304 549.859 99.9678 548.12 99.2958C546.38 98.6237 544.878 97.6946 543.613 96.5086C542.387 95.3226 541.438 93.8993 540.766 92.2389C540.094 90.5785 539.758 88.7599 539.758 86.7832C539.758 84.8856 540.094 83.1065 540.766 81.4461C541.438 79.7857 542.387 78.3427 543.613 77.1171C544.878 75.8915 546.38 74.923 548.12 74.2113C549.859 73.4997 551.777 73.1439 553.872 73.1439C556.007 73.1439 557.944 73.4997 559.683 74.2113C561.463 74.923 562.985 75.8915 564.25 77.1171C565.554 78.3427 566.543 79.7857 567.215 81.4461C567.926 83.1065 568.282 84.8856 568.282 86.7832ZM546.874 127.286C546.558 127.484 546.242 127.602 545.926 127.642C545.649 127.721 545.372 127.582 545.095 127.227L542.842 124.024C542.644 123.787 542.545 123.55 542.545 123.313C542.585 123.076 542.822 122.838 543.257 122.601C546.736 120.703 549.266 118.331 550.848 115.485C552.429 112.639 553.22 109.476 553.22 105.997C553.22 105.404 553.477 105.107 553.991 105.107L558.675 105.167C559.229 105.167 559.506 105.384 559.506 105.819C559.506 106.491 559.486 107.143 559.446 107.776C559.407 108.408 559.347 109.021 559.268 109.614C559.426 110.761 559.723 111.868 560.158 112.935C560.632 113.963 561.146 114.932 561.7 115.841C562.293 116.75 562.925 117.561 563.597 118.272C564.269 118.984 564.942 119.557 565.614 119.992C565.93 120.19 566.207 120.328 566.444 120.407C566.681 120.447 566.978 120.308 567.333 119.992C569.468 118.371 571.05 116.375 572.077 114.002C573.105 111.591 573.619 108.922 573.619 105.997C573.619 105.404 573.876 105.107 574.39 105.107L579.075 105.167C579.312 105.167 579.51 105.226 579.668 105.344C579.866 105.424 579.964 105.582 579.964 105.819C579.964 106.531 579.925 107.203 579.846 107.835C579.806 108.468 579.747 109.1 579.668 109.733C579.945 111.116 580.399 112.441 581.032 113.706C581.704 114.971 582.475 116.137 583.345 117.205C584.254 118.272 585.223 119.221 586.25 120.051C587.318 120.881 588.405 121.573 589.512 122.127C589.828 122.324 590.006 122.542 590.046 122.779C590.085 123.056 590.026 123.293 589.868 123.491L587.496 126.871C587.259 127.227 586.804 127.266 586.132 126.989C585.341 126.673 584.511 126.219 583.641 125.625C582.771 125.032 581.921 124.341 581.091 123.55C580.261 122.799 579.47 121.969 578.719 121.059C577.968 120.15 577.335 119.221 576.822 118.272C575.715 120.13 574.37 121.751 572.789 123.135C571.247 124.558 569.527 125.784 567.63 126.812C566.879 127.207 566.088 127.207 565.258 126.812C563.597 126.1 561.937 124.973 560.276 123.431C558.616 121.929 557.311 120.229 556.363 118.331C555.256 120.229 553.892 121.949 552.271 123.491C550.689 125.032 548.891 126.298 546.874 127.286ZM583.582 101.727C583.582 102.241 583.325 102.498 582.811 102.498H577.533C577.019 102.498 576.762 102.221 576.762 101.668V71.8393C576.762 71.3253 577.019 71.0684 577.533 71.0684H582.811C583.325 71.0684 583.582 71.3253 583.582 71.8393V101.727ZM561.522 86.9018C561.522 84.5297 560.83 82.6716 559.446 81.3275C558.063 79.9438 556.204 79.2519 553.872 79.2519C551.619 79.2519 549.8 79.9438 548.416 81.3275C547.033 82.6716 546.341 84.5297 546.341 86.9018C546.341 89.2738 547.033 91.1517 548.416 92.5354C549.8 93.8796 551.619 94.5517 553.872 94.5517C556.204 94.5517 558.063 93.8796 559.446 92.5354C560.83 91.1517 561.522 89.2738 561.522 86.9018ZM598.077 113.706C597.761 113.904 597.444 114.022 597.128 114.062C596.812 114.101 596.555 113.983 596.357 113.706L593.985 110.444C593.748 110.089 593.689 109.772 593.807 109.496C593.965 109.179 594.143 108.942 594.341 108.784C597.029 107.124 599.441 105.246 601.576 103.15C603.75 101.015 605.588 98.8213 607.091 96.5679C608.633 94.2749 609.819 91.9819 610.649 89.689C611.479 87.396 611.934 85.2611 612.013 83.2844C612.052 82.4542 611.973 81.9007 611.775 81.624C611.578 81.3077 611.064 81.1496 610.234 81.1496H597.128C596.575 81.1496 596.298 80.8926 596.298 80.3787V76.3462C596.298 76.1485 596.377 75.9706 596.535 75.8125C596.733 75.6543 596.93 75.5753 597.128 75.5753H614.385C616.085 75.5753 617.251 75.9113 617.883 76.5834C618.516 77.2159 618.813 78.3031 618.773 79.845C618.733 81.624 618.575 83.3635 618.299 85.0635C618.022 86.7239 617.627 88.3843 617.113 90.0448H624.525V72.8474C624.525 72.3335 624.802 72.0765 625.355 72.0765H630.218C630.732 72.0765 630.989 72.3335 630.989 72.8474V124.617C630.989 125.171 630.732 125.448 630.218 125.448H625.355C624.802 125.448 624.525 125.171 624.525 124.617V95.7377H614.8C613.021 99.2958 610.708 102.597 607.862 105.641C605.055 108.646 601.793 111.334 598.077 113.706ZM642.494 126.693C642.494 127.207 642.237 127.464 641.723 127.464H636.563C636.049 127.464 635.792 127.207 635.792 126.693V71.8393C635.792 71.3253 636.069 71.0684 636.623 71.0684H641.723C642.237 71.0684 642.494 71.3253 642.494 71.8393V126.693Z" fill="#FE3360"/>
<defs>
<radialGradient id="paint0_radial_1253_2544" cx="0" cy="0" r="1" gradientUnits="userSpaceOnUse" gradientTransform="translate(527.918 43.4138) rotate(137.073) scale(33.2218 34.4313)">
<stop stop-color="#3D96E8" stop-opacity="0.35"/>
<stop offset="0.28125" stop-color="#FF3B62" stop-opacity="0.86"/>
<stop offset="0.5" stop-color="#FF3A61"/>
<stop offset="0.661458" stop-color="#FF6B62"/>
<stop offset="0.786458" stop-color="#FF6C63" stop-opacity="0.58"/>
<stop offset="1" stop-color="#FFEFE0" stop-opacity="0.35"/>
</radialGradient>
</defs>
</svg>
