<svg width="121" height="111" viewBox="0 0 121 111" fill="none" xmlns="http://www.w3.org/2000/svg">
<rect width="121" height="111" fill="white"/>
<path d="M95.5305 26.8263C93.4232 24.6611 90.9212 22.9437 88.1676 21.7724C85.414 20.6011 82.4628 19.9989 79.4826 20C76.5023 20.0012 73.5515 20.6057 70.7988 21.7791C68.0461 22.9525 65.5454 24.6718 63.4396 26.8387L60.6909 29.6974L57.965 26.8449L57.9473 26.8267C55.8409 24.6624 53.3404 22.9457 50.5883 21.7744C47.8362 20.6031 44.8866 20.0003 41.9078 20.0003C38.929 20.0003 35.9793 20.6031 33.2272 21.7744C30.4752 22.9457 27.9746 24.6624 25.8683 26.8267L24.6437 28.0849C20.3898 32.4557 18 38.3838 18 44.5651C18 50.7463 20.3898 56.6744 24.6437 61.0452L56.9625 94.2518L60.6122 98.1808L60.6992 98.0912L60.7937 98.1882L64.2131 94.4812L96.755 61.0447C101.003 56.6704 103.388 50.7436 103.388 44.5645C103.388 38.3854 101.003 32.4586 96.755 28.0843L95.5305 26.8263ZM92.7444 56.9247L60.6992 89.8512L28.6533 56.9247C25.4629 53.6466 23.6706 49.2005 23.6706 44.5646C23.6706 39.9287 25.4629 35.4826 28.6533 32.2045L29.8781 30.9463C33.0669 27.6698 37.3915 25.8283 41.9012 25.8266C46.4109 25.8248 50.7368 27.663 53.9281 30.937L60.6786 37.9994L67.4613 30.9463C69.041 29.3231 70.9165 28.0355 72.9805 27.1571C75.0446 26.2786 77.2568 25.8265 79.4909 25.8265C81.725 25.8265 83.9372 26.2786 86.0013 27.1571C88.0653 28.0355 89.9408 29.3231 91.5205 30.9463L92.7451 32.2043C95.9307 35.4851 97.7196 39.9303 97.7195 44.5647C97.7194 49.199 95.9302 53.6441 92.7444 56.9247Z" fill="#FFEAE7"/>
<path d="M77 57.8778H61.9348V41.5771H59.0652V57.8778H44V60.9827H59.0652V77.2833H61.9348V60.9827H77V57.8778Z" fill="#FFE0E7"/>
</svg>
