<svg width="32" height="32" viewBox="0 0 32 32" fill="none" xmlns="http://www.w3.org/2000/svg">
<path d="M19.9204 25.6034C19.7352 26.5063 19.244 27.3176 18.5298 27.9002C17.8156 28.4828 16.9221 28.801 16.0004 28.801C15.0787 28.801 14.1852 28.4828 13.471 27.9002C12.7568 27.3176 12.2656 26.5063 12.0804 25.6034H19.9204ZM15.9972 3.2002C17.7412 3.2002 19.378 3.6482 20.7892 4.4322C19.962 5.17454 19.4181 6.18095 19.2502 7.27965C19.0824 8.37836 19.301 9.50127 19.8688 10.4567C20.4366 11.4122 21.3184 12.141 22.3637 12.5188C23.409 12.8966 24.5529 12.8999 25.6004 12.5282V18.2546L27.1252 22.3938L27.1668 22.5298L27.1908 22.6674L27.1988 22.8098C27.1988 23.3138 26.8868 23.7538 26.3636 23.941L26.1828 23.9938L25.9988 24.0098H6.00361C5.86158 24.0095 5.72073 23.9841 5.58761 23.9346C5.12841 23.7666 4.82761 23.3394 4.81641 22.789L4.82281 22.6018L4.87721 22.3938L6.39881 18.2594L6.40041 12.469L6.40841 12.109C6.60361 7.12179 10.8324 3.2002 15.9972 3.2002ZM24.0004 11.2002C24.8491 11.2002 25.663 10.8631 26.2631 10.2629C26.8633 9.66282 27.2004 8.84889 27.2004 8.0002C27.2004 7.1515 26.8633 6.33757 26.2631 5.73745C25.663 5.13734 24.8491 4.8002 24.0004 4.8002C23.1517 4.8002 22.3378 5.13734 21.7377 5.73745C21.1375 6.33757 20.8004 7.1515 20.8004 8.0002C20.8004 8.84889 21.1375 9.66282 21.7377 10.2629C22.3378 10.8631 23.1517 11.2002 24.0004 11.2002Z" fill="#C1C1C1"/>
<path d="M20 8C20 5.79086 21.7909 4 24 4V4C26.2091 4 28 5.79086 28 8V8C28 10.2091 26.2091 12 24 12V12C21.7909 12 20 10.2091 20 8V8Z" fill="url(#paint0_linear_1313_2538)"/>
<defs>
<linearGradient id="paint0_linear_1313_2538" x1="24" y1="4" x2="24" y2="12" gradientUnits="userSpaceOnUse">
<stop stop-color="#FE3360"/>
<stop offset="0.916667" stop-color="#FF7062"/>
</linearGradient>
</defs>
</svg>
