<svg width="56" height="57" viewBox="0 0 56 57" fill="none" xmlns="http://www.w3.org/2000/svg">
<path d="M17.124 0V25.1675H8.79475V0H17.124ZM26.1883 0V5.61679H0V0H26.1883Z" fill="url(#paint0_radial_225_733)"/>
<path d="M36.4017 0V25.1675H28.1214V0H36.4017Z" fill="url(#paint1_radial_225_733)"/>
<path d="M13.4738 26.776V51.9436H5.19356V26.776H13.4738ZM25.2084 36.8214V42.4382H11.0241V36.8214H25.2084ZM26.1883 26.776V32.3928H11.0241V26.776H26.1883Z" fill="url(#paint2_radial_225_733)"/>
<path d="M40.4928 39.8242L47.1318 26.776H56L45.6129 43.9072H41.3013L40.4928 39.8242ZM36.9896 26.776L43.6776 39.9755L42.7711 43.9072H38.484L28.1214 26.776H36.9896ZM46.1273 40.0403V51.9436H37.8226V40.0403H46.1273Z" fill="url(#paint3_radial_225_733)"/>
<defs>
<radialGradient id="paint0_radial_225_733" cx="0" cy="0" r="1" gradientUnits="userSpaceOnUse" gradientTransform="translate(65.7925 19.9712) rotate(-174.263) scale(66.8376 18.488)">
<stop stop-color="#FFEFE0" stop-opacity="0.35"/>
<stop offset="0.208333" stop-color="#FF6C63" stop-opacity="0.58"/>
<stop offset="0.473958" stop-color="#FF6B62"/>
<stop offset="0.651042" stop-color="#FF3A61"/>
<stop offset="0.890625" stop-color="#FF3B62" stop-opacity="0.86"/>
<stop offset="1" stop-color="#3D96E8" stop-opacity="0.35"/>
</radialGradient>
<radialGradient id="paint1_radial_225_733" cx="0" cy="0" r="1" gradientUnits="userSpaceOnUse" gradientTransform="translate(65.7925 19.9712) rotate(-174.263) scale(66.8376 18.488)">
<stop stop-color="#FFEFE0" stop-opacity="0.35"/>
<stop offset="0.208333" stop-color="#FF6C63" stop-opacity="0.58"/>
<stop offset="0.473958" stop-color="#FF6B62"/>
<stop offset="0.651042" stop-color="#FF3A61"/>
<stop offset="0.890625" stop-color="#FF3B62" stop-opacity="0.86"/>
<stop offset="1" stop-color="#3D96E8" stop-opacity="0.35"/>
</radialGradient>
<radialGradient id="paint2_radial_225_733" cx="0" cy="0" r="1" gradientUnits="userSpaceOnUse" gradientTransform="translate(65.7925 19.9712) rotate(-174.263) scale(66.8376 18.488)">
<stop stop-color="#FFEFE0" stop-opacity="0.35"/>
<stop offset="0.208333" stop-color="#FF6C63" stop-opacity="0.58"/>
<stop offset="0.473958" stop-color="#FF6B62"/>
<stop offset="0.651042" stop-color="#FF3A61"/>
<stop offset="0.890625" stop-color="#FF3B62" stop-opacity="0.86"/>
<stop offset="1" stop-color="#3D96E8" stop-opacity="0.35"/>
</radialGradient>
<radialGradient id="paint3_radial_225_733" cx="0" cy="0" r="1" gradientUnits="userSpaceOnUse" gradientTransform="translate(65.7925 19.9712) rotate(-174.263) scale(66.8376 18.488)">
<stop stop-color="#FFEFE0" stop-opacity="0.35"/>
<stop offset="0.208333" stop-color="#FF6C63" stop-opacity="0.58"/>
<stop offset="0.473958" stop-color="#FF6B62"/>
<stop offset="0.651042" stop-color="#FF3A61"/>
<stop offset="0.890625" stop-color="#FF3B62" stop-opacity="0.86"/>
<stop offset="1" stop-color="#3D96E8" stop-opacity="0.35"/>
</radialGradient>
</defs>
</svg>
