<svg width="26" height="26" viewBox="0 0 26 26" fill="none" xmlns="http://www.w3.org/2000/svg">
<path d="M10.3483 23.4C10.3483 24.83 9.18408 26 7.76119 26C6.33831 26 5.17413 24.83 5.17413 23.4C5.17413 21.97 6.33831 20.8 7.76119 20.8C9.18408 20.8 10.3483 21.97 10.3483 23.4ZM20.6965 20.8C19.2736 20.8 18.1095 21.97 18.1095 23.4C18.1095 24.83 19.2736 26 20.6965 26C22.1194 26 23.2836 24.83 23.2836 23.4C23.2836 21.97 22.1194 20.8 20.6965 20.8ZM8.0199 16.64V16.51L9.18408 14.3H18.7562C19.6617 14.3 20.5672 13.78 20.9552 13L26 3.9L23.801 2.6L18.7562 11.7H9.70149L4.26866 0H0V2.6H2.58706L7.24378 12.48L5.43284 15.6C5.30348 15.99 5.17413 16.38 5.17413 16.9C5.17413 18.33 6.33831 19.5 7.76119 19.5H23.2836V16.9H8.27861C8.14925 16.9 8.0199 16.77 8.0199 16.64ZM14.2289 9.49L13.4527 8.84C10.8657 6.37 9.05473 4.81 9.05473 2.86C9.05473 1.3 10.3483 0 11.9005 0C12.806 0 13.7114 0.39 14.2289 1.04C14.7463 0.39 15.6517 0 16.5572 0C18.1095 0 19.403 1.17 19.403 2.86C19.403 4.81 17.592 6.37 15.005 8.84L14.2289 9.49Z" fill="#C1C1C1"/>
</svg>
