<svg width="23" height="30" viewBox="0 0 23 30" fill="none" xmlns="http://www.w3.org/2000/svg">
<path d="M22.5089 12.1717H22.1521H13.7224V7.99023H22.5089V12.1717Z" fill="#FDE3E3"/>
<path d="M10.3088 13.3711H13.0079V29.39H10.3088V13.3711Z" fill="#F16061"/>
<path d="M10.3088 7.99023H13.0079V12.1717H10.3088V7.99023Z" fill="#F16061"/>
<path d="M0 7.99023H9.59386V12.1717H1.16458H0V7.99023Z" fill="#FDE3E3"/>
<path d="M1.6145 13.3711H9.59375V29.39H1.6145V13.3711Z" fill="#FDE3E3"/>
<path d="M13.7224 13.3711H21.7022V29.39H13.7224V13.3711Z" fill="#FDE3E3"/>
<path d="M8.49867 3.67413C7.86863 2.8341 6.84706 2.83437 6.21658 3.67494C5.58614 4.5152 5.58614 5.87798 6.21581 6.71802C6.54697 7.15872 6.98453 7.36182 7.41738 7.34124L7.4152 7.34599H11.2534L11.2542 2.22697C11.2524 2.22778 11.2516 2.22854 11.2506 2.22854C11.2656 1.65177 11.1127 1.07074 10.7824 0.630033C10.1523 -0.209732 9.13134 -0.210542 8.49948 0.630789C7.8694 1.47109 7.86863 2.8341 8.49867 3.67413Z" fill="#F16061"/>
<path d="M14.0101 3.67413C14.6404 2.8341 15.6619 2.83437 16.2926 3.67494C16.9225 4.5152 16.9229 5.87798 16.2934 6.71802C15.9622 7.15872 15.525 7.36182 15.0918 7.34124L15.0946 7.34599H11.2564L11.2546 2.22697C11.2568 2.22778 11.2568 2.22854 11.2578 2.22854C11.2437 1.65177 11.3965 1.07074 11.7264 0.630033C12.3567 -0.209732 13.3783 -0.210542 14.0093 0.630789C14.6392 1.47109 14.6404 2.8341 14.0101 3.67413Z" fill="#F16061"/>
</svg>
