<svg width="71" height="73" viewBox="0 0 71 73" fill="none" xmlns="http://www.w3.org/2000/svg">
<g clip-path="url(#clip0_212_3026)">
<rect x="4.46484" y="4.58105" width="60" height="60" rx="30" fill="#E0E0E0" fill-opacity="0.2"/>
<rect x="22.4648" y="14.5811" width="24" height="24" rx="12" fill="#FE3360"/>
<rect x="-10.5352" y="44.5811" width="90" height="90" rx="45" fill="#FE3360"/>
</g>
<circle cx="60.9648" cy="59.0811" r="8.5" fill="#D9D9D9"/>
<mask id="path-5-inside-1_212_3026" fill="white">
<path d="M56.5432 64.4873L56.5453 64.4891C56.6 64.5358 56.6636 64.5714 56.7324 64.5938C56.8012 64.6162 56.8738 64.6249 56.9461 64.6196C57.007 64.615 57.0667 64.6006 57.1228 64.577L60.1801 63.295L65.7539 56.9205C66.0946 56.5307 66.2645 56.024 66.2261 55.5118C66.1878 54.9996 65.9444 54.5239 65.5494 54.1892C65.1544 53.8546 64.6403 53.6885 64.12 53.7274C63.5998 53.7664 63.1161 54.0072 62.7754 54.3969L57.2016 60.7715L56.369 63.9383C56.3427 64.0368 56.3451 64.1406 56.3759 64.2377C56.4067 64.3348 56.4647 64.4213 56.5432 64.4873ZM63.3119 54.8515C63.5303 54.6036 63.8394 54.4508 64.1714 54.4266C64.5034 54.4024 64.8314 54.5087 65.0834 54.7223C65.3355 54.9358 65.4911 55.2392 65.5162 55.5661C65.5413 55.8929 65.4338 56.2165 65.2173 56.466L64.4843 57.3043L62.5789 55.6897L63.3119 54.8515ZM57.8461 61.1025L62.116 56.219L64.0215 57.8336L59.7515 62.717L57.1329 63.8151L57.8461 61.1025Z"/>
</mask>
<path d="M56.5432 64.4873L56.5453 64.4891C56.6 64.5358 56.6636 64.5714 56.7324 64.5938C56.8012 64.6162 56.8738 64.6249 56.9461 64.6196C57.007 64.615 57.0667 64.6006 57.1228 64.577L60.1801 63.295L65.7539 56.9205C66.0946 56.5307 66.2645 56.024 66.2261 55.5118C66.1878 54.9996 65.9444 54.5239 65.5494 54.1892C65.1544 53.8546 64.6403 53.6885 64.12 53.7274C63.5998 53.7664 63.1161 54.0072 62.7754 54.3969L57.2016 60.7715L56.369 63.9383C56.3427 64.0368 56.3451 64.1406 56.3759 64.2377C56.4067 64.3348 56.4647 64.4213 56.5432 64.4873ZM63.3119 54.8515C63.5303 54.6036 63.8394 54.4508 64.1714 54.4266C64.5034 54.4024 64.8314 54.5087 65.0834 54.7223C65.3355 54.9358 65.4911 55.2392 65.5162 55.5661C65.5413 55.8929 65.4338 56.2165 65.2173 56.466L64.4843 57.3043L62.5789 55.6897L63.3119 54.8515ZM57.8461 61.1025L62.116 56.219L64.0215 57.8336L59.7515 62.717L57.1329 63.8151L57.8461 61.1025Z" fill="black"/>
<path d="M56.5432 64.4873L57.1897 63.7244L57.1867 63.7219L56.5432 64.4873ZM56.5453 64.4891L57.1946 63.7285L57.1918 63.7261L56.5453 64.4891ZM56.9461 64.6196L57.0199 65.6169L57.0215 65.6167L56.9461 64.6196ZM57.1228 64.577L56.7361 63.6548L56.7349 63.6552L57.1228 64.577ZM60.1801 63.295L60.5668 64.2172L60.7804 64.1277L60.9329 63.9533L60.1801 63.295ZM65.7539 56.9205L66.5067 57.5787L66.5067 57.5787L65.7539 56.9205ZM62.7754 54.3969L63.5282 55.0552L63.5282 55.0551L62.7754 54.3969ZM57.2016 60.7715L56.4488 60.1133L56.2942 60.2901L56.2345 60.5172L57.2016 60.7715ZM56.369 63.9383L57.3351 64.1964L57.3361 64.1926L56.369 63.9383ZM63.3119 54.8515L62.5616 54.1903L62.5591 54.1932L63.3119 54.8515ZM65.2173 56.466L65.9701 57.1243L65.9726 57.1214L65.2173 56.466ZM64.4843 57.3043L63.8379 58.0672L64.5891 58.7037L65.2371 57.9625L64.4843 57.3043ZM62.5789 55.6897L61.8261 55.0315L61.1575 55.7961L61.9324 56.4527L62.5789 55.6897ZM57.8461 61.1025L57.0933 60.4442L56.9387 60.621L56.879 60.8482L57.8461 61.1025ZM62.116 56.219L62.7625 55.4561L62.0113 54.8196L61.3632 55.5608L62.116 56.219ZM64.0215 57.8336L64.7743 58.4918L65.4429 57.7272L64.668 57.0706L64.0215 57.8336ZM59.7515 62.717L60.1382 63.6392L60.3519 63.5496L60.5044 63.3753L59.7515 62.717ZM57.1329 63.8151L56.1657 63.5608L55.6503 65.5211L57.5195 64.7373L57.1329 63.8151ZM55.8968 65.2502L55.8988 65.252L57.1918 63.7261L57.1897 63.7244L55.8968 65.2502ZM55.8961 65.2496C56.051 65.3819 56.2301 65.4819 56.4228 65.5446L57.042 63.6429C57.0971 63.6608 57.1491 63.6897 57.1946 63.7285L55.8961 65.2496ZM56.4228 65.5446C56.6154 65.6073 56.8183 65.6318 57.0199 65.6169L56.8724 63.6223C56.9294 63.6181 56.987 63.625 57.042 63.6429L56.4228 65.5446ZM57.0215 65.6167C57.1897 65.604 57.3549 65.5642 57.5107 65.4987L56.7349 63.6552C56.7784 63.637 56.8242 63.6259 56.8708 63.6224L57.0215 65.6167ZM57.5095 65.4992L60.5668 64.2172L59.7934 62.3728L56.7361 63.6548L57.5095 65.4992ZM60.9329 63.9533L66.5067 57.5787L65.0011 56.2622L59.4273 62.6368L60.9329 63.9533ZM66.5067 57.5787C67.0222 56.989 67.2819 56.2189 67.2234 55.4372L65.2289 55.5865C65.2471 55.8292 65.167 56.0724 65.001 56.2622L66.5067 57.5787ZM67.2234 55.4372C67.1648 54.6554 66.7934 53.9325 66.1958 53.4262L64.903 54.9522C65.0953 55.1152 65.2108 55.3438 65.2289 55.5865L67.2234 55.4372ZM66.1958 53.4262C65.5988 52.9204 64.8251 52.6718 64.0454 52.7302L64.1947 54.7246C64.4554 54.7051 64.71 54.7887 64.903 54.9522L66.1958 53.4262ZM64.0454 52.7302C63.2656 52.7886 62.5376 53.1496 62.0225 53.7387L63.5282 55.0551C63.6947 54.8647 63.934 54.7441 64.1947 54.7246L64.0454 52.7302ZM62.0226 53.7387L56.4488 60.1133L57.9544 61.4297L63.5282 55.0552L62.0226 53.7387ZM56.2345 60.5172L55.4019 63.684L57.3361 64.1926L58.1687 61.0258L56.2345 60.5172ZM55.4029 63.6802C55.3274 63.9628 55.3342 64.2611 55.4227 64.5402L57.329 63.9352C57.356 64.02 57.358 64.1108 57.3351 64.1964L55.4029 63.6802ZM55.4227 64.5402C55.5113 64.8192 55.6773 65.0658 55.8998 65.2528L57.1867 63.7219C57.2521 63.7768 57.3021 63.8504 57.329 63.9352L55.4227 64.5402ZM64.0621 55.5126C64.106 55.4628 64.171 55.4293 64.2441 55.4239L64.0987 53.4292C63.5077 53.4723 62.9546 53.7443 62.5616 54.1903L64.0621 55.5126ZM64.2441 55.4239C64.3173 55.4186 64.3864 55.4424 64.437 55.4852L65.7299 53.9593C65.2763 53.575 64.6896 53.3861 64.0987 53.4292L64.2441 55.4239ZM64.437 55.4852C64.4869 55.5275 64.5147 55.5846 64.5191 55.6426L66.5132 55.4895C66.4675 54.8939 66.184 54.3441 65.7299 53.9593L64.437 55.4852ZM64.5191 55.6426C64.5236 55.7006 64.5049 55.7612 64.462 55.8106L65.9726 57.1214C66.3627 56.6718 66.559 56.0852 66.5132 55.4895L64.5191 55.6426ZM64.4645 55.8078L63.7315 56.646L65.2371 57.9625L65.9701 57.1243L64.4645 55.8078ZM65.1308 56.5413L63.2253 54.9268L61.9324 56.4527L63.8379 58.0672L65.1308 56.5413ZM63.3316 56.348L64.0646 55.5097L62.5591 54.1932L61.8261 55.0315L63.3316 56.348ZM58.5989 61.7607L62.8688 56.8773L61.3632 55.5608L57.0933 60.4442L58.5989 61.7607ZM61.4696 56.982L63.3751 58.5965L64.668 57.0706L62.7625 55.4561L61.4696 56.982ZM63.2687 57.1753L58.9987 62.0588L60.5044 63.3753L64.7743 58.4918L63.2687 57.1753ZM59.3649 61.7948L56.7462 62.8928L57.5195 64.7373L60.1382 63.6392L59.3649 61.7948ZM58.1 64.0693L58.8132 61.3568L56.879 60.8482L56.1657 63.5608L58.1 64.0693Z" fill="#686161" mask="url(#path-5-inside-1_212_3026)"/>
<defs>
<clipPath id="clip0_212_3026">
<rect x="4.46484" y="4.58105" width="60" height="60" rx="30" fill="white"/>
</clipPath>
</defs>
</svg>
