<svg width="53" height="53" viewBox="0 0 53 53" fill="none" xmlns="http://www.w3.org/2000/svg">
<circle cx="26.4901" cy="26.4901" r="26.4901" fill="#D9D9D9"/>
<path d="M18.4286 10H35.5714C36.4807 10 37.3528 10.3582 37.9958 10.9958C38.6388 11.6335 39 12.4983 39 13.4V21.9H15V13.4C15 12.4983 15.3612 11.6335 16.0042 10.9958C16.6472 10.3582 17.5193 10 18.4286 10ZM39 38.9C39 39.8017 38.6388 40.6665 37.9958 41.3042C37.3528 41.9418 36.4807 42.3 35.5714 42.3V44H32.1429V42.3H21.8571V44H18.4286V42.3C17.5193 42.3 16.6472 41.9418 16.0042 41.3042C15.3612 40.6665 15 39.8017 15 38.9V23.6H39V38.9ZM20.1429 15.1V18.5H23.5714V15.1H20.1429ZM20.1429 27V32.1H23.5714V27H20.1429Z" fill="white"/>
</svg>
