<svg width="53" height="53" viewBox="0 0 53 53" fill="none" xmlns="http://www.w3.org/2000/svg">
<circle cx="26.4901" cy="26.4901" r="26.4901" fill="#D9D9D9"/>
<path d="M26.4999 18.6667L24.2278 18.8204C22.7586 17.0779 18.6415 12.6875 14.5415 12.6875C14.5415 12.6875 11.1761 17.7442 14.4732 24.4921C13.5336 25.91 12.9528 26.6446 12.8332 28.3358L9.53613 28.8313L9.89488 30.5054L12.9015 30.0613L13.1407 31.2742L10.4586 32.88L11.2615 34.4004L13.7386 32.88C15.7032 37.0483 20.6745 39.1667 26.4999 39.1667C32.3253 39.1667 37.2965 37.0483 39.2611 32.88L41.7382 34.4004L42.5411 32.88L39.8591 31.2742L40.0982 30.0613L43.1049 30.5054L43.4636 28.8313L40.1666 28.3358C40.047 26.6446 39.4661 25.91 38.5266 24.4921C41.8236 17.7442 38.4582 12.6875 38.4582 12.6875C34.3582 12.6875 30.2411 17.0779 28.772 18.8204L26.4999 18.6667ZM21.3749 23.7917C21.828 23.7917 22.2625 23.9717 22.5829 24.292C22.9032 24.6124 23.0832 25.0469 23.0832 25.5C23.0832 25.9531 22.9032 26.3876 22.5829 26.708C22.2625 27.0283 21.828 27.2083 21.3749 27.2083C20.9218 27.2083 20.4873 27.0283 20.1669 26.708C19.8465 26.3876 19.6666 25.9531 19.6666 25.5C19.6666 25.0469 19.8465 24.6124 20.1669 24.292C20.4873 23.9717 20.9218 23.7917 21.3749 23.7917ZM31.6249 23.7917C32.078 23.7917 32.5125 23.9717 32.8329 24.292C33.1532 24.6124 33.3332 25.0469 33.3332 25.5C33.3332 25.9531 33.1532 26.3876 32.8329 26.708C32.5125 27.0283 32.078 27.2083 31.6249 27.2083C31.1718 27.2083 30.7373 27.0283 30.4169 26.708C30.0965 26.3876 29.9166 25.9531 29.9166 25.5C29.9166 25.0469 30.0965 24.6124 30.4169 24.292C30.7373 23.9717 31.1718 23.7917 31.6249 23.7917ZM24.7916 28.9167H28.2082L27.0124 31.2913C27.3541 32.3846 28.3107 33.1875 29.4895 33.1875C30.1691 33.1875 30.8209 32.9175 31.3014 32.437C31.782 31.9564 32.052 31.3046 32.052 30.625H32.9061C32.9061 31.5312 32.5462 32.4002 31.9054 33.0409C31.2647 33.6817 30.3956 34.0417 29.4895 34.0417C28.2082 34.0417 27.0978 33.3413 26.4999 32.3333C25.902 33.3413 24.7916 34.0417 23.5103 34.0417C22.6041 34.0417 21.7351 33.6817 21.0944 33.0409C20.4536 32.4002 20.0936 31.5312 20.0936 30.625H20.9478C20.9478 31.3046 21.2178 31.9564 21.6983 32.437C22.1789 32.9175 22.8307 33.1875 23.5103 33.1875C24.6891 33.1875 25.6457 32.3846 25.9874 31.2913L24.7916 28.9167Z" fill="white"/>
</svg>
