<svg width="53" height="53" viewBox="0 0 53 53" fill="none" xmlns="http://www.w3.org/2000/svg">
<circle cx="26.4901" cy="26.4901" r="26.4901" fill="#D9D9D9"/>
<path d="M27.25 17.75C27.25 16.2237 28.585 15 30.25 15H35.5C37.15 15 38.5 16.2375 38.5 17.75V20.72C36.76 21.2837 35.5 22.7963 35.5 24.5838V27.375H27.25V17.75ZM17.5 24.57V27.375H25.75V17.75C25.75 16.2237 24.415 15 22.75 15H17.5C15.85 15 14.5 16.2375 14.5 17.75V20.7062C16.24 21.27 17.5 22.7963 17.5 24.57ZM39.49 21.9162C38.02 22.1362 37 23.415 37 24.79V28.75H16V24.625C16 23.8957 15.6839 23.1962 15.1213 22.6805C14.5587 22.1647 13.7956 21.875 13 21.875C12.2044 21.875 11.4413 22.1647 10.8787 22.6805C10.3161 23.1962 10 23.8957 10 24.625V31.5C10 33.0125 11.35 34.25 13 34.25V37H16V34.25H37V37H40V34.25C41.65 34.25 43 33.0125 43 31.5V24.625C43 22.9612 41.365 21.6275 39.49 21.9162Z" fill="white"/>
</svg>
