<svg width="29" height="28" viewBox="0 0 29 28" fill="none" xmlns="http://www.w3.org/2000/svg">
<path d="M6.04036 25.6663C5.71989 25.6663 5.41255 25.5434 5.18594 25.3246C4.95934 25.1058 4.83203 24.8091 4.83203 24.4997V3.49967C4.83203 3.19026 4.95934 2.89351 5.18594 2.67472C5.41255 2.45592 5.71989 2.33301 6.04036 2.33301H22.957C23.2775 2.33301 23.5848 2.45592 23.8115 2.67472C24.0381 2.89351 24.1654 3.19026 24.1654 3.49967V24.4997C24.1654 24.8091 24.0381 25.1058 23.8115 25.3246C23.5848 25.5434 23.2775 25.6663 22.957 25.6663H6.04036ZM18.1237 18.6663L24.1654 13.9997L18.1237 9.33301V12.833H10.8737V15.1663H18.1237V18.6663Z" fill="#C1C1C1"/>
</svg>
