<svg width="67" height="67" viewBox="0 0 67 67" fill="none" xmlns="http://www.w3.org/2000/svg">
<path fill-rule="evenodd" clip-rule="evenodd" d="M51.0351 0C60.7188 0 67 6.28125 67 15.9649V51.0351C67 60.7188 60.7188 67 51.0351 67H15.9649C6.28125 67 0 60.7188 0 51.0351V15.9649C0 6.28125 6.28125 0 15.9649 0H51.0351Z" fill="white"/>
<path fill-rule="evenodd" clip-rule="evenodd" d="M51.0351 0C60.7188 0 67 6.28125 67 15.9649V51.0351C67 60.7188 60.7188 67 51.0351 67H15.9649C6.28125 67 0 60.7188 0 51.0351V15.9649C0 6.28125 6.28125 0 15.9649 0H51.0351Z" fill="white"/>
<path fill-rule="evenodd" clip-rule="evenodd" d="M27.0934 12.3883C21.6786 14.2444 17.0647 18.3039 14.4947 23.4411C13.5983 25.2135 12.9528 27.0935 12.5583 29.0454C11.5781 33.8833 12.2595 39.0446 14.4828 43.4514C15.9291 46.3253 18.009 48.888 20.5192 50.8878C22.8979 52.7798 25.659 54.1929 28.5996 54.9713C32.305 55.9652 36.2496 55.9412 39.9791 55.091C43.3498 54.3126 46.5414 52.696 49.0874 50.3489C51.7769 47.8701 53.7014 44.6129 54.7174 41.1042C55.8288 37.2842 55.9723 33.2008 55.2795 29.273C48.3105 29.273 41.3298 29.273 34.361 29.273C34.361 32.1709 34.361 35.0688 34.361 37.9668C38.4012 37.9668 42.4414 37.9668 46.4816 37.9668C46.0154 40.745 44.3659 43.2837 42.035 44.8524C40.5647 45.8463 38.8794 46.481 37.1342 46.7924C35.389 47.0918 33.5721 47.1277 31.8269 46.7804C30.0459 46.4211 28.3605 45.6787 26.8783 44.6369C24.5115 42.9723 22.7066 40.5414 21.7862 37.7991C20.8419 35.009 20.83 31.9074 21.7862 29.1293C22.4556 27.1654 23.5553 25.3571 25.0136 23.8722C26.8066 22.0281 29.1375 20.7108 31.6596 20.172C33.8111 19.717 36.0823 19.8008 38.1861 20.4354C39.9791 20.9743 41.6286 21.9682 42.9793 23.2615C44.342 21.8964 45.7047 20.5312 47.0673 19.1661C47.7845 18.4356 48.5376 17.7291 49.2309 16.9746C47.163 15.0587 44.7245 13.5139 42.0709 12.5319C37.2896 10.7597 31.9106 10.7237 27.0934 12.3883Z" fill="white"/>
<path fill-rule="evenodd" clip-rule="evenodd" d="M27.0935 12.3882C31.8987 10.7236 37.2896 10.7596 42.0709 12.5199C44.7245 13.5018 47.151 15.0346 49.2308 16.9626C48.5376 17.717 47.7845 18.4235 47.0673 19.154C45.7046 20.5192 44.342 21.8843 42.9793 23.2494C41.6286 21.9562 39.979 20.9742 38.1861 20.4234C36.0823 19.7887 33.8112 19.6929 31.6596 20.1599C29.1494 20.6988 26.8186 22.016 25.0136 23.8602C23.5553 25.3331 22.4556 27.1533 21.7862 29.1172C19.3597 27.2252 16.9332 25.3451 14.4948 23.4531C17.0647 18.3038 21.6787 14.2443 27.0935 12.3882Z" fill="#EA4335"/>
<path fill-rule="evenodd" clip-rule="evenodd" d="M12.5702 29.033C12.9646 27.0931 13.6101 25.201 14.5066 23.4287C16.9331 25.3207 19.3596 27.2008 21.7981 29.0928C20.8418 31.883 20.8418 34.9845 21.7981 37.7627C19.3716 39.6548 16.9451 41.5468 14.5186 43.4269C12.2714 39.0321 11.59 33.8709 12.5702 29.033Z" fill="#FBBC05"/>
<path fill-rule="evenodd" clip-rule="evenodd" d="M34.3609 29.2612C41.3297 29.2612 48.3103 29.2612 55.2794 29.2612C55.9722 33.177 55.817 37.2605 54.7173 41.0925C53.7013 44.6012 51.7768 47.8584 49.0873 50.3372C46.7326 48.505 44.3777 46.6729 42.023 44.8407C44.3538 43.2719 46.0034 40.7332 46.4696 37.955C42.4294 37.955 38.3892 37.955 34.349 37.955C34.3609 35.0571 34.3609 32.1591 34.3609 29.2612Z" fill="#4285F4"/>
<path fill-rule="evenodd" clip-rule="evenodd" d="M14.4948 43.4396C16.9213 41.5595 19.3478 39.6675 21.7742 37.7754C22.7066 40.5177 24.4996 42.9486 26.8664 44.6131C28.3486 45.6549 30.0459 46.3974 31.815 46.7566C33.5602 47.1159 35.3651 47.068 37.1222 46.7686C38.8674 46.4573 40.5528 45.8226 42.023 44.8286C44.3779 46.6608 46.7326 48.493 49.0874 50.3252C46.5414 52.6842 43.3499 54.2889 39.979 55.0673C36.2497 55.9174 32.3051 55.9414 28.5996 54.9475C25.6591 54.1692 22.8979 52.7681 20.5192 50.8641C18.021 48.8762 15.9411 46.3136 14.4948 43.4396Z" fill="#34A853"/>
</svg>
