<svg width="27" height="27" viewBox="0 0 27 27" fill="none" xmlns="http://www.w3.org/2000/svg">
<path d="M16.8065 21.6029C16.6502 22.3647 16.2358 23.0493 15.6332 23.5408C15.0305 24.0324 14.2767 24.3009 13.499 24.3009C12.7213 24.3009 11.9675 24.0324 11.3648 23.5408C10.7622 23.0493 10.3478 22.3647 10.1915 21.6029H16.8065ZM13.4963 2.7002C14.9678 2.7002 16.3489 3.0782 17.5395 3.7397C16.8416 4.36605 16.3827 5.21521 16.241 6.14224C16.0994 7.06927 16.2839 8.01672 16.763 8.8229C17.242 9.62908 17.9861 10.244 18.868 10.5628C19.75 10.8815 20.7152 10.8843 21.599 10.5707V15.4023L22.8855 18.8948L22.9207 19.0095L22.9409 19.1256L22.9477 19.2458C22.9477 19.671 22.6844 20.0423 22.2429 20.2002L22.0904 20.2448L21.9352 20.2583H5.0642C4.94437 20.2581 4.82552 20.2366 4.7132 20.1948C4.32575 20.0531 4.07195 19.6926 4.0625 19.2282L4.0679 19.0703L4.1138 18.8948L5.39765 15.4064L5.399 10.5207L5.40575 10.217C5.57045 6.00904 9.1385 2.7002 13.4963 2.7002ZM20.249 9.45019C20.9651 9.45019 21.6518 9.16573 22.1582 8.65938C22.6645 8.15304 22.949 7.46628 22.949 6.7502C22.949 6.03411 22.6645 5.34735 22.1582 4.84101C21.6518 4.33466 20.9651 4.0502 20.249 4.0502C19.5329 4.0502 18.8462 4.33466 18.3398 4.84101C17.8335 5.34735 17.549 6.03411 17.549 6.7502C17.549 7.46628 17.8335 8.15304 18.3398 8.65938C18.8462 9.16573 19.5329 9.45019 20.249 9.45019Z" fill="#C1C1C1"/>
</svg>
