<svg width="33" height="33" viewBox="0 0 33 33" fill="none" xmlns="http://www.w3.org/2000/svg">
<g clip-path="url(#clip0_385_1367)">
<path d="M21.3125 19.25H20.2263L19.8413 18.8787C21.1888 17.3112 22 15.2763 22 13.0625C22 8.12625 17.9987 4.125 13.0625 4.125C8.12625 4.125 4.125 8.12625 4.125 13.0625C4.125 17.9987 8.12625 22 13.0625 22C15.2763 22 17.3112 21.1888 18.8787 19.8413L19.25 20.2263V21.3125L26.125 28.1737L28.1737 26.125L21.3125 19.25ZM13.0625 19.25C9.63875 19.25 6.875 16.4863 6.875 13.0625C6.875 9.63875 9.63875 6.875 13.0625 6.875C16.4863 6.875 19.25 9.63875 19.25 13.0625C19.25 16.4863 16.4863 19.25 13.0625 19.25Z" fill="#F3F3F3"/>
</g>
<defs>
<clipPath id="clip0_385_1367">
<rect width="33" height="33" fill="white"/>
</clipPath>
</defs>
</svg>
