<svg width="53" height="53" viewBox="0 0 53 53" fill="none" xmlns="http://www.w3.org/2000/svg">
<circle cx="26.4901" cy="26.4901" r="26.4901" fill="#D9D9D9"/>
<path d="M40.6405 31.576L43 29.288L40.6405 27L34.75 32.712L20.6095 19L26.5 13.288L24.1405 11L21.781 13.288L19.4215 11L15.8905 14.424L13.531 12.136L11.1715 14.424L13.531 16.712L10 20.136L12.3595 22.424L10 24.712L12.3595 27L18.25 21.288L32.3905 35L26.5 40.712L28.8595 43L31.219 40.712L33.5785 43L37.1095 39.576L39.469 41.864L41.8285 39.576L39.469 37.288L43 33.864L40.6405 31.576Z" fill="white"/>
</svg>
