<svg width="49" height="50" viewBox="0 0 49 50" fill="none" xmlns="http://www.w3.org/2000/svg">
<path d="M44.0439 24.5072C44.0342 19.0924 41.9178 13.9031 38.1602 10.081C36.2996 8.18844 34.0921 6.68851 31.6638 5.66683C29.2354 4.64515 26.6338 4.12173 24.0073 4.12644C18.703 4.13596 13.6198 6.29611 9.87596 10.1317C6.13211 13.9673 4.03429 19.1641 4.04401 24.579C4.04881 27.2601 4.57089 29.9141 5.58043 32.3893C6.58996 34.8646 8.06719 37.1127 9.92776 39.0052C11.7883 40.8977 13.9958 42.3976 16.4242 43.4193C18.8525 44.441 21.4542 44.9644 24.0806 44.9597C26.707 44.955 29.3068 44.4222 31.7315 43.3919C34.1561 42.3615 36.3582 40.8536 38.212 38.9544C41.9558 35.1189 44.0537 29.922 44.0439 24.5072ZM40.0439 24.5144C40.0517 28.8462 38.3735 33.0037 35.3784 36.0722C32.3833 39.1406 28.3167 40.8688 24.0733 40.8764C19.8298 40.884 15.7571 39.1705 12.751 36.1128C9.74493 33.0551 8.05177 28.9036 8.044 24.5718C8.03623 20.2399 9.71448 16.0824 12.7096 13.014C15.7046 9.9455 19.7712 8.21738 24.0147 8.20977C28.2581 8.20216 32.3309 9.91568 35.3369 12.9734C38.343 16.0311 40.0362 20.1825 40.0439 24.5144ZM28.0257 14.3276L18.044 24.5538L28.0623 34.7442L28.0257 14.3276Z" fill="#BBDAF7"/>
</svg>
