<svg width="29" height="26" viewBox="0 0 29 26" fill="none" xmlns="http://www.w3.org/2000/svg">
<path d="M28.7828 8.60856C28.7828 12.5999 26.4741 16.6955 21.9219 20.7912C19.8549 22.6494 17.6041 24.2927 15.2045 25.6955C15.0487 25.7811 14.8737 25.826 14.6958 25.826C14.518 25.826 14.343 25.7811 14.1871 25.6955C13.6263 25.3825 0.608887 17.9868 0.608887 8.60856C0.608887 6.966 1.1257 5.36508 2.08612 4.03256C3.04654 2.70005 4.40188 1.7035 5.96015 1.18408C7.51842 0.664657 9.20061 0.648694 10.7685 1.13845C12.3363 1.62821 13.7103 2.59886 14.6958 3.91291C15.6814 2.59886 17.0554 1.62821 18.6232 1.13845C20.1911 0.648694 21.8733 0.664657 23.4315 1.18408C24.9898 1.7035 26.3451 2.70005 27.3056 4.03256C28.266 5.36508 28.7828 6.966 28.7828 8.60856Z" fill="#FE3360"/>
</svg>
