<svg width="35" height="35" viewBox="0 0 35 35" fill="none" xmlns="http://www.w3.org/2000/svg">
<path d="M29.8744 5.12563C26.5925 1.84374 22.1413 0 17.5 0C12.8587 0 8.40752 1.84374 5.12563 5.12563C1.84374 8.40752 0 12.8587 0 17.5C0 22.1413 1.84374 26.5925 5.12563 29.8744C8.40752 33.1563 12.8587 35 17.5 35C22.1413 35 26.5925 33.1563 29.8744 29.8744C33.1563 26.5925 35 22.1413 35 17.5C35 12.8587 33.1563 8.40752 29.8744 5.12563ZM17.5 32.6544C9.14399 32.6544 2.34557 25.8562 2.34557 17.5C2.34557 9.14385 9.14385 2.34557 17.5 2.34557C25.8562 2.34557 32.6544 9.14385 32.6544 17.5C32.6544 25.8562 25.8562 32.6544 17.5 32.6544Z" fill="#E0E0E0"/>
<path d="M14.8628 21.1691L9.48176 15.7881L7.82324 17.4466L14.8628 24.4862L27.1403 12.2088L25.4817 10.5503L14.8628 21.1691Z" fill="#E0E0E0"/>
</svg>
