<svg width="37" height="35" viewBox="0 0 37 35" fill="none" xmlns="http://www.w3.org/2000/svg">
<path fill-rule="evenodd" clip-rule="evenodd" d="M18.4987 30.6253C26.1616 30.6253 32.3737 24.749 32.3737 17.5003C32.3737 10.2517 26.1616 4.37533 18.4987 4.37533C10.8358 4.37533 4.6237 10.2517 4.6237 17.5003C4.6237 24.749 10.8358 30.6253 18.4987 30.6253ZM18.4987 32.0837C27.0133 32.0837 33.9154 25.5547 33.9154 17.5003C33.9154 9.44595 27.0133 2.91699 18.4987 2.91699C9.98407 2.91699 3.08203 9.44595 3.08203 17.5003C3.08203 25.5547 9.98407 32.0837 18.4987 32.0837Z" fill="#C1C1C1"/>
<path d="M9.25 25.981C9.25 25.2278 9.84508 24.5912 10.6375 24.5081C16.5845 23.8854 20.4425 23.9415 26.3764 24.522C26.6727 24.5514 26.9535 24.6618 27.1846 24.8397C27.4157 25.0177 27.5869 25.2554 27.6775 25.5239C27.7681 25.7924 27.7741 26.0801 27.6947 26.3517C27.6153 26.6234 27.454 26.8673 27.2305 27.0536C20.2274 32.8279 16.2253 32.7484 9.74333 27.0595C9.42729 26.7824 9.25 26.3879 9.25 25.981Z" fill="#C1C1C1"/>
<path fill-rule="evenodd" clip-rule="evenodd" d="M26.2944 25.2458C20.4075 24.6698 16.605 24.6158 10.7189 25.232C10.5252 25.2533 10.3465 25.3415 10.2173 25.4797C10.088 25.6179 10.0171 25.7963 10.0182 25.9808C10.0182 26.1893 10.11 26.387 10.2649 26.524C13.4777 29.343 15.912 30.6168 18.2916 30.6249C20.6796 30.6329 23.245 29.3692 26.7214 26.5036C26.8319 26.4106 26.9114 26.2893 26.9503 26.1544C26.9892 26.0194 26.9858 25.8767 26.9406 25.7436C26.8954 25.6104 26.8102 25.4925 26.6955 25.4043C26.5808 25.3161 26.4414 25.2605 26.2944 25.2458ZM10.5501 23.7824C16.5595 23.1531 20.4738 23.21 26.4539 23.7955C26.8997 23.8395 27.3223 24.0055 27.6698 24.2732C28.0174 24.5409 28.2749 24.8986 28.4109 25.3026C28.5468 25.7066 28.5553 26.1393 28.4353 26.5478C28.3152 26.9563 28.0719 27.3228 27.7351 27.6025C24.2085 30.5104 21.2716 32.0941 18.287 32.0832C15.2938 32.073 12.4864 30.4623 9.21734 27.593C8.98328 27.3868 8.79669 27.1371 8.66923 26.8596C8.54177 26.5821 8.47619 26.2827 8.47657 25.9801C8.47544 25.4364 8.68639 24.9115 9.069 24.5058C9.45161 24.1002 9.97899 23.8431 10.5501 23.7824Z" fill="#C1C1C1"/>
<path d="M24.6654 14.5833C24.6654 16.1304 24.0157 17.6142 22.8592 18.7081C21.7027 19.8021 20.1342 20.4167 18.4987 20.4167C16.8632 20.4167 15.2947 19.8021 14.1382 18.7081C12.9817 17.6142 12.332 16.1304 12.332 14.5833C12.332 13.0362 12.9817 11.5525 14.1382 10.4585C15.2947 9.36458 16.8632 8.75 18.4987 8.75C20.1342 8.75 21.7027 9.36458 22.8592 10.4585C24.0157 11.5525 24.6654 13.0362 24.6654 14.5833Z" fill="#C1C1C1"/>
<path fill-rule="evenodd" clip-rule="evenodd" d="M18.4987 18.9583C19.7253 18.9583 20.9017 18.4974 21.7691 17.6769C22.6364 16.8565 23.1237 15.7437 23.1237 14.5833C23.1237 13.423 22.6364 12.3102 21.7691 11.4897C20.9017 10.6693 19.7253 10.2083 18.4987 10.2083C17.2721 10.2083 16.0957 10.6693 15.2283 11.4897C14.361 12.3102 13.8737 13.423 13.8737 14.5833C13.8737 15.7437 14.361 16.8565 15.2283 17.6769C16.0957 18.4974 17.2721 18.9583 18.4987 18.9583ZM18.4987 20.4167C20.1342 20.4167 21.7027 19.8021 22.8592 18.7081C24.0157 17.6142 24.6654 16.1304 24.6654 14.5833C24.6654 13.0362 24.0157 11.5525 22.8592 10.4585C21.7027 9.36458 20.1342 8.75 18.4987 8.75C16.8632 8.75 15.2947 9.36458 14.1382 10.4585C12.9817 11.5525 12.332 13.0362 12.332 14.5833C12.332 16.1304 12.9817 17.6142 14.1382 18.7081C15.2947 19.8021 16.8632 20.4167 18.4987 20.4167Z" fill="#C1C1C1"/>
</svg>
