<svg width="48" height="49" viewBox="0 0 48 49" fill="none" xmlns="http://www.w3.org/2000/svg">
<path d="M4 24.4997C4 29.9145 6.10714 35.1076 9.85786 38.9364C11.715 40.8323 13.9198 42.3362 16.3463 43.3622C18.7728 44.3882 21.3736 44.9163 24 44.9163C29.3043 44.9163 34.3914 42.7653 38.1421 38.9364C41.8929 35.1076 44 29.9145 44 24.4997C44 21.8185 43.4827 19.1636 42.4776 16.6866C41.4725 14.2095 39.9993 11.9588 38.1421 10.0629C36.285 8.16705 34.0802 6.66317 31.6537 5.63713C29.2272 4.6111 26.6264 4.08301 24 4.08301C21.3736 4.08301 18.7728 4.6111 16.3463 5.63713C13.9198 6.66317 11.715 8.16705 9.85786 10.0629C6.10714 13.8918 4 19.0848 4 24.4997ZM8 24.4997C8 20.1678 9.68571 16.0134 12.6863 12.9503C15.6869 9.88717 19.7565 8.16634 24 8.16634C28.2435 8.16634 32.3131 9.88717 35.3137 12.9503C38.3143 16.0134 40 20.1678 40 24.4997C40 28.8315 38.3143 32.986 35.3137 36.0491C32.3131 39.1122 28.2435 40.833 24 40.833C19.7565 40.833 15.6869 39.1122 12.6863 36.0491C9.68571 32.986 8 28.8315 8 24.4997ZM20 34.708L30 24.4997L20 14.2913V34.708Z" fill="#BBDAF7"/>
</svg>
