<svg width="32" height="32" viewBox="0 0 32 32" fill="none" xmlns="http://www.w3.org/2000/svg">
<g clip-path="url(#clip0_246_2888)">
<g clip-path="url(#clip1_246_2888)">
<path d="M30.7828 10.6086C30.7828 14.5999 28.4741 18.6955 23.9219 22.7912C21.8549 24.6494 19.6041 26.2927 17.2045 27.6955C17.0487 27.7811 16.8737 27.826 16.6958 27.826C16.518 27.826 16.343 27.7811 16.1871 27.6955C15.6263 27.3825 2.60889 19.9868 2.60889 10.6086C2.60889 8.966 3.1257 7.36508 4.08612 6.03256C5.04654 4.70005 6.40188 3.7035 7.96015 3.18408C9.51842 2.66466 11.2006 2.64869 12.7685 3.13845C14.3363 3.62821 15.7103 4.59886 16.6958 5.91291C17.6814 4.59886 19.0554 3.62821 20.6232 3.13845C22.1911 2.64869 23.8733 2.66466 25.4315 3.18408C26.9898 3.7035 28.3451 4.70005 29.3056 6.03256C30.266 7.36508 30.7828 8.966 30.7828 10.6086Z" fill="#E0E0E0"/>
</g>
</g>
<defs>
<clipPath id="clip0_246_2888">
<rect width="32" height="32" fill="white"/>
</clipPath>
<clipPath id="clip1_246_2888">
<rect width="32" height="32" fill="white" transform="translate(0 -1.39136)"/>
</clipPath>
</defs>
</svg>
