<svg width="148" height="141" viewBox="0 0 148 141" fill="none" xmlns="http://www.w3.org/2000/svg">
<rect width="148" height="141" fill="white"/>
<path opacity="0.7" d="M80.0653 116.138C80.2 102.37 76.7095 91.174 72.2695 91.1305C67.8292 91.0873 64.1206 102.213 63.9862 115.981C63.8515 129.749 67.342 140.945 71.782 140.988C76.2223 141.032 79.9309 129.906 80.0653 116.138Z" fill="#FE3360"/>
<path opacity="0.7" d="M54.3127 113.011C61.87 101.501 64.9873 90.1957 61.2757 87.7585C57.5638 85.3213 48.4285 92.6755 40.8715 104.185C33.3142 115.694 30.1969 126.999 33.9085 129.437C37.6204 131.874 46.7554 124.52 54.3127 113.011Z" fill="#FE3360"/>
<path opacity="0.7" d="M34.3093 96.498C46.8895 90.9024 55.6246 83.0772 53.8198 79.02C52.0153 74.9628 40.3543 76.2102 27.7741 81.8061C15.194 87.4017 6.45882 95.2269 8.26347 99.2841C10.0681 103.341 21.7292 102.094 34.3093 96.498Z" fill="#FE3360"/>
<path d="M52.3105 67.6426C52.9861 63.2539 42.502 57.9982 28.894 55.9036C15.2856 53.809 3.70637 55.669 3.03089 60.0577C2.35541 64.4464 12.8395 69.7018 26.4477 71.7964C40.0558 73.891 51.6352 72.031 52.3105 67.6426Z" fill="#E0E0E0"/>
<path d="M57.195 57.1878C60.1356 53.8608 54.156 43.7721 43.8393 34.6542C33.5226 25.5363 22.7754 20.842 19.8349 24.1692C16.8944 27.4965 22.874 37.5852 33.1908 46.7031C43.5075 55.821 54.2547 60.5151 57.195 57.1878Z" fill="#E0E0E0"/>
<path d="M66.9258 51.0775C71.1984 49.8685 71.6229 38.1484 67.8741 24.9002C64.1253 11.6519 57.6225 1.89221 53.3499 3.10124C49.0773 4.31027 48.6528 16.0302 52.4016 29.2786C56.1504 42.5266 62.6532 52.2865 66.9258 51.0775Z" fill="#E0E0E0"/>
<path opacity="0.7" d="M93.3471 29.691C97.3566 16.5192 97.1634 4.79321 92.9154 3.50018C88.6674 2.20712 81.9735 11.8367 77.964 25.0085C73.9548 38.1801 74.148 49.9062 78.396 51.1992C82.644 52.4922 89.3379 42.8628 93.3471 29.691Z" fill="#FE3360"/>
<path opacity="0.7" d="M112.226 47.4886C122.719 38.5741 128.895 28.6042 126.02 25.2203C123.145 21.8363 112.308 26.3197 101.815 35.2339C91.3222 44.1484 85.1467 54.1183 88.0216 57.5023C90.8965 60.8863 101.733 56.4031 112.226 47.4886Z" fill="#FE3360"/>
<path opacity="0.7" d="M118.467 72.6749C132.114 70.8491 142.7 65.8013 142.111 61.4C141.522 56.999 129.982 54.9113 116.335 56.7368C102.688 58.5626 92.1025 63.6104 92.6914 68.0117C93.2803 72.4127 104.82 74.5007 118.467 72.6749Z" fill="#FE3360"/>
<path opacity="0.7" d="M136.073 100.542C137.958 96.5215 129.379 88.5256 116.911 82.6828C104.444 76.84 92.8098 75.3631 90.9255 79.3837C89.0412 83.4046 97.6203 91.4005 110.088 97.2433C122.555 103.086 134.189 104.563 136.073 100.542Z" fill="#FE3360"/>
<path opacity="0.7" d="M109.849 130.209C113.608 127.845 110.714 116.48 103.385 104.824C96.0566 93.1684 87.068 85.6357 83.309 87.9991C79.55 90.3625 82.4438 101.728 89.7725 113.384C97.1012 125.04 106.09 132.573 109.849 130.209Z" fill="#FE3360"/>
</svg>
