<svg width="189" height="86" viewBox="0 0 189 86" fill="none" xmlns="http://www.w3.org/2000/svg">
<g clip-path="url(#clip0_339_1333)">
<g clip-path="url(#clip1_339_1333)">
<path d="M116.401 63.4793C116.915 62.9731 117.324 62.3701 117.605 61.705C117.885 61.04 118.031 60.326 118.034 59.6043C118.046 58.1339 117.477 56.7183 116.449 55.6664L113.982 53.0791L116.48 50.5225C117.254 49.7579 117.783 48.7811 118.001 47.7157C118.22 46.6503 118.117 45.5441 117.707 44.5368C117.297 43.5296 116.597 42.6666 115.697 42.0569C114.796 41.4472 113.735 41.1181 112.648 41.1114C111.56 41.1047 110.495 41.4205 109.587 42.019C108.679 42.6175 107.968 43.4717 107.546 44.4738C107.123 45.4759 107.007 46.5808 107.212 47.6488C107.417 48.7169 107.935 49.7001 108.698 50.4743L111.244 53.0621L108.667 55.6182C108.141 56.1238 107.721 56.7287 107.431 57.3977C107.141 58.0667 106.987 58.7865 106.977 59.5156C106.967 60.2447 107.102 60.9685 107.374 61.6451C107.645 62.3217 108.048 62.9378 108.56 63.4576C109.071 63.9774 109.681 64.3906 110.353 64.6733C111.025 64.956 111.746 65.1026 112.475 65.1046C113.204 65.1066 113.927 64.964 114.6 64.685C115.274 64.406 115.887 63.9962 116.401 63.4793ZM110.116 49.07C109.463 48.4028 109.1 47.5045 109.105 46.5707C109.111 45.6369 109.486 44.7432 110.147 44.0841C110.814 43.4394 111.709 43.0843 112.636 43.096C113.564 43.1077 114.449 43.4853 115.1 44.1466C115.75 44.8079 116.113 45.6994 116.11 46.6271C116.106 47.5547 115.737 48.4435 115.081 49.0998L112.592 51.5704L110.116 49.07ZM110.036 62.0258C109.382 61.3589 109.019 60.4607 109.025 59.527C109.03 58.5932 109.405 57.6997 110.067 57.0409L112.572 54.5704L115.033 57.0717C115.686 57.7389 116.049 58.6369 116.043 59.5705C116.037 60.504 115.663 61.3975 115.002 62.0566C114.674 62.3811 114.285 62.6378 113.858 62.812C113.431 62.9861 112.974 63.0743 112.513 63.0714C112.052 63.0686 111.596 62.9747 111.171 62.7953C110.746 62.6159 110.359 62.3544 110.036 62.0258Z" fill="#222222"/>
</g>
<g clip-path="url(#clip2_339_1333)">
<path d="M128.401 63.4793C128.915 62.9731 129.324 62.3701 129.605 61.705C129.885 61.04 130.031 60.326 130.034 59.6043C130.046 58.1339 129.477 56.7183 128.449 55.6664L125.982 53.0791L128.48 50.5225C129.254 49.7579 129.783 48.7811 130.001 47.7157C130.22 46.6503 130.117 45.5441 129.707 44.5368C129.297 43.5296 128.597 42.6666 127.697 42.0569C126.796 41.4472 125.735 41.1181 124.648 41.1114C123.56 41.1047 122.495 41.4205 121.587 42.019C120.679 42.6175 119.968 43.4717 119.546 44.4738C119.123 45.4759 119.007 46.5808 119.212 47.6488C119.417 48.7169 119.935 49.7001 120.698 50.4743L123.244 53.0621L120.667 55.6182C120.141 56.1238 119.721 56.7287 119.431 57.3977C119.141 58.0667 118.987 58.7865 118.977 59.5156C118.967 60.2447 119.102 60.9685 119.374 61.6451C119.645 62.3217 120.048 62.9378 120.56 63.4576C121.071 63.9774 121.681 64.3906 122.353 64.6733C123.025 64.956 123.746 65.1026 124.475 65.1046C125.204 65.1066 125.927 64.964 126.6 64.685C127.274 64.406 127.887 63.9962 128.401 63.4793ZM122.116 49.07C121.463 48.4028 121.1 47.5045 121.105 46.5707C121.111 45.6369 121.486 44.7432 122.147 44.0841C122.814 43.4394 123.709 43.0843 124.636 43.096C125.564 43.1077 126.449 43.4853 127.1 44.1466C127.75 44.8079 128.113 45.6994 128.11 46.6271C128.106 47.5547 127.737 48.4435 127.081 49.0998L124.592 51.5704L122.116 49.07ZM122.036 62.0258C121.382 61.3589 121.019 60.4607 121.025 59.527C121.03 58.5932 121.405 57.6997 122.067 57.0409L124.572 54.5704L127.033 57.0717C127.686 57.7389 128.049 58.6369 128.043 59.5705C128.037 60.504 127.663 61.3975 127.002 62.0566C126.674 62.3811 126.285 62.6378 125.858 62.812C125.431 62.9861 124.974 63.0743 124.513 63.0714C124.052 63.0686 123.596 62.9747 123.171 62.7953C122.746 62.6159 122.359 62.3544 122.036 62.0258Z" fill="#222222"/>
</g>
<path d="M139.144 44.5626C138.171 44.5626 137.323 44.699 136.601 44.9718C135.878 45.2446 135.347 45.6575 135.008 46.2105C134.964 47.6409 134.942 49.0823 134.942 50.5348C134.942 51.2205 134.946 51.873 134.953 52.4923C134.96 53.1117 134.971 53.7199 134.986 54.3172C135.001 54.9144 135.023 55.5153 135.052 56.1199C135.082 56.7171 135.115 57.3438 135.152 58H133.106C133.143 57.3438 133.172 56.7171 133.194 56.1199C133.224 55.5153 133.246 54.9144 133.261 54.3172C133.283 53.7199 133.298 53.1117 133.305 52.4923C133.312 51.873 133.316 51.2205 133.316 50.5348C133.316 49.8491 133.312 49.1855 133.305 48.5441C133.298 47.8952 133.283 47.2575 133.261 46.6308C133.246 45.9967 133.224 45.3663 133.194 44.7396C133.172 44.1055 133.143 43.4604 133.106 42.8042H135.163C135.141 43.1507 135.119 43.4604 135.097 43.7332C135.082 44.006 135.067 44.3119 135.052 44.6511C135.288 44.3783 135.576 44.1129 135.915 43.8548C136.262 43.5968 136.623 43.3719 136.999 43.1802C137.375 42.9811 137.751 42.8226 138.127 42.7046C138.503 42.5866 138.842 42.5277 139.144 42.5277V44.5626ZM142.628 42.8042C142.584 43.4309 142.547 44.0723 142.518 44.7285C142.496 45.3847 142.477 46.0372 142.462 46.6861C142.448 47.3349 142.437 47.9727 142.429 48.5994C142.422 49.2261 142.418 49.8233 142.418 50.391C142.418 50.9587 142.422 51.556 142.429 52.1827C142.437 52.8094 142.448 53.4508 142.462 54.107C142.477 54.7559 142.496 55.4121 142.518 56.0756C142.54 56.7318 142.569 57.3733 142.606 58H140.538C140.582 57.3733 140.615 56.7318 140.638 56.0756C140.667 55.4121 140.689 54.7559 140.704 54.107C140.719 53.4508 140.73 52.8094 140.737 52.1827C140.744 51.556 140.748 50.9587 140.748 50.391C140.748 49.8233 140.744 49.2261 140.737 48.5994C140.73 47.9727 140.719 47.3349 140.704 46.6861C140.689 46.0372 140.667 45.3847 140.638 44.7285C140.615 44.0723 140.582 43.4309 140.538 42.8042H142.628ZM147.483 57.0489C147.778 57.0489 148.066 57.0046 148.346 56.9162C148.634 56.8203 148.888 56.6692 149.109 56.4627C149.33 56.2563 149.507 55.9945 149.64 55.6775C149.773 55.3531 149.839 54.9586 149.839 54.4941C149.839 54.096 149.758 53.7273 149.596 53.3882C149.441 53.049 149.234 52.7246 148.976 52.4149C148.718 52.1052 148.423 51.8066 148.092 51.5191C147.76 51.2242 147.421 50.9292 147.074 50.6343C146.728 50.3394 146.389 50.0371 146.057 49.7274C145.725 49.4104 145.43 49.0786 145.172 48.7321C144.914 48.3782 144.704 47.9985 144.542 47.5929C144.387 47.1874 144.309 46.745 144.309 46.2658C144.309 45.5654 144.438 44.9755 144.696 44.4963C144.954 44.017 145.283 43.6336 145.681 43.3461C146.079 43.0511 146.518 42.841 146.997 42.7157C147.483 42.5903 147.955 42.5277 148.412 42.5277C148.892 42.5277 149.352 42.5682 149.795 42.6493C150.245 42.723 150.676 42.8042 151.089 42.8926V45.0935C150.853 44.8944 150.628 44.7138 150.414 44.5516C150.208 44.3894 149.998 44.253 149.784 44.1424C149.577 44.0244 149.364 43.9359 149.142 43.8769C148.921 43.8106 148.685 43.7774 148.435 43.7774C148.125 43.7774 147.83 43.8216 147.55 43.9101C147.277 43.9912 147.037 44.1202 146.831 44.2972C146.632 44.4741 146.47 44.699 146.344 44.9718C146.226 45.2446 146.167 45.569 146.167 45.9451C146.167 46.4686 146.304 46.9478 146.577 47.3828C146.849 47.8104 147.192 48.2197 147.605 48.6104C148.018 49.0012 148.464 49.392 148.943 49.7827C149.423 50.1735 149.869 50.5938 150.281 51.0435C150.694 51.4933 151.037 51.9873 151.31 52.5255C151.583 53.0564 151.719 53.6646 151.719 54.3503C151.719 54.8665 151.66 55.3236 151.542 55.7217C151.424 56.1125 151.262 56.4553 151.056 56.7503C150.857 57.0378 150.624 57.2811 150.359 57.4802C150.093 57.6793 149.81 57.8415 149.507 57.9668C149.205 58.0848 148.892 58.1696 148.567 58.2212C148.25 58.2728 147.941 58.2986 147.638 58.2986C147.277 58.2986 146.945 58.2839 146.643 58.2544C146.341 58.2323 146.057 58.1954 145.791 58.1438C145.533 58.0995 145.29 58.0479 145.061 57.9889C144.84 57.9226 144.623 57.8525 144.409 57.7788V55.5116C144.637 55.7254 144.866 55.9282 145.095 56.1199C145.323 56.3042 145.559 56.4664 145.802 56.6065C146.053 56.7466 146.315 56.8572 146.588 56.9383C146.86 57.012 147.159 57.0489 147.483 57.0489ZM155.546 42.8042C155.502 43.4309 155.465 44.0723 155.435 44.7285C155.413 45.3847 155.395 46.0372 155.38 46.6861C155.365 47.3349 155.354 47.9727 155.347 48.5994C155.339 49.2261 155.336 49.8233 155.336 50.391C155.336 50.9587 155.339 51.556 155.347 52.1827C155.354 52.8094 155.365 53.4508 155.38 54.107C155.395 54.7559 155.413 55.4121 155.435 56.0756C155.457 56.7318 155.487 57.3733 155.524 58H153.456C153.5 57.3733 153.533 56.7318 153.555 56.0756C153.585 55.4121 153.607 54.7559 153.621 54.107C153.636 53.4508 153.647 52.8094 153.655 52.1827C153.662 51.556 153.666 50.9587 153.666 50.391C153.666 49.8233 153.662 49.2261 153.655 48.5994C153.647 47.9727 153.636 47.3349 153.621 46.6861C153.607 46.0372 153.585 45.3847 153.555 44.7285C153.533 44.0723 153.5 43.4309 153.456 42.8042H155.546ZM164.305 50.7228C164.29 49.5726 164.264 48.5699 164.228 47.7146C164.198 46.852 164.128 46.1405 164.017 45.5801C163.914 45.0124 163.759 44.5884 163.553 44.3083C163.347 44.0281 163.063 43.888 162.701 43.888C162.51 43.888 162.277 43.9507 162.005 44.076C161.739 44.2013 161.466 44.3709 161.186 44.5847C160.906 44.7912 160.637 45.0271 160.379 45.2926C160.121 45.558 159.907 45.8271 159.737 46.0999C159.693 47.5598 159.671 49.0381 159.671 50.5348C159.671 51.2205 159.675 51.873 159.682 52.4923C159.689 53.1117 159.701 53.7199 159.715 54.3172C159.73 54.9144 159.752 55.5153 159.782 56.1199C159.811 56.7171 159.844 57.3438 159.881 58H157.835C157.872 57.3438 157.902 56.7171 157.924 56.1199C157.953 55.5153 157.975 54.9144 157.99 54.3172C158.012 53.7199 158.027 53.1117 158.034 52.4923C158.042 51.873 158.045 51.2205 158.045 50.5348C158.045 49.8491 158.042 49.1855 158.034 48.5441C158.027 47.8952 158.012 47.2575 157.99 46.6308C157.975 45.9967 157.953 45.3663 157.924 44.7396C157.902 44.1055 157.872 43.4604 157.835 42.8042H159.892L159.793 44.5184C160.014 44.253 160.261 44.0023 160.534 43.7663C160.806 43.523 161.09 43.3092 161.385 43.1249C161.68 42.9406 161.982 42.7968 162.292 42.6936C162.602 42.583 162.908 42.5277 163.21 42.5277C164.087 42.5277 164.766 42.8779 165.245 43.5783C165.732 44.2714 165.975 45.3073 165.975 46.6861C165.975 47.0252 165.971 47.3902 165.964 47.781C165.964 48.1644 165.96 48.5441 165.953 48.9201C165.946 49.2887 165.938 49.6316 165.931 49.9486C165.931 50.2657 165.931 50.5237 165.931 50.7228C165.931 51.4085 165.934 52.05 165.942 52.6472C165.949 53.2444 165.96 53.8305 165.975 54.4056C165.99 54.9807 166.008 55.5595 166.03 56.142C166.06 56.7245 166.093 57.3438 166.13 58H164.095C164.132 57.3438 164.165 56.7245 164.194 56.142C164.224 55.5595 164.25 54.9807 164.272 54.4056C164.294 53.8305 164.305 53.2444 164.305 52.6472C164.312 52.05 164.312 51.4085 164.305 50.7228ZM172.677 50.5237H176.703C176.673 51.1283 176.651 51.7219 176.636 52.3043C176.629 52.8868 176.625 53.4435 176.625 53.9743C176.625 54.5052 176.625 54.9918 176.625 55.4342C176.633 55.8692 176.644 56.2452 176.659 56.5623C176.673 56.9383 176.688 57.2738 176.703 57.5687C176.327 57.7604 175.87 57.9226 175.331 58.0553C174.793 58.188 174.141 58.2544 173.374 58.2544C172.607 58.2544 171.896 58.0958 171.239 57.7788C170.583 57.4618 170.012 56.9825 169.525 56.3411C169.039 55.6922 168.655 54.8775 168.375 53.8969C168.102 52.9089 167.966 51.7477 167.966 50.4131C167.966 49.0786 168.109 47.921 168.397 46.9404C168.692 45.9524 169.09 45.1377 169.591 44.4963C170.093 43.8474 170.675 43.3645 171.339 43.0475C172.01 42.7304 172.721 42.5719 173.473 42.5719C173.783 42.5719 174.063 42.5866 174.314 42.6161C174.565 42.6383 174.797 42.6714 175.011 42.7157C175.232 42.7599 175.438 42.8152 175.63 42.8816C175.822 42.9479 176.01 43.018 176.194 43.0917V45.3257C175.715 44.7875 175.261 44.4115 174.834 44.1977C174.413 43.9765 173.956 43.8659 173.462 43.8659C172.895 43.8659 172.39 44.0244 171.947 44.3414C171.505 44.6511 171.129 45.0935 170.819 45.6686C170.517 46.2437 170.285 46.9331 170.122 47.7367C169.968 48.533 169.89 49.4178 169.89 50.391C169.89 51.3348 169.964 52.2085 170.111 53.0121C170.259 53.8084 170.48 54.5015 170.775 55.0913C171.07 55.6738 171.438 56.1309 171.881 56.4627C172.331 56.7945 172.854 56.9604 173.451 56.9604C173.709 56.9604 173.934 56.942 174.126 56.9051C174.325 56.8609 174.52 56.7871 174.712 56.6839C174.719 56.5217 174.727 56.3337 174.734 56.1199C174.742 55.9355 174.749 55.7144 174.756 55.4563C174.764 55.1909 174.767 54.8849 174.767 54.5384C174.767 54.1623 174.76 53.7458 174.745 53.2886C174.738 52.8315 174.719 52.3375 174.69 51.8066H172.677V50.5237Z" fill="black"/>
<path d="M41.4541 42.0125H28.1359V46.3613H32.077V59H37.513V46.3613H41.4541V42.0125ZM48.3762 59V42.0125H42.9402V59H48.3762ZM61.1587 48.6489H56.5381V46.3613H61.5664L62.2459 42.0125H51.1021V59H56.5381V52.7033H61.1587V48.6489ZM62.528 42.0125L67.4204 54.3794V59H72.8564V54.3794L77.7488 42.0125H71.7465L70.229 47.9921H70.0251L68.5302 42.0125H62.528Z" fill="black"/>
<path d="M86.422 47.95C86.422 48.2673 86.4127 48.566 86.394 48.846C86.3847 49.1167 86.3707 49.3313 86.352 49.49H86.422C86.6367 49.1727 86.9307 48.9067 87.304 48.692C87.6773 48.4773 88.158 48.37 88.746 48.37C89.6793 48.37 90.426 48.6967 90.986 49.35C91.5553 49.994 91.84 50.96 91.84 52.248C91.84 53.1067 91.7093 53.8253 91.448 54.404C91.196 54.9827 90.8367 55.4167 90.37 55.706C89.9033 55.9953 89.362 56.14 88.746 56.14C88.158 56.14 87.6773 56.0327 87.304 55.818C86.9307 55.6033 86.6367 55.3467 86.422 55.048H86.324L86.072 56H85.19V45.36H86.422V47.95ZM88.536 49.392C88.004 49.392 87.584 49.4947 87.276 49.7C86.968 49.896 86.7487 50.204 86.618 50.624C86.4873 51.0347 86.422 51.562 86.422 52.206V52.262C86.422 53.186 86.5713 53.8953 86.87 54.39C87.178 54.8753 87.7427 55.118 88.564 55.118C89.236 55.118 89.7353 54.8707 90.062 54.376C90.398 53.8813 90.566 53.1673 90.566 52.234C90.566 51.2913 90.398 50.582 90.062 50.106C89.7353 49.63 89.2267 49.392 88.536 49.392ZM92.3538 48.496H93.6698L95.2938 52.766C95.3872 53.018 95.4712 53.2607 95.5458 53.494C95.6298 53.7273 95.7045 53.956 95.7698 54.18C95.8352 54.3947 95.8865 54.6047 95.9238 54.81H95.9798C96.0358 54.5767 96.1245 54.2733 96.2458 53.9C96.3672 53.5173 96.4932 53.1347 96.6238 52.752L98.1498 48.496H99.4798L96.2458 57.036C96.0685 57.5027 95.8585 57.9087 95.6158 58.254C95.3825 58.6087 95.0932 58.8793 94.7478 59.066C94.4118 59.262 94.0012 59.36 93.5158 59.36C93.2918 59.36 93.0958 59.346 92.9278 59.318C92.7598 59.2993 92.6152 59.276 92.4938 59.248V58.268C92.5965 58.2867 92.7178 58.3053 92.8578 58.324C93.0072 58.3427 93.1612 58.352 93.3198 58.352C93.6092 58.352 93.8565 58.296 94.0618 58.184C94.2765 58.0813 94.4585 57.9273 94.6078 57.722C94.7572 57.526 94.8832 57.2927 94.9858 57.022L95.3778 56.028L92.3538 48.496Z" fill="black"/>
</g>
<defs>
<clipPath id="clip0_339_1333">
<rect width="189" height="86" fill="white"/>
</clipPath>
<clipPath id="clip1_339_1333">
<rect width="24" height="24" fill="white" transform="translate(125.148 41.1484) rotate(90.3552)"/>
</clipPath>
<clipPath id="clip2_339_1333">
<rect width="24" height="24" fill="white" transform="translate(137.148 41.1484) rotate(90.3552)"/>
</clipPath>
</defs>
</svg>
