<svg width="262" height="240" viewBox="0 0 262 240" fill="none" xmlns="http://www.w3.org/2000/svg">
<rect width="262" height="240" fill="white"/>
<path d="M82.5859 126.898V136H81.6641V126.898H82.5859ZM85.9141 126.898V127.711H78.3438V126.898H85.9141ZM94.0547 131.102V131.906H88.1719V131.102H94.0547ZM88.4062 126.898V136H87.4766V126.898H88.4062ZM94.7812 126.898V136H93.8516V126.898H94.7812ZM98.3203 126.898V136H97.3906V126.898H98.3203ZM106.414 133.742C106.414 133.508 106.37 133.297 106.281 133.109C106.198 132.922 106.06 132.753 105.867 132.602C105.674 132.451 105.414 132.312 105.086 132.188C104.758 132.057 104.352 131.935 103.867 131.82C103.367 131.695 102.914 131.555 102.508 131.398C102.107 131.242 101.763 131.062 101.477 130.859C101.195 130.651 100.979 130.409 100.828 130.133C100.677 129.852 100.602 129.526 100.602 129.156C100.602 128.797 100.682 128.471 100.844 128.18C101.005 127.888 101.234 127.638 101.531 127.43C101.828 127.216 102.177 127.055 102.578 126.945C102.984 126.831 103.43 126.773 103.914 126.773C104.602 126.773 105.198 126.893 105.703 127.133C106.208 127.372 106.599 127.701 106.875 128.117C107.151 128.529 107.289 128.992 107.289 129.508H106.359C106.359 129.138 106.263 128.807 106.07 128.516C105.878 128.224 105.599 127.995 105.234 127.828C104.875 127.661 104.432 127.578 103.906 127.578C103.391 127.578 102.956 127.648 102.602 127.789C102.247 127.93 101.979 128.12 101.797 128.359C101.62 128.594 101.531 128.854 101.531 129.141C101.531 129.349 101.573 129.542 101.656 129.719C101.745 129.891 101.888 130.049 102.086 130.195C102.289 130.341 102.557 130.479 102.891 130.609C103.229 130.74 103.646 130.865 104.141 130.984C104.635 131.104 105.081 131.245 105.477 131.406C105.872 131.568 106.208 131.758 106.484 131.977C106.766 132.19 106.979 132.443 107.125 132.734C107.276 133.021 107.352 133.352 107.352 133.727C107.352 134.102 107.268 134.438 107.102 134.734C106.935 135.031 106.698 135.284 106.391 135.492C106.089 135.695 105.729 135.852 105.312 135.961C104.901 136.07 104.453 136.125 103.969 136.125C103.531 136.125 103.094 136.073 102.656 135.969C102.224 135.865 101.828 135.701 101.469 135.477C101.109 135.253 100.823 134.966 100.609 134.617C100.396 134.263 100.289 133.841 100.289 133.352H101.219C101.219 133.721 101.297 134.034 101.453 134.289C101.615 134.539 101.828 134.742 102.094 134.898C102.365 135.049 102.661 135.161 102.984 135.234C103.307 135.302 103.635 135.336 103.969 135.336C104.469 135.336 104.901 135.268 105.266 135.133C105.63 134.997 105.911 134.81 106.109 134.57C106.312 134.331 106.414 134.055 106.414 133.742ZM114.117 126.898V136H113.188V126.898H114.117ZM122.211 133.742C122.211 133.508 122.167 133.297 122.078 133.109C121.995 132.922 121.857 132.753 121.664 132.602C121.471 132.451 121.211 132.312 120.883 132.188C120.555 132.057 120.148 131.935 119.664 131.82C119.164 131.695 118.711 131.555 118.305 131.398C117.904 131.242 117.56 131.062 117.273 130.859C116.992 130.651 116.776 130.409 116.625 130.133C116.474 129.852 116.398 129.526 116.398 129.156C116.398 128.797 116.479 128.471 116.641 128.18C116.802 127.888 117.031 127.638 117.328 127.43C117.625 127.216 117.974 127.055 118.375 126.945C118.781 126.831 119.227 126.773 119.711 126.773C120.398 126.773 120.995 126.893 121.5 127.133C122.005 127.372 122.396 127.701 122.672 128.117C122.948 128.529 123.086 128.992 123.086 129.508H122.156C122.156 129.138 122.06 128.807 121.867 128.516C121.674 128.224 121.396 127.995 121.031 127.828C120.672 127.661 120.229 127.578 119.703 127.578C119.188 127.578 118.753 127.648 118.398 127.789C118.044 127.93 117.776 128.12 117.594 128.359C117.417 128.594 117.328 128.854 117.328 129.141C117.328 129.349 117.37 129.542 117.453 129.719C117.542 129.891 117.685 130.049 117.883 130.195C118.086 130.341 118.354 130.479 118.688 130.609C119.026 130.74 119.443 130.865 119.938 130.984C120.432 131.104 120.878 131.245 121.273 131.406C121.669 131.568 122.005 131.758 122.281 131.977C122.562 132.19 122.776 132.443 122.922 132.734C123.073 133.021 123.148 133.352 123.148 133.727C123.148 134.102 123.065 134.438 122.898 134.734C122.732 135.031 122.495 135.284 122.188 135.492C121.885 135.695 121.526 135.852 121.109 135.961C120.698 136.07 120.25 136.125 119.766 136.125C119.328 136.125 118.891 136.073 118.453 135.969C118.021 135.865 117.625 135.701 117.266 135.477C116.906 135.253 116.62 134.966 116.406 134.617C116.193 134.263 116.086 133.841 116.086 133.352H117.016C117.016 133.721 117.094 134.034 117.25 134.289C117.411 134.539 117.625 134.742 117.891 134.898C118.161 135.049 118.458 135.161 118.781 135.234C119.104 135.302 119.432 135.336 119.766 135.336C120.266 135.336 120.698 135.268 121.062 135.133C121.427 134.997 121.708 134.81 121.906 134.57C122.109 134.331 122.211 134.055 122.211 133.742ZM129.734 126.898V136H128.805V126.898H129.734ZM134.242 131.031V131.836H129.43V131.031H134.242ZM134.891 126.898V127.711H129.43V126.898H134.891ZM143.828 131.008V131.898C143.828 132.544 143.737 133.128 143.555 133.648C143.378 134.169 143.12 134.615 142.781 134.984C142.448 135.354 142.044 135.638 141.57 135.836C141.102 136.029 140.576 136.125 139.992 136.125C139.419 136.125 138.896 136.029 138.422 135.836C137.953 135.638 137.549 135.354 137.211 134.984C136.872 134.615 136.609 134.169 136.422 133.648C136.24 133.128 136.148 132.544 136.148 131.898V131.008C136.148 130.362 136.24 129.779 136.422 129.258C136.604 128.737 136.862 128.292 137.195 127.922C137.534 127.547 137.938 127.263 138.406 127.07C138.88 126.872 139.406 126.773 139.984 126.773C140.568 126.773 141.094 126.872 141.562 127.07C142.036 127.263 142.44 127.547 142.773 127.922C143.112 128.292 143.372 128.737 143.555 129.258C143.737 129.779 143.828 130.362 143.828 131.008ZM142.906 131.898V130.992C142.906 130.466 142.841 129.995 142.711 129.578C142.581 129.161 142.391 128.805 142.141 128.508C141.891 128.211 141.583 127.984 141.219 127.828C140.859 127.672 140.448 127.594 139.984 127.594C139.531 127.594 139.125 127.672 138.766 127.828C138.406 127.984 138.102 128.211 137.852 128.508C137.602 128.805 137.409 129.161 137.273 129.578C137.143 129.995 137.078 130.466 137.078 130.992V131.898C137.078 132.424 137.143 132.898 137.273 133.32C137.409 133.742 137.602 134.102 137.852 134.398C138.107 134.695 138.414 134.922 138.773 135.078C139.138 135.234 139.544 135.312 139.992 135.312C140.461 135.312 140.875 135.234 141.234 135.078C141.594 134.922 141.898 134.695 142.148 134.398C142.398 134.102 142.586 133.742 142.711 133.32C142.841 132.898 142.906 132.424 142.906 131.898ZM145.844 126.898H149.07C149.581 126.898 150.042 126.961 150.453 127.086C150.87 127.206 151.224 127.383 151.516 127.617C151.807 127.846 152.031 128.133 152.188 128.477C152.344 128.815 152.422 129.203 152.422 129.641C152.422 130.083 152.326 130.479 152.133 130.828C151.94 131.177 151.672 131.469 151.328 131.703C150.99 131.938 150.596 132.102 150.148 132.195L149.828 132.344H146.445L146.43 131.539H149.242C149.742 131.539 150.156 131.453 150.484 131.281C150.818 131.109 151.068 130.88 151.234 130.594C151.401 130.307 151.484 130 151.484 129.672C151.484 129.276 151.391 128.932 151.203 128.641C151.021 128.344 150.75 128.115 150.391 127.953C150.031 127.792 149.591 127.711 149.07 127.711H146.781V136H145.844V126.898ZM151.836 136L149.336 131.992L150.328 131.984L152.828 135.922V136H151.836ZM161.328 132.109L164.375 126.898H165.438L161.906 132.742H161.273L161.328 132.109ZM158.578 126.898L161.633 132.133L161.664 132.742H161.055L157.516 126.898H158.578ZM161.93 132.039V136H161V132.039H161.93ZM174.125 131.008V131.898C174.125 132.544 174.034 133.128 173.852 133.648C173.674 134.169 173.417 134.615 173.078 134.984C172.745 135.354 172.341 135.638 171.867 135.836C171.398 136.029 170.872 136.125 170.289 136.125C169.716 136.125 169.193 136.029 168.719 135.836C168.25 135.638 167.846 135.354 167.508 134.984C167.169 134.615 166.906 134.169 166.719 133.648C166.536 133.128 166.445 132.544 166.445 131.898V131.008C166.445 130.362 166.536 129.779 166.719 129.258C166.901 128.737 167.159 128.292 167.492 127.922C167.831 127.547 168.234 127.263 168.703 127.07C169.177 126.872 169.703 126.773 170.281 126.773C170.865 126.773 171.391 126.872 171.859 127.07C172.333 127.263 172.737 127.547 173.07 127.922C173.409 128.292 173.669 128.737 173.852 129.258C174.034 129.779 174.125 130.362 174.125 131.008ZM173.203 131.898V130.992C173.203 130.466 173.138 129.995 173.008 129.578C172.878 129.161 172.688 128.805 172.438 128.508C172.188 128.211 171.88 127.984 171.516 127.828C171.156 127.672 170.745 127.594 170.281 127.594C169.828 127.594 169.422 127.672 169.062 127.828C168.703 127.984 168.398 128.211 168.148 128.508C167.898 128.805 167.706 129.161 167.57 129.578C167.44 129.995 167.375 130.466 167.375 130.992V131.898C167.375 132.424 167.44 132.898 167.57 133.32C167.706 133.742 167.898 134.102 168.148 134.398C168.404 134.695 168.711 134.922 169.07 135.078C169.435 135.234 169.841 135.312 170.289 135.312C170.758 135.312 171.172 135.234 171.531 135.078C171.891 134.922 172.195 134.695 172.445 134.398C172.695 134.102 172.883 133.742 173.008 133.32C173.138 132.898 173.203 132.424 173.203 131.898ZM182.023 126.898H182.961V133.031C182.961 133.714 182.805 134.286 182.492 134.75C182.185 135.208 181.768 135.552 181.242 135.781C180.721 136.01 180.138 136.125 179.492 136.125C178.831 136.125 178.237 136.01 177.711 135.781C177.19 135.552 176.779 135.208 176.477 134.75C176.174 134.286 176.023 133.714 176.023 133.031V126.898H176.945V133.031C176.945 133.542 177.055 133.969 177.273 134.312C177.492 134.651 177.792 134.906 178.172 135.078C178.557 135.245 178.997 135.328 179.492 135.328C179.987 135.328 180.424 135.245 180.805 135.078C181.185 134.906 181.482 134.651 181.695 134.312C181.914 133.969 182.023 133.542 182.023 133.031V126.898Z" fill="#C1C1C1"/>
<path d="M96.1859 91.0967V125H86.2914V91.0967H96.1859ZM106.954 91.0967V98.6631H75.8439V91.0967H106.954ZM120.689 91.0967V125H110.853V91.0967H120.689ZM135.91 91.0967V125H126.073V91.0967H135.91ZM149.849 104.629V112.195H132.999V104.629H149.849ZM151.013 91.0967V98.6631H132.999V91.0967H151.013ZM166.146 108.674L174.033 91.0967H184.567L172.228 114.174H167.106L166.146 108.674ZM161.985 91.0967L169.929 108.878L168.853 114.174H163.76L151.45 91.0967H161.985ZM172.839 108.965V125H162.974V108.965H172.839Z" fill="#E0E0E0"/>
</svg>
