<svg width="92" height="91" viewBox="0 0 92 91" fill="none" xmlns="http://www.w3.org/2000/svg">
<g filter="url(#filter0_d_276_1226)">
<ellipse cx="42" cy="41.5" rx="39" ry="38.5" fill="white"/>
</g>
<g clip-path="url(#clip0_276_1226)">
<path d="M49.6102 50.8903C50.6661 50.8903 51.5127 51.726 51.5127 52.7683V64.0366C51.5127 65.0789 50.6661 65.9146 49.6102 65.9146H34.3907C33.3349 65.9146 32.4883 65.0789 32.4883 64.0366V52.7683C32.4883 51.726 33.3349 50.8903 34.3907 50.8903H49.6102ZM38.6712 61.2195V55.5854H37.4822V58.872L35.1041 55.5854H33.9151V61.2195H35.1041V57.9329L37.5297 61.2195H38.6712ZM43.4273 56.7686V55.5854H39.6224V61.2195H43.4273V60.0457H41.0493V59.0034H43.4273V57.8203H41.0493V56.7686H43.4273ZM50.0858 60.2805V55.5854H48.8968V59.811H47.8315V56.5244H46.6424V59.811H45.5675V55.5854H44.3785V60.2805C44.3785 60.5295 44.4787 60.7684 44.6571 60.9445C44.8355 61.1206 45.0775 61.2195 45.3297 61.2195H49.1346C49.3869 61.2195 49.6288 61.1206 49.8072 60.9445C49.9856 60.7684 50.0858 60.5295 50.0858 60.2805Z" fill="#A1A3A2"/>
</g>
<g clip-path="url(#clip1_276_1226)">
<path d="M27.7324 46.1951V39.4459H33.0593V40.7957H35.7227V39.4459H46.3763V40.7957H49.0397V39.4459H54.3666V46.1951H27.7324ZM27.7324 32.6966C27.7324 31.9542 27.9934 31.3185 28.5155 30.7893C29.0366 30.2611 29.6634 29.997 30.3958 29.997H34.391V27.2973C34.391 26.5548 34.652 25.9195 35.174 25.3913C35.6951 24.8621 36.3219 24.5976 37.0544 24.5976H45.0446C45.7771 24.5976 46.4043 24.8621 46.9263 25.3913C47.4475 25.9195 47.708 26.5548 47.708 27.2973V29.997H51.7032C52.4356 29.997 53.0628 30.2611 53.5849 30.7893C54.106 31.3185 54.3666 31.9542 54.3666 32.6966V38.096H49.0397V35.3963H46.3763V38.096H35.7227V35.3963H33.0593V38.096H27.7324V32.6966ZM37.0544 29.997H45.0446V27.2973H37.0544V29.997Z" fill="#A1A3A2"/>
</g>
<defs>
<filter id="filter0_d_276_1226" x="0" y="0" width="92" height="91" filterUnits="userSpaceOnUse" color-interpolation-filters="sRGB">
<feFlood flood-opacity="0" result="BackgroundImageFix"/>
<feColorMatrix in="SourceAlpha" type="matrix" values="0 0 0 0 0 0 0 0 0 0 0 0 0 0 0 0 0 0 127 0" result="hardAlpha"/>
<feOffset dx="4" dy="4"/>
<feGaussianBlur stdDeviation="3.5"/>
<feComposite in2="hardAlpha" operator="out"/>
<feColorMatrix type="matrix" values="0 0 0 0 0 0 0 0 0 0 0 0 0 0 0 0 0 0 0.15 0"/>
<feBlend mode="normal" in2="BackgroundImageFix" result="effect1_dropShadow_276_1226"/>
<feBlend mode="normal" in="SourceGraphic" in2="effect1_dropShadow_276_1226" result="shape"/>
</filter>
<clipPath id="clip0_276_1226">
<rect width="22.8293" height="22.5366" fill="white" transform="translate(30.5859 43.3781)"/>
</clipPath>
<clipPath id="clip1_276_1226">
<rect width="28.5366" height="33.8049" fill="white" transform="translate(25.8301 12.3903)"/>
</clipPath>
</defs>
</svg>
