<svg width="91" height="92" viewBox="0 0 91 92" fill="none" xmlns="http://www.w3.org/2000/svg">
<g clip-path="url(#clip0_1258_2537)">
<g filter="url(#filter0_d_1258_2537)">
<path d="M41.5 81C62.763 81 80 63.5391 80 42C80 20.4609 62.763 3 41.5 3C20.237 3 3 20.4609 3 42C3 63.5391 20.237 81 41.5 81Z" fill="#C9E1F9"/>
</g>
<path d="M44.7649 33.3146C44.7925 33.2646 44.8312 33.2218 44.8778 33.1895C44.9244 33.1571 44.9778 33.1362 45.0338 33.1282C45.3451 33.0709 45.5856 33.4149 45.43 33.7016C45.2623 33.9865 45.0369 34.2323 44.7686 34.4225C44.5003 34.6128 44.1952 34.7432 43.8735 34.8053C43.1943 34.9199 42.5293 34.7336 42.034 34.3179C41.9757 34.2741 41.9313 34.2139 41.9064 34.1449C41.8814 34.0758 41.8769 34.0009 41.8934 33.9293C41.91 33.8577 41.9468 33.7926 41.9995 33.7419C42.0521 33.6913 42.1182 33.6573 42.1897 33.6442C42.3029 33.6299 42.4161 33.6586 42.501 33.7302C42.6708 33.8692 42.8682 33.9695 43.0798 34.0242C43.2913 34.0789 43.512 34.0869 43.7269 34.0474C43.9417 34.008 44.1457 33.9221 44.3248 33.7956C44.5039 33.6692 44.654 33.5051 44.7649 33.3146ZM41.1709 38.8904C41.6968 38.7926 42.2026 38.605 42.6665 38.3357C42.8306 38.2382 42.9891 38.1321 43.1377 38.016C43.3217 37.8727 43.5763 38.0733 43.4915 38.2884C43.3111 38.7341 43.0215 39.126 42.6502 39.4269C42.2788 39.7279 41.8379 39.928 41.369 40.0084C40.3785 40.1804 39.4304 39.8221 38.7937 39.134C38.638 38.962 38.8078 38.6897 39.0342 38.7614C39.6851 38.962 40.4209 39.0194 41.1709 38.8904ZM44.5102 30.7201C44.5951 30.7631 44.68 30.7775 44.7649 30.7631C44.8781 30.7488 44.9913 30.6771 45.0479 30.5338C45.147 30.3475 45.0762 30.1038 44.8781 30.0035L44.8767 30.002C44.0106 29.6016 43.0299 29.5353 42.1189 29.8157C41.9067 29.8874 41.7935 30.1024 41.8501 30.3174C41.9208 30.5324 42.1331 30.647 42.3453 30.5897C43.053 30.3797 43.8104 30.4227 44.4904 30.7115L44.5102 30.7201ZM35.0439 32.4975C34.9846 32.5116 34.9229 32.5112 34.8638 32.4962C34.8048 32.4813 34.7501 32.4522 34.7043 32.4115C34.629 32.3402 34.5839 32.2421 34.5786 32.1378C34.5734 32.0335 34.6083 31.9312 34.676 31.8525L34.6817 31.8468C35.3619 31.1761 36.2607 30.7805 37.2089 30.7345C37.4211 30.7201 37.6192 30.8922 37.6192 31.1072C37.6334 31.3222 37.4636 31.5085 37.2513 31.5228C36.5187 31.5648 35.8227 31.8609 35.2802 32.3614L35.2562 32.3829C35.1996 32.4402 35.1288 32.4832 35.0439 32.4975ZM39.5012 36.769L39.8125 34.2319C39.8832 33.6729 40.619 33.5439 40.8879 34.0312L42.034 36.3103C42.0891 36.4186 42.1182 36.5385 42.119 36.6603C42.1198 36.7821 42.0921 36.9023 42.0383 37.0113C41.9846 37.1202 41.9062 37.2148 41.8095 37.2872C41.7129 37.3597 41.6007 37.408 41.4822 37.4283L40.3926 37.629C40.2744 37.6515 40.1527 37.6452 40.0374 37.6107C39.922 37.5761 39.8165 37.5143 39.7294 37.4303C39.6424 37.3463 39.5762 37.2425 39.5366 37.1275C39.4969 37.0125 39.4847 36.8896 39.5012 36.769ZM35.6382 34.8053C35.7514 34.7909 35.8646 34.8196 35.9495 34.8913C36.1194 35.0302 36.3168 35.1305 36.5284 35.1852C36.7399 35.24 36.9606 35.2479 37.1755 35.2084C37.3903 35.169 37.5942 35.0831 37.7734 34.9567C37.9525 34.8302 38.1026 34.6661 38.2135 34.4756C38.2701 34.3752 38.3692 34.3036 38.4824 34.2892C38.7937 34.2319 39.0342 34.5759 38.8786 34.8626C38.5531 35.4216 37.9871 35.8373 37.3221 35.9663C36.6429 36.081 35.9778 35.8946 35.4826 35.4789C35.2137 35.2783 35.3269 34.8626 35.6382 34.8053Z" fill="#A1A3A2"/>
<path d="M47.7783 25.5314C47.2406 24.8721 46.5048 24.4851 45.7266 24.3561C44.8917 24.2271 44.0993 23.8257 43.5475 23.1807C42.7975 22.3207 41.6372 21.862 40.4487 22.077C39.9959 22.163 39.5713 22.335 39.2034 22.5787C38.7081 22.9084 38.0998 23.023 37.5055 22.8797C37.081 22.7794 36.6282 22.765 36.1612 22.8367C34.9726 23.0517 34.0528 23.8544 33.6283 24.9008C33.3028 25.7178 32.7086 26.3915 31.9445 26.8215C31.237 27.2228 30.6569 27.8965 30.388 28.7422C29.9918 29.9749 30.3455 31.2936 31.1945 32.1823C31.4831 32.4747 31.687 32.8531 31.7705 33.2602C31.3132 33.6026 30.9591 34.0673 30.7481 34.6023C30.5372 35.1372 30.4778 35.7212 30.5764 36.2885C30.6751 36.8558 30.9279 37.384 31.3066 37.8138C31.6852 38.2435 32.1746 38.5578 32.7198 38.7213L32.8077 39.2201C32.9548 40.0658 33.4345 40.7897 34.1038 41.2555C34.2 41.4505 34.3047 41.6397 34.4179 41.8217C32.9223 42.0611 31.8469 42.9828 31.0814 44.4806L30.006 46.5934C29.2452 46.7338 28.5368 47.0827 27.958 47.6023C27.3793 48.1219 26.9522 48.7922 26.7232 49.5404L22.7188 62.1541H36.798C36.7611 62.0856 36.7257 62.0163 36.6917 61.9463C36.6422 61.8459 36.5928 61.7456 36.5433 61.6668C34.8877 58.757 35.8641 55.0159 38.7507 53.3389L42.189 51.3321C43.349 50.6533 44.6999 50.3869 46.0266 50.5753C45.8127 51.6532 45.8579 52.7674 46.1584 53.8239C46.4588 54.8804 47.0056 55.8482 47.7528 56.6457C47.1967 57.0757 46.8091 57.7064 46.6874 58.4273L44.5803 56.2916C44.0002 55.6896 43.0381 55.6896 42.4438 56.2916C41.8495 56.8793 41.8495 57.854 42.4438 58.456L42.8116 58.8287C42.8965 58.9147 42.84 59.0867 42.6985 59.0867H39.062C38.6717 59.1038 38.3031 59.2728 38.0329 59.5586C37.7628 59.8444 37.6119 60.2247 37.6119 60.6204C37.6119 61.0161 37.7628 61.3965 38.0329 61.6822C38.3031 61.968 38.6717 62.137 39.062 62.1541H46.6321C46.7046 62.1598 46.7776 62.1598 46.8501 62.1541H58.0088C60.103 62.1541 61.8008 60.4484 61.8008 58.327C61.8008 57.2333 61.3977 56.1468 60.6958 55.4029L59.2681 53.6313C59.5396 52.5611 59.5527 51.4404 59.3063 50.364C59.0598 49.2876 58.561 48.2872 57.8521 47.4474C57.1433 46.6075 56.2451 45.953 55.2337 45.5392C54.2224 45.1253 53.1274 44.9643 52.0416 45.0697C50.5795 43.8072 48.8943 42.8374 47.0751 42.2116C48.0047 41.1705 48.5695 39.8481 48.6824 38.449C49.0602 37.8183 49.2131 37.0572 49.0801 36.2961L48.9952 35.8087C49.4543 35.467 49.8098 35.0022 50.0219 34.4667C50.2341 33.9312 50.2943 33.3463 50.1957 32.7779C50.0972 32.2096 49.8437 31.6805 49.4641 31.2503C49.0845 30.8201 48.5936 30.506 48.0471 30.3433C48.0004 29.9319 48.0612 29.5119 48.231 29.1435C48.7829 27.9825 48.6415 26.5778 47.7783 25.5314ZM49.2004 56.0637C48.4247 55.3934 47.853 54.5135 47.5522 53.5266C47.2514 52.5398 47.2338 51.4866 47.5014 50.4899C47.769 49.4933 48.3109 48.5943 49.0638 47.8977C49.8167 47.2012 50.7495 46.7359 51.7536 46.556C52.7576 46.3762 53.7914 46.4892 54.7345 46.882C55.6775 47.2747 56.4908 47.931 57.0797 48.7742C57.6685 49.6175 58.0084 50.6129 58.06 51.6445C58.1115 52.676 57.8724 53.7011 57.3706 54.6002L49.2004 56.0637ZM37.4135 49.2036C37.5532 49.133 37.6763 49.0328 37.7743 48.9097C38.1422 48.4224 38.0715 47.7344 37.6045 47.3474L36.2037 46.2007H36.1908L36.1754 46.1863L38.3969 46.5017C38.9912 46.5877 39.543 46.1577 39.6279 45.5557C39.6986 45.1256 39.4865 44.71 39.1469 44.4806C39.7412 44.5666 40.2929 44.1366 40.3778 43.5346C40.4161 43.244 40.3395 42.9498 40.1646 42.7162C39.9897 42.4826 39.7306 42.3285 39.444 42.2876L37.0951 41.9579C37.0244 41.9464 36.4159 41.8647 36.2136 41.8375C35.7071 41.2987 35.3273 40.6509 35.1027 39.9426L34.466 37.3009L33.8293 37.3955C33.4235 37.4586 33.0091 37.3655 32.6678 37.1344C32.3265 36.9033 32.083 36.551 31.9855 36.147C31.888 35.743 31.9434 35.3167 32.1409 34.9522C32.3384 34.5876 32.6637 34.3112 33.0525 34.1775L33.6609 33.9654L33.1656 31.9099L33.1614 31.8956C32.9257 31.0942 32.8672 30.25 32.9902 29.423C33.3161 28.7132 33.807 28.094 34.4208 27.6185C35.0347 27.1429 35.7532 26.8252 36.5149 26.6925L38.4592 26.3485C38.625 26.3445 38.7887 26.3848 38.9343 26.4653C39.0798 26.5458 39.2019 26.6637 39.2883 26.8071C40.0665 27.9538 41.425 28.5415 42.7834 28.2978L44.8111 27.9352C45.2822 27.8824 45.7571 27.9931 46.1581 28.2491C46.2741 28.6476 46.3449 29.0676 46.3633 29.5047L46.3647 29.5291L46.6011 31.639L47.2193 31.6519C47.617 31.6599 47.9983 31.8138 48.2924 32.0852C48.5864 32.3565 48.7732 32.7267 48.818 33.1271C48.8628 33.5274 48.7625 33.9306 48.5359 34.2617C48.3093 34.5928 47.9716 34.8293 47.5858 34.9272L46.9859 35.0791L47.2845 37.7538C47.3267 38.9456 46.9422 40.1126 46.2018 41.0398C45.4615 41.967 44.4153 42.5919 43.256 42.7993H43.2518L40.5915 43.2866L40.5336 43.2981L41.2551 43.4916C41.4804 43.5549 41.6855 43.6768 41.8498 43.8453C42.0142 44.0138 42.1321 44.2229 42.1918 44.452C42.2543 44.6868 42.2533 44.9343 42.189 45.1686L41.2268 48.8094C41.1362 49.1598 40.9125 49.4597 40.6045 49.6437C40.2964 49.8276 39.9291 49.8807 39.5826 49.7913L37.4135 49.2036ZM41.9061 48.8524L42.7862 45.5413L43.0339 45.6073C43.2603 45.6646 43.4441 45.8653 43.4866 46.0946L43.5998 46.6393C43.6281 46.7396 43.713 46.84 43.8404 46.8686L44.1375 46.9546C44.5054 47.055 44.7176 47.4276 44.6185 47.8003C44.5195 48.173 44.1516 48.388 43.7837 48.2877L43.4866 48.2017C43.3734 48.173 43.2461 48.2017 43.1612 48.302L42.7933 48.7177C42.6377 48.904 42.383 48.9757 42.1566 48.9184L41.9061 48.8524Z" fill="#A1A3A2"/>
</g>
<defs>
<filter id="filter0_d_1258_2537" x="0" y="0" width="91" height="92" filterUnits="userSpaceOnUse" color-interpolation-filters="sRGB">
<feFlood flood-opacity="0" result="BackgroundImageFix"/>
<feColorMatrix in="SourceAlpha" type="matrix" values="0 0 0 0 0 0 0 0 0 0 0 0 0 0 0 0 0 0 127 0" result="hardAlpha"/>
<feOffset dx="4" dy="4"/>
<feGaussianBlur stdDeviation="3.5"/>
<feComposite in2="hardAlpha" operator="out"/>
<feColorMatrix type="matrix" values="0 0 0 0 0 0 0 0 0 0 0 0 0 0 0 0 0 0 0.15 0"/>
<feBlend mode="normal" in2="BackgroundImageFix" result="effect1_dropShadow_1258_2537"/>
<feBlend mode="normal" in="SourceGraphic" in2="effect1_dropShadow_1258_2537" result="shape"/>
</filter>
<clipPath id="clip0_1258_2537">
<rect width="91" height="92" fill="white"/>
</clipPath>
</defs>
</svg>
