<svg width="92" height="92" viewBox="0 0 92 92" fill="none" xmlns="http://www.w3.org/2000/svg">
<g filter="url(#filter0_d_284_2262)">
<circle cx="42" cy="42" r="39" fill="#C9E1F9"/>
</g>
<path d="M29.1217 48.584C30.149 48.584 31.1533 48.2793 32.0075 47.7086C32.8617 47.1378 33.5275 46.3265 33.9207 45.3774C34.3138 44.4282 34.4167 43.3838 34.2163 42.3762C34.0158 41.3686 33.5211 40.443 32.7947 39.7165C32.0682 38.9901 31.1427 38.4954 30.135 38.2949C29.1274 38.0945 28.083 38.1974 27.1338 38.5905C26.1847 38.9837 25.3734 39.6495 24.8027 40.5037C24.2319 41.3579 23.9272 42.3622 23.9272 43.3896C23.9272 44.7672 24.4745 46.0884 25.4487 47.0626C26.4228 48.0367 27.744 48.584 29.1217 48.584Z" fill="#A1A3A2"/>
<path d="M38.4672 61.0244C38.8996 61.0244 39.3144 60.8866 39.6202 60.6413C39.926 60.396 40.0978 60.0633 40.0978 59.7165C40.0978 57.2883 38.8952 54.9595 36.7546 53.2426C34.6139 51.5256 31.7105 50.561 28.6832 50.561C25.6558 50.561 22.7525 51.5256 20.6118 53.2426C18.4712 54.9595 17.2686 57.2883 17.2686 59.7165C17.2686 60.0633 17.4404 60.396 17.7462 60.6413C18.052 60.8866 18.4667 61.0244 18.8992 61.0244H38.4672Z" fill="#A1A3A2"/>
<path d="M37.2441 76.2439C26.5905 74.3415 19.9637 65.6219 17.7441 61.5V59.5976H18.6954L39.6222 59.1219C39.7807 63.7195 40.0027 73.2951 39.6222 74.8171C39.2417 76.339 38.1954 76.4024 37.2441 76.2439Z" fill="#A1A3A2" stroke="#A1A3A2"/>
<path d="M48.3932 76.2439C59.0469 74.3415 65.6737 65.6219 67.8932 61.5C67.8932 61.5 68.6345 60.0732 67.8932 59.5976C67.1519 59.1219 66.942 59.5976 66.942 59.5976H46.2808C46.1223 64.1951 45.6347 73.2951 46.0152 74.8171C46.3956 76.339 47.442 76.4024 48.3932 76.2439Z" fill="#A1A3A2" stroke="#A1A3A2"/>
<path d="M67.0038 61.0244C67.4363 61.0244 67.851 60.8866 68.1568 60.6413C68.4626 60.396 68.6344 60.0633 68.6344 59.7165C68.6344 57.2883 67.4318 54.9595 65.2912 53.2426C63.1505 51.5256 60.2472 50.561 57.2198 50.561C54.1925 50.561 51.2891 51.5256 49.1484 53.2426C47.0078 54.9595 45.8052 57.2883 45.8052 59.7165C45.8052 60.0633 45.977 60.396 46.2828 60.6413C46.5886 60.8866 47.0034 61.0244 47.4358 61.0244H67.0038Z" fill="#A1A3A2"/>
<path d="M57.6578 48.584C58.6852 48.584 59.6894 48.2793 60.5437 47.7086C61.3979 47.1378 62.0637 46.3265 62.4568 45.3774C62.85 44.4282 62.9528 43.3838 62.7524 42.3762C62.552 41.3686 62.0573 40.443 61.3308 39.7165C60.6044 38.9901 59.6788 38.4954 58.6712 38.2949C57.6636 38.0945 56.6191 38.1974 55.67 38.5905C54.7208 38.9837 53.9096 39.6495 53.3388 40.5037C52.768 41.3579 52.4634 42.3622 52.4634 43.3896C52.4634 44.7672 53.0106 46.0884 53.9848 47.0626C54.9589 48.0367 56.2802 48.584 57.6578 48.584Z" fill="#A1A3A2"/>
<path d="M42.7353 37.2788C42.5943 37.2796 42.4546 37.2531 42.324 37.2008C42.1935 37.1486 42.0748 37.0715 41.9747 36.9742L33.6508 28.8017C32.6067 27.7672 32.021 26.3705 32.021 24.915C32.021 23.4595 32.6067 22.0628 33.6508 21.0283C34.7031 19.9994 36.1285 19.4216 37.6146 19.4216C39.1006 19.4216 40.526 19.9994 41.5783 21.0283L42.7353 22.1628L43.8923 21.0283C44.9446 19.9994 46.37 19.4216 47.8561 19.4216C49.3421 19.4216 50.7675 19.9994 51.8198 21.0283C52.864 22.0628 53.4496 23.4595 53.4496 24.915C53.4496 26.3705 52.864 27.7672 51.8198 28.8017L43.4959 36.9742C43.3958 37.0715 43.2771 37.1486 43.1466 37.2008C43.0161 37.2531 42.8763 37.2796 42.7353 37.2788Z" fill="#A1A3A2"/>
<defs>
<filter id="filter0_d_284_2262" x="0" y="0" width="92" height="92" filterUnits="userSpaceOnUse" color-interpolation-filters="sRGB">
<feFlood flood-opacity="0" result="BackgroundImageFix"/>
<feColorMatrix in="SourceAlpha" type="matrix" values="0 0 0 0 0 0 0 0 0 0 0 0 0 0 0 0 0 0 127 0" result="hardAlpha"/>
<feOffset dx="4" dy="4"/>
<feGaussianBlur stdDeviation="3.5"/>
<feComposite in2="hardAlpha" operator="out"/>
<feColorMatrix type="matrix" values="0 0 0 0 0 0 0 0 0 0 0 0 0 0 0 0 0 0 0.15 0"/>
<feBlend mode="normal" in2="BackgroundImageFix" result="effect1_dropShadow_284_2262"/>
<feBlend mode="normal" in="SourceGraphic" in2="effect1_dropShadow_284_2262" result="shape"/>
</filter>
</defs>
</svg>
