<svg width="91" height="91" viewBox="0 0 91 91" fill="none" xmlns="http://www.w3.org/2000/svg">
<g filter="url(#filter0_d_284_2236)">
<circle cx="41.5" cy="41.5" r="38.5" fill="#C9E1F9"/>
</g>
<path d="M46.6144 19.0325C44.7414 19.0665 42.7119 19.9229 41.0969 21.538C38.9072 23.7275 38.1164 26.6779 38.8752 28.969C32.4315 26.007 33.0419 25.8254 26.8299 21.8401C25.8463 21.2089 24.9283 20.9201 24.1107 20.8818C24.0264 20.8781 23.9419 20.8771 23.8575 20.8788C22.6124 20.8984 21.6151 21.5013 20.9735 22.3374C19.8785 23.7647 19.7672 25.8711 22.0447 27.6537C25.0746 30.0253 27.7879 31.6586 29.7596 33.4581C31.7312 35.2579 32.9478 37.4251 32.5275 40.3003C32.2191 42.4105 31.1937 44.011 29.9457 45.3267C28.6976 46.6421 27.233 47.7148 25.8961 48.9063C23.2222 51.2891 20.981 53.9632 21.4954 60.0664C21.8204 63.9222 24.8343 65.4489 27.3245 65.1812C28.5694 65.0474 29.6172 64.4616 30.193 63.4722C30.7688 62.4827 30.9446 60.9911 30.0925 58.812C29.3508 56.916 30.3984 54.8243 31.8868 53.2366C33.3751 51.6487 35.4804 50.4222 37.6332 50.7952C38.2364 50.8997 38.7517 51.2562 39.1043 51.6894C39.4568 52.1224 39.6867 52.6256 39.8794 53.1754C40.2649 54.2752 40.4917 55.5881 40.7706 56.9443C41.3284 59.6572 42.1049 62.4102 43.9994 63.6309C47.7067 66.0203 51.3487 65.3291 52.9745 63.6736C53.7874 62.8458 54.138 61.835 53.8656 60.6341C53.5931 59.4331 52.6276 57.9788 50.5209 56.5447C48.2099 54.9715 47.3319 51.832 47.2158 48.7231C47.0996 45.6141 47.7321 42.4654 49.1811 40.517C49.853 39.6137 50.8917 39.2328 52.0743 38.8139C53.2569 38.3951 54.6336 37.9863 56.0538 37.3797C58.8942 36.1662 61.8806 34.2354 63.7839 29.8815C65.4516 26.0662 64.1102 23.6035 62.2886 22.7067C61.3777 22.2584 60.3227 22.2027 59.3161 22.6427C58.3096 23.0828 57.321 24.0314 56.6367 25.7464C55.3535 28.9626 52.8097 30.793 49.7611 31.2549C48.9705 31.3745 48.1473 31.4089 47.2982 31.3677C48.031 30.9702 48.7348 30.4529 49.3734 29.8144C52.2445 26.9431 52.7174 22.7609 50.4324 20.4759C49.4327 19.4762 48.0715 19.0059 46.6146 19.0323L46.6144 19.0325ZM38.0512 31.6637C39.566 31.6525 41.1404 32.7286 41.5485 34.6666C44.31 32.1893 48.1232 34.4374 47.0876 37.9777C46.0366 41.5698 39.6489 42.2483 38.4876 44.0295C38.6139 41.7096 34.0087 37.8114 35.1033 34.0624C35.5796 32.4308 36.7962 31.673 38.0513 31.6636L38.0512 31.6637Z" fill="#A1A3A2"/>
<defs>
<filter id="filter0_d_284_2236" x="0" y="0" width="91" height="91" filterUnits="userSpaceOnUse" color-interpolation-filters="sRGB">
<feFlood flood-opacity="0" result="BackgroundImageFix"/>
<feColorMatrix in="SourceAlpha" type="matrix" values="0 0 0 0 0 0 0 0 0 0 0 0 0 0 0 0 0 0 127 0" result="hardAlpha"/>
<feOffset dx="4" dy="4"/>
<feGaussianBlur stdDeviation="3.5"/>
<feComposite in2="hardAlpha" operator="out"/>
<feColorMatrix type="matrix" values="0 0 0 0 0 0 0 0 0 0 0 0 0 0 0 0 0 0 0.15 0"/>
<feBlend mode="normal" in2="BackgroundImageFix" result="effect1_dropShadow_284_2236"/>
<feBlend mode="normal" in="SourceGraphic" in2="effect1_dropShadow_284_2236" result="shape"/>
</filter>
</defs>
</svg>
