<svg width="92" height="92" viewBox="0 0 92 92" fill="none" xmlns="http://www.w3.org/2000/svg">
<g clip-path="url(#clip0_1258_2542)">
<g filter="url(#filter0_d_1258_2542)">
<path d="M42 81C63.5391 81 81 63.5391 81 42C81 20.4609 63.5391 3 42 3C20.4609 3 3 20.4609 3 42C3 63.5391 20.4609 81 42 81Z" fill="#C9E1F9"/>
</g>
<path d="M53.1186 29.8796L52.3447 31.0433C52.2298 31.2142 49.72 35.0224 48.8613 39.2592L47.2669 36.5627C49.2277 34.8624 49.8759 31.5465 48.6568 28.4295C47.2484 24.8245 43.4936 23.0571 43.333 22.9833L42.1563 22.4404L42.6718 23.6526C42.6753 23.6608 42.7723 23.9069 42.8496 24.3301C42.1553 23.8486 41.4342 23.4069 40.6898 23.0072L40.1846 22.746L39.9959 23.293C39.9788 23.345 39.6335 24.3602 39.3286 25.7919C39.2008 25.5989 39.0925 25.3937 39.0052 25.1793L38.5574 23.9322L38.074 25.1663C38.0084 25.3324 36.4899 29.2903 37.8983 32.8961C37.9229 32.9597 37.9537 33.0191 37.9797 33.0814C37.873 32.9877 37.7691 32.8927 37.6563 32.8024C34.6604 30.4204 30.5466 30.8382 30.3736 30.8573L29.0883 30.9975L30.1316 31.7776C30.1384 31.783 30.3456 31.9444 30.6198 32.2698C29.1977 32.1796 28.1564 32.2425 28.1031 32.2466L27.5377 32.2828L27.645 32.853C27.6553 32.9063 27.859 33.9606 28.3027 35.3539C28.0979 35.2529 27.9035 35.132 27.7223 34.993L26.7193 34.1479L26.9108 35.4627C26.9326 35.6165 27.418 38.758 29.4712 41.1482C25.7218 40.6772 22.4073 43.1651 22.2685 43.2724L21.2327 44.0614L22.518 44.1893C22.5263 44.1906 22.784 44.2221 23.1833 44.3588C22.4336 44.7482 21.7064 45.1794 21.005 45.6503L20.5381 45.9771L20.9127 46.4106C20.9483 46.4523 21.6491 47.2522 22.7245 48.2203C22.4978 48.2403 22.2697 48.2373 22.0436 48.2114L20.761 48.007L21.5807 49.038C21.6908 49.1781 24.3346 52.4578 28.0976 52.9466C30.2403 53.2249 32.331 52.6964 33.8379 51.4979C34.7301 50.7869 35.3441 49.8673 35.6421 48.8561L38.3694 49.3395C35.7632 50.5195 34.1524 51.8329 33.2315 52.7757C32.6708 53.3493 32.4261 53.7288 32.4165 53.7445L31.9974 54.3988L36.3217 53.6406L35.4979 54.4877C35.4979 54.4877 45.2076 52.8065 50.9773 56.9435L49.7624 58.1946L52.2435 60.7489L53.2314 59.7322C53.8536 61.3758 54.2111 63.4618 54.2111 63.4618L56.1036 61.5242L57.4211 62.8731L60.9803 59.2297L59.6629 57.8815L61.5594 55.9398C61.5594 55.9398 59.5193 55.5604 57.916 54.9122L58.9053 53.8935L56.4236 51.3393L55.2066 52.5911C51.1851 46.6533 52.8205 36.6605 52.8205 36.6605L52.2216 37.2778L53.1186 29.8796ZM40.7568 24.2057C41.506 24.641 42.2305 25.1176 42.9269 25.6333C42.8927 26.3443 42.7293 27.2105 42.3033 28.1745C41.3489 27.7855 40.6522 27.2796 40.1511 26.7942C40.3439 25.7098 40.5914 24.7698 40.7568 24.2057ZM43.8826 24.458C45.0244 25.1854 46.8861 26.6417 47.7325 28.8083C48.9795 32.0018 48.0367 35.4114 45.6322 36.4089C45.536 36.4489 45.4371 36.482 45.3362 36.508C44.0235 36.8594 42.3744 36.2092 41.5861 35.0278C40.7466 33.7705 40.9694 32.1112 42.2151 30.3541C43.9469 27.9038 44.0495 25.7385 43.8826 24.458ZM44.6997 37.7236L45.9153 40.7216C45.2876 39.8424 44.7612 38.81 44.3202 37.7694C44.4481 37.7605 44.5732 37.7407 44.6997 37.7236ZM38.824 32.5153C37.979 30.3528 38.3427 27.966 38.6757 26.6212C39.2247 27.3876 40.2071 28.3919 41.8398 29.0818C41.7092 29.3026 41.567 29.5262 41.405 29.7545C39.68 32.1919 39.9617 34.0125 40.4731 35.0907C39.7552 34.3524 39.1942 33.4763 38.824 32.5153ZM41.3215 37.0249C41.4583 38.8264 41.9649 40.9431 43.2318 43.1336L40.27 41.0388C40.9401 39.6181 40.9065 37.9007 40.2611 36.2742C40.5975 36.5579 40.9496 36.8143 41.3215 37.0249ZM44.5951 44.9256L43.4991 46.0475L39.373 42.3693C39.4694 42.2619 39.5665 42.1567 39.6533 42.0418L39.7286 41.931C39.7429 41.9126 39.7607 41.8948 39.775 41.877C39.8345 41.7977 39.8824 41.7129 39.9364 41.6309L44.5951 44.9256ZM31.5749 31.8459C32.9197 31.8835 35.2442 32.1768 37.0444 33.6085C39.6978 35.7184 40.5674 39.1484 38.9854 41.2535C38.9214 41.3374 38.8525 41.4173 38.7789 41.4928C37.819 42.4759 36.0756 42.7658 34.8115 42.1553C33.4666 41.5051 32.839 39.9572 33.0462 37.7975C33.332 34.7865 32.3502 32.864 31.5749 31.8459ZM40.5592 44.3294C39.8907 43.9242 39.231 43.5045 38.5806 43.0707C38.6928 42.9928 38.7919 42.8998 38.8958 42.8123C38.889 42.8178 38.8842 42.8253 38.878 42.8301L40.5592 44.3294ZM28.7533 33.2448C29.3235 33.2352 30.2649 33.2482 31.3301 33.3535C31.6535 33.9845 31.9393 34.8173 32.048 35.8688C31.0313 36.026 30.1808 35.9508 29.5081 35.7915C29.2111 34.9567 28.9591 34.1066 28.7533 33.2448ZM28.151 36.4055C29.0015 36.7835 30.3463 37.1411 32.0952 36.8916C32.0917 37.1507 32.0801 37.418 32.0528 37.6976C31.767 40.6936 32.9088 42.119 33.883 42.7836C33.6424 42.72 33.4044 42.6421 33.1672 42.5518C32.6671 42.2001 32.1277 41.908 31.5598 41.6815C31.4354 41.5933 31.3089 41.5119 31.1879 41.4149C29.3905 39.9853 28.5263 37.738 28.151 36.4055ZM34.6822 43.9725C35.1403 44.0231 35.5957 44.0238 36.0442 43.9807C36.5514 44.8057 37.1054 45.601 37.7035 46.3627L35.7673 46.282C35.5875 45.4392 35.2162 44.649 34.6822 43.9725ZM22.062 46.1713C22.7958 45.7134 23.5543 45.2961 24.3339 44.9215C24.926 45.2975 25.5851 45.8636 26.2031 46.7134C25.4066 47.378 24.6368 47.7568 23.9791 47.9694C23.3075 47.4057 22.6675 46.8054 22.062 46.1713ZM28.2234 51.9327C25.9659 51.6394 24.1028 50.1558 23.1156 49.2055C24.0365 49.0865 25.3711 48.6948 26.7515 47.5681C26.8786 47.7916 27.0003 48.0282 27.1172 48.2825C28.3609 51.0104 30.053 51.6415 31.2228 51.7071C30.293 51.9826 29.2695 52.0688 28.2234 51.9327ZM34.7944 48.0425V48.0439C34.4566 49.3894 33.1016 50.5483 31.7096 50.6809C30.2287 50.8217 28.9187 49.8174 28.0211 47.8497C26.7685 45.1102 24.9684 43.9691 23.7931 43.4967C24.9691 42.8274 27.1159 41.8695 29.3775 42.1621C29.9785 42.2401 30.5493 42.3871 31.0819 42.5881C31.6097 42.9511 32.1635 43.2499 32.7324 43.4762C34.1907 44.5448 35.046 46.1111 34.8532 47.7308C34.8395 47.8354 34.821 47.9393 34.7944 48.0425ZM36.8448 52.8578L33.5289 53.4396C34.4491 52.451 36.3477 50.8402 39.678 49.5214L40.3746 49.2465L36.8448 52.8578ZM40.577 49.0387L35.7953 48.1916C35.8028 48.1478 35.8137 48.1041 35.8199 48.0603L35.8302 47.927C35.8329 47.9024 35.8425 47.8784 35.8438 47.8545C35.8794 47.5564 35.878 47.2611 35.8589 46.9671L39.2021 47.1086L38.6941 46.5118C37.9503 45.6394 37.3049 44.7157 36.7627 43.8556C37.17 43.7675 37.5655 43.6321 37.9414 43.4522C39.5711 44.5546 41.259 45.5681 42.998 46.4885L43.0451 46.5131L40.577 49.0387ZM60.0382 59.2311L57.4204 61.9112L56.5753 61.0415L59.1945 58.3615L60.0382 59.2311ZM56.4236 52.3046L57.9673 53.8935L52.2428 59.7835L50.6997 58.1946L56.4236 52.3046ZM44.9779 44.5332L44.753 44.2303C42.9528 41.797 42.235 39.3891 42.0203 37.3633C42.5198 37.5746 43.0483 37.7095 43.588 37.7633C44.3407 39.6031 45.3683 41.4654 46.7336 42.6387L46.7856 42.6838L44.9779 44.5332ZM47.2423 42.2168L45.3649 37.5882C45.518 37.5438 45.6698 37.4946 45.8189 37.4337L45.9385 37.3784C45.9604 37.3688 45.985 37.3647 46.0076 37.3551C46.2593 37.2474 46.5012 37.1176 46.7302 36.9675L48.8565 40.565L47.2423 42.2168ZM49.4028 40.0044C49.8615 37.15 51.2173 34.3537 52.0985 32.7641L51.4777 37.8802L49.4028 40.0044Z" fill="#A1A3A2"/>
</g>
<defs>
<filter id="filter0_d_1258_2542" x="0" y="0" width="92" height="92" filterUnits="userSpaceOnUse" color-interpolation-filters="sRGB">
<feFlood flood-opacity="0" result="BackgroundImageFix"/>
<feColorMatrix in="SourceAlpha" type="matrix" values="0 0 0 0 0 0 0 0 0 0 0 0 0 0 0 0 0 0 127 0" result="hardAlpha"/>
<feOffset dx="4" dy="4"/>
<feGaussianBlur stdDeviation="3.5"/>
<feComposite in2="hardAlpha" operator="out"/>
<feColorMatrix type="matrix" values="0 0 0 0 0 0 0 0 0 0 0 0 0 0 0 0 0 0 0.15 0"/>
<feBlend mode="normal" in2="BackgroundImageFix" result="effect1_dropShadow_1258_2542"/>
<feBlend mode="normal" in="SourceGraphic" in2="effect1_dropShadow_1258_2542" result="shape"/>
</filter>
<clipPath id="clip0_1258_2542">
<rect width="92" height="92" fill="white"/>
</clipPath>
</defs>
</svg>
