<svg width="91" height="92" viewBox="0 0 91 92" fill="none" xmlns="http://www.w3.org/2000/svg">
<g filter="url(#filter0_d_284_2255)">
<ellipse cx="41.5" cy="42" rx="38.5" ry="39" fill="#C9E1F9"/>
</g>
<path d="M33.1212 34.6471C33.1212 34.6471 32.5475 34.3417 32.1747 32.6115C31.8019 30.8812 35.0725 27.6841 35.0725 27.6841C35.0725 27.6841 36.0773 27.1905 40.2372 27.2637C44.397 27.3369 45.3886 28.019 46.2497 29.0653C50.003 33.6293 57.0532 42.7134 58.7265 49.8761C59.1078 50.9434 59.6336 50.3612 59.6336 52.0839C59.6336 53.3186 58.9669 53.6591 58.7885 53.8607C54.4559 58.7728 43.8393 60.4004 39.1038 60.4004C34.3683 60.4004 34.3983 59.296 33.078 59.296C31.7578 59.296 30.2948 63.7144 27.0307 64.3536C24.5986 59.4121 24.6991 49.4128 27.0307 44.1307C32.5184 44.1307 33.3935 46.2662 35.6603 46.2662C37.5976 46.2662 37.2961 45.0458 40.3527 45.0458C43.4092 45.0458 47.6263 48.5767 47.6263 48.5767C45.2375 45.569 47.9005 38.2389 42.7415 33.3601C41.7725 32.445 41.3208 35.4527 38.3075 35.4527C37.8633 35.7191 36.2651 35.9312 36.2651 35.9312" fill="#A1A3A2"/>
<path d="M33.1212 34.6471C33.1212 34.6471 32.5475 34.3417 32.1747 32.6115C31.8019 30.8812 35.0725 27.6841 35.0725 27.6841C35.0725 27.6841 36.0773 27.1905 40.2372 27.2637C44.397 27.3369 45.3886 28.019 46.2497 29.0653C50.003 33.6293 57.0532 42.7134 58.7265 49.8761C59.1078 50.9434 59.6336 50.3612 59.6336 52.0839C59.6336 53.3186 58.9669 53.6591 58.7885 53.8607C54.4559 58.7728 43.8393 60.4004 39.1038 60.4004C34.3683 60.4004 34.3983 59.296 33.078 59.296C31.7578 59.296 30.2948 63.7144 27.0307 64.3536C24.5986 59.4121 24.6991 49.4128 27.0307 44.1307C32.5184 44.1307 33.3935 46.2662 35.6603 46.2662C37.5976 46.2662 37.2961 45.0458 40.3527 45.0458C43.4092 45.0458 47.6263 48.5767 47.6263 48.5767C45.2375 45.569 47.9005 38.2389 42.7415 33.3601C41.7725 32.445 41.3208 35.4527 38.3075 35.4527C37.8633 35.7191 36.2651 35.9312 36.2651 35.9312" stroke="#A1A3A2" stroke-linecap="round" stroke-linejoin="round"/>
<path d="M48.903 49.8228C49.7425 50.7931 51.4675 52.1086 53.0714 52.0867M31.6147 51.0699C29.7638 53.3224 29.5197 55.7641 27.6548 56.7819M34.4693 52.0877C37.2535 54.9508 42.2895 54.7606 45.2305 51.7091M45.3554 31.2893C45.2268 31.8343 44.5384 32.6733 44.0314 32.815M37.4901 29.1091C37.1136 29.5666 35.2834 31.9218 35.3266 32.3033C35.3698 32.6847 35.1012 34.5919 35.6712 34.7993C36.2412 35.0066 38.1784 34.6566 38.1568 33.829C38.1352 33.0015 37.9737 32.5753 38.0169 32.172C38.0601 31.7687 39.3513 29.7749 39.3513 29.7749" stroke="#A1A3A2" stroke-linecap="round" stroke-linejoin="round"/>
<path d="M35.6283 28.7599C35.155 29.3383 33.5943 31.5727 33.6159 32.5097C33.6375 33.4466 33.7343 34.1343 33.9493 34.3417C34.1643 34.5491 35.3278 34.0611 35.3278 34.0611" stroke="#A1A3A2" stroke-linecap="round" stroke-linejoin="round"/>
<path d="M35.7435 34.8202C35.7435 34.8202 36.2092 35.3338 36.2628 35.8894C36.3163 36.4449 35.5529 36.9795 34.8542 37.1754C34.1556 37.3714 33.1743 36.0415 33.1743 35.5403C33.1743 35.039 33.949 34.3417 33.949 34.3417M40.1644 32.1739C40.1888 32.8787 40.3588 33.6426 39.7588 33.8642C39.1587 34.0858 38.1202 34.0316 38.1202 34.0316" fill="#A1A3A2"/>
<path d="M35.7435 34.8202C35.7435 34.8202 36.2092 35.3338 36.2628 35.8894C36.3163 36.4449 35.5529 36.9795 34.8542 37.1754C34.1556 37.3714 33.1743 36.0415 33.1743 35.5403C33.1743 35.039 33.949 34.3417 33.949 34.3417M40.1644 32.1739C40.1888 32.8787 40.3588 33.6426 39.7588 33.8642C39.1587 34.0858 38.1202 34.0316 38.1202 34.0316" stroke="#A1A3A2" stroke-linecap="round" stroke-linejoin="round"/>
<defs>
<filter id="filter0_d_284_2255" x="0" y="0" width="91" height="92" filterUnits="userSpaceOnUse" color-interpolation-filters="sRGB">
<feFlood flood-opacity="0" result="BackgroundImageFix"/>
<feColorMatrix in="SourceAlpha" type="matrix" values="0 0 0 0 0 0 0 0 0 0 0 0 0 0 0 0 0 0 127 0" result="hardAlpha"/>
<feOffset dx="4" dy="4"/>
<feGaussianBlur stdDeviation="3.5"/>
<feComposite in2="hardAlpha" operator="out"/>
<feColorMatrix type="matrix" values="0 0 0 0 0 0 0 0 0 0 0 0 0 0 0 0 0 0 0.15 0"/>
<feBlend mode="normal" in2="BackgroundImageFix" result="effect1_dropShadow_284_2255"/>
<feBlend mode="normal" in="SourceGraphic" in2="effect1_dropShadow_284_2255" result="shape"/>
</filter>
</defs>
</svg>
