<svg width="92" height="92" viewBox="0 0 92 92" fill="none" xmlns="http://www.w3.org/2000/svg">
<g filter="url(#filter0_d_276_1255)">
<circle cx="42" cy="42" r="39" fill="white"/>
</g>
<path d="M29.1217 48.5837C30.149 48.5837 31.1533 48.279 32.0075 47.7082C32.8617 47.1375 33.5275 46.3262 33.9207 45.3771C34.3138 44.4279 34.4167 43.3835 34.2163 42.3759C34.0158 41.3682 33.5211 40.4427 32.7947 39.7162C32.0682 38.9898 31.1427 38.4951 30.135 38.2946C29.1274 38.0942 28.083 38.1971 27.1338 38.5902C26.1847 38.9834 25.3734 39.6492 24.8027 40.5034C24.2319 41.3576 23.9272 42.3619 23.9272 43.3892C23.9272 44.7669 24.4745 46.0881 25.4487 47.0623C26.4228 48.0364 27.744 48.5837 29.1217 48.5837Z" fill="#A1A3A2"/>
<path d="M38.4672 61.024C38.8996 61.024 39.3144 60.8862 39.6202 60.6409C39.926 60.3956 40.0978 60.0629 40.0978 59.716C40.0978 57.2878 38.8952 54.9591 36.7546 53.2421C34.6139 51.5251 31.7105 50.5605 28.6832 50.5605C25.6558 50.5605 22.7525 51.5251 20.6118 53.2421C18.4712 54.9591 17.2686 57.2878 17.2686 59.716C17.2686 60.0629 17.4404 60.3956 17.7462 60.6409C18.052 60.8862 18.4667 61.024 18.8992 61.024H38.4672Z" fill="#A1A3A2"/>
<path d="M37.2441 76.2435C26.5905 74.3411 19.9637 65.6216 17.7441 61.4996V59.5972H18.6954L39.6222 59.1216C39.7807 63.7191 40.0027 73.2948 39.6222 74.8167C39.2417 76.3387 38.1954 76.4021 37.2441 76.2435Z" fill="#A1A3A2" stroke="#A1A3A2"/>
<path d="M48.3932 76.2435C59.0469 74.341 65.6737 65.6215 67.8932 61.4996C67.8932 61.4996 68.6345 60.0727 67.8932 59.5971C67.1519 59.1215 66.942 59.5971 66.942 59.5971H46.2808C46.1223 64.1947 45.6347 73.2947 46.0152 74.8166C46.3956 76.3386 47.442 76.402 48.3932 76.2435Z" fill="#A1A3A2" stroke="#A1A3A2"/>
<path d="M67.0038 61.024C67.4363 61.024 67.851 60.8862 68.1568 60.6409C68.4626 60.3956 68.6344 60.0629 68.6344 59.716C68.6344 57.2878 67.4318 54.9591 65.2912 53.2421C63.1505 51.5251 60.2472 50.5605 57.2198 50.5605C54.1925 50.5605 51.2891 51.5251 49.1484 53.2421C47.0078 54.9591 45.8052 57.2878 45.8052 59.716C45.8052 60.0629 45.977 60.3956 46.2828 60.6409C46.5886 60.8862 47.0034 61.024 47.4358 61.024H67.0038Z" fill="#A1A3A2"/>
<path d="M57.6578 48.5837C58.6852 48.5837 59.6894 48.279 60.5437 47.7082C61.3979 47.1375 62.0637 46.3262 62.4568 45.3771C62.85 44.4279 62.9528 43.3835 62.7524 42.3759C62.552 41.3682 62.0573 40.4427 61.3308 39.7162C60.6044 38.9898 59.6788 38.4951 58.6712 38.2946C57.6636 38.0942 56.6191 38.1971 55.67 38.5902C54.7208 38.9834 53.9096 39.6492 53.3388 40.5034C52.768 41.3576 52.4634 42.3619 52.4634 43.3892C52.4634 44.7669 53.0106 46.0881 53.9848 47.0623C54.9589 48.0364 56.2802 48.5837 57.6578 48.5837Z" fill="#A1A3A2"/>
<path d="M42.7353 37.279C42.5943 37.2798 42.4546 37.2533 42.324 37.2011C42.1935 37.1488 42.0748 37.0718 41.9747 36.9744L33.6508 28.8019C32.6067 27.7674 32.021 26.3707 32.021 24.9152C32.021 23.4598 32.6067 22.0631 33.6508 21.0286C34.7031 19.9997 36.1285 19.4219 37.6146 19.4219C39.1006 19.4219 40.526 19.9997 41.5783 21.0286L42.7353 22.1631L43.8923 21.0286C44.9446 19.9997 46.37 19.4219 47.8561 19.4219C49.3421 19.4219 50.7675 19.9997 51.8198 21.0286C52.864 22.0631 53.4496 23.4598 53.4496 24.9152C53.4496 26.3707 52.864 27.7674 51.8198 28.8019L43.4959 36.9744C43.3958 37.0718 43.2771 37.1488 43.1466 37.2011C43.0161 37.2533 42.8763 37.2798 42.7353 37.279Z" fill="#A1A3A2"/>
<defs>
<filter id="filter0_d_276_1255" x="0" y="0" width="92" height="92" filterUnits="userSpaceOnUse" color-interpolation-filters="sRGB">
<feFlood flood-opacity="0" result="BackgroundImageFix"/>
<feColorMatrix in="SourceAlpha" type="matrix" values="0 0 0 0 0 0 0 0 0 0 0 0 0 0 0 0 0 0 127 0" result="hardAlpha"/>
<feOffset dx="4" dy="4"/>
<feGaussianBlur stdDeviation="3.5"/>
<feComposite in2="hardAlpha" operator="out"/>
<feColorMatrix type="matrix" values="0 0 0 0 0 0 0 0 0 0 0 0 0 0 0 0 0 0 0.15 0"/>
<feBlend mode="normal" in2="BackgroundImageFix" result="effect1_dropShadow_276_1255"/>
<feBlend mode="normal" in="SourceGraphic" in2="effect1_dropShadow_276_1255" result="shape"/>
</filter>
</defs>
</svg>
