<svg width="92" height="92" viewBox="0 0 92 92" fill="none" xmlns="http://www.w3.org/2000/svg">
<g filter="url(#filter0_d_284_2249)">
<circle cx="42" cy="42" r="39" fill="#C9E1F9"/>
</g>
<g clip-path="url(#clip0_284_2249)">
<path d="M51.4999 49.122C51.5639 49.0579 51.64 49.007 51.7236 48.9723C51.8073 48.9376 51.8971 48.9197 51.9877 48.9197C52.0783 48.9197 52.168 48.9376 52.2517 48.9723C52.3354 49.007 52.4114 49.0579 52.4754 49.122C53.054 49.7007 53.7955 50.089 54.6007 50.2351C55.4059 50.3811 56.2365 50.278 56.9816 49.9393V56.2683C57.4231 56.2683 57.8465 56.4437 58.1586 56.7558C58.4708 57.068 58.6462 57.4914 58.6462 57.9329C58.6462 58.3744 58.4708 58.7978 58.1586 59.11C57.8465 59.4222 57.4231 59.5976 56.9816 59.5976H27.0181C26.5767 59.5976 26.1533 59.4222 25.8411 59.11C25.5289 58.7978 25.3535 58.3744 25.3535 57.9329C25.3535 57.4914 25.5289 57.068 25.8411 56.7558C26.1533 56.4437 26.5767 56.2683 27.0181 56.2683V49.9393C28.4997 50.6135 30.3058 50.3405 31.5243 49.1237C31.5883 49.0596 31.6644 49.0087 31.748 48.974C31.8317 48.9393 31.9214 48.9214 32.0121 48.9214C32.1027 48.9214 32.1924 48.9393 32.2761 48.974C32.3598 49.0087 32.4358 49.0596 32.4998 49.1237C32.8729 49.4968 33.3159 49.7929 33.8035 49.9948C34.291 50.1968 34.8136 50.3007 35.3413 50.3007C35.869 50.3007 36.3916 50.1968 36.8792 49.9948C37.3667 49.7929 37.8097 49.4968 38.1828 49.1237C38.2469 49.0596 38.3229 49.0087 38.4066 48.974C38.4903 48.9393 38.58 48.9214 38.6706 48.9214C38.7612 48.9214 38.8509 48.9393 38.9346 48.974C39.0183 49.0087 39.0943 49.0596 39.1583 49.1237C39.5315 49.4968 39.9745 49.7929 40.462 49.9948C40.9496 50.1968 41.4721 50.3007 41.9999 50.3007C42.5276 50.3007 43.0501 50.1968 43.5377 49.9948C44.0252 49.7929 44.4682 49.4968 44.8414 49.1237C44.9054 49.0596 44.9814 49.0087 45.0651 48.974C45.1488 48.9393 45.2385 48.9214 45.3291 48.9214C45.4197 48.9214 45.5094 48.9393 45.5931 48.974C45.6768 49.0087 45.7529 49.0596 45.8169 49.1237C46.19 49.4968 46.633 49.7929 47.1206 49.9948C47.6081 50.1968 48.1307 50.3007 48.6584 50.3007C49.1861 50.3007 49.7087 50.1968 50.1962 49.9948C50.6838 49.7929 51.1268 49.4968 51.4999 49.1237V49.122ZM48.6584 32.9634C49.0999 32.9634 49.5233 33.1388 49.8355 33.451C50.1476 33.7631 50.323 34.1866 50.323 34.628V37.9573H51.9877C53.3121 37.9573 54.5823 38.4835 55.5189 39.42C56.4554 40.3565 56.9816 41.6267 56.9816 42.9512V45.5913L55.8047 46.7682C55.7407 46.8323 55.6646 46.8832 55.5809 46.9179C55.4972 46.9526 55.4075 46.9705 55.3169 46.9705C55.2263 46.9705 55.1366 46.9526 55.0529 46.9179C54.9692 46.8832 54.8932 46.8323 54.8292 46.7682C54.456 46.3951 54.013 46.099 53.5255 45.8971C53.0379 45.6951 52.5154 45.5912 51.9877 45.5912C51.4599 45.5912 50.9374 45.6951 50.4498 45.8971C49.9623 46.099 49.5193 46.3951 49.1461 46.7682C49.0821 46.8323 49.0061 46.8832 48.9224 46.9179C48.8387 46.9526 48.749 46.9705 48.6584 46.9705C48.5678 46.9705 48.4781 46.9526 48.3944 46.9179C48.3107 46.8832 48.2347 46.8323 48.1707 46.7682C47.7975 46.3951 47.3545 46.099 46.867 45.8971C46.3794 45.6951 45.8568 45.5912 45.3291 45.5912C44.8014 45.5912 44.2788 45.6951 43.7913 45.8971C43.3037 46.099 42.8607 46.3951 42.4876 46.7682C42.4236 46.8323 42.3476 46.8832 42.2639 46.9179C42.1802 46.9526 42.0905 46.9705 41.9999 46.9705C41.9093 46.9705 41.8195 46.9526 41.7358 46.9179C41.6522 46.8832 41.5761 46.8323 41.5121 46.7682C41.139 46.3951 40.696 46.099 40.2084 45.8971C39.7209 45.6951 39.1983 45.5912 38.6706 45.5912C38.1429 45.5912 37.6203 45.6951 37.1328 45.8971C36.6452 46.099 36.2022 46.3951 35.8291 46.7682C35.765 46.8323 35.689 46.8832 35.6053 46.9179C35.5216 46.9526 35.4319 46.9705 35.3413 46.9705C35.2507 46.9705 35.161 46.9526 35.0773 46.9179C34.9936 46.8832 34.9176 46.8323 34.8536 46.7682C34.4804 46.3951 34.0374 46.099 33.5499 45.8971C33.0623 45.6951 32.5398 45.5912 32.0121 45.5912C31.4843 45.5912 30.9618 45.6951 30.4742 45.8971C29.9867 46.099 29.5437 46.3951 29.1705 46.7682C29.1065 46.8323 29.0305 46.8832 28.9468 46.9179C28.8631 46.9526 28.7734 46.9705 28.6828 46.9705C28.5922 46.9705 28.5025 46.9526 28.4188 46.9179C28.3351 46.8832 28.2591 46.8323 28.195 46.7682L27.0181 45.5913V42.9512C27.0181 41.6267 27.5443 40.3565 28.4808 39.42C29.4174 38.4835 30.6876 37.9573 32.0121 37.9573H33.6767V34.628C33.6767 34.1866 33.8521 33.7631 34.1642 33.451C34.4764 33.1388 34.8998 32.9634 35.3413 32.9634C35.7828 32.9634 36.2062 33.1388 36.5184 33.451C36.8306 33.7631 37.006 34.1866 37.006 34.628V37.9573H40.3352V34.628C40.3352 34.1866 40.5106 33.7631 40.8228 33.451C41.135 33.1388 41.5584 32.9634 41.9999 32.9634C42.4413 32.9634 42.8648 33.1388 43.1769 33.451C43.4891 33.7631 43.6645 34.1866 43.6645 34.628V37.9573H46.9938V34.628C46.9938 34.1866 47.1691 33.7631 47.4813 33.451C47.7935 33.1388 48.2169 32.9634 48.6584 32.9634ZM42.8322 26.3049C42.3012 27.3669 42.7856 28.0527 43.2067 28.652C43.4464 28.9899 43.6645 29.3012 43.6645 29.6341C43.6645 30.0756 43.4891 30.499 43.1769 30.8112C42.8648 31.1234 42.4413 31.2988 41.9999 31.2988C41.5584 31.2988 41.135 31.1234 40.8228 30.8112C40.5106 30.499 40.3352 30.0756 40.3352 29.6341C40.3352 28.7153 41.1675 27.1372 42.8322 26.3049ZM36.1736 26.3049C35.6426 27.3669 36.127 28.0527 36.5482 28.652C36.7879 28.9899 37.006 29.3012 37.006 29.6341C37.006 30.0756 36.8306 30.499 36.5184 30.8112C36.2062 31.1234 35.7828 31.2988 35.3413 31.2988C34.8998 31.2988 34.4764 31.1234 34.1642 30.8112C33.8521 30.499 33.6767 30.0756 33.6767 29.6341C33.6767 28.7153 34.509 27.1372 36.1736 26.3049ZM49.4907 26.3049C48.9597 27.3669 49.4441 28.0527 49.8653 28.652C50.105 28.9899 50.323 29.3012 50.323 29.6341C50.323 30.0756 50.1476 30.499 49.8355 30.8112C49.5233 31.1234 49.0999 31.2988 48.6584 31.2988C48.2169 31.2988 47.7935 31.1234 47.4813 30.8112C47.1691 30.499 46.9938 30.0756 46.9938 29.6341C46.9938 28.7153 47.8261 27.1372 49.4907 26.3049Z" fill="#A1A3A2"/>
</g>
<defs>
<filter id="filter0_d_284_2249" x="0" y="0" width="92" height="92" filterUnits="userSpaceOnUse" color-interpolation-filters="sRGB">
<feFlood flood-opacity="0" result="BackgroundImageFix"/>
<feColorMatrix in="SourceAlpha" type="matrix" values="0 0 0 0 0 0 0 0 0 0 0 0 0 0 0 0 0 0 127 0" result="hardAlpha"/>
<feOffset dx="4" dy="4"/>
<feGaussianBlur stdDeviation="3.5"/>
<feComposite in2="hardAlpha" operator="out"/>
<feColorMatrix type="matrix" values="0 0 0 0 0 0 0 0 0 0 0 0 0 0 0 0 0 0 0.15 0"/>
<feBlend mode="normal" in2="BackgroundImageFix" result="effect1_dropShadow_284_2249"/>
<feBlend mode="normal" in="SourceGraphic" in2="effect1_dropShadow_284_2249" result="shape"/>
</filter>
<clipPath id="clip0_284_2249">
<rect width="39.9512" height="39.9512" fill="white" transform="translate(22.0244 22.9756)"/>
</clipPath>
</defs>
</svg>
