<svg width="91" height="92" viewBox="0 0 91 92" fill="none" xmlns="http://www.w3.org/2000/svg">
<g filter="url(#filter0_d_276_1238)">
<ellipse cx="41.5" cy="42" rx="38.5" ry="39" fill="white"/>
</g>
<path d="M33.1212 34.6471C33.1212 34.6471 32.5475 34.3418 32.1747 32.6115C31.8019 30.8812 35.0725 27.6842 35.0725 27.6842C35.0725 27.6842 36.0773 27.1905 40.2372 27.2638C44.397 27.337 45.3886 28.019 46.2497 29.0654C50.003 33.6293 57.0532 42.7135 58.7265 49.8761C59.1078 50.9434 59.6336 50.3613 59.6336 52.0839C59.6336 53.3186 58.9669 53.6591 58.7885 53.8608C54.4559 58.7729 43.8393 60.4004 39.1038 60.4004C34.3683 60.4004 34.3983 59.2961 33.078 59.2961C31.7578 59.2961 30.2948 63.7145 27.0307 64.3537C24.5986 59.4121 24.6991 49.4129 27.0307 44.1308C32.5184 44.1308 33.3935 46.2663 35.6603 46.2663C37.5976 46.2663 37.2961 45.0459 40.3527 45.0459C43.4092 45.0459 47.6263 48.5768 47.6263 48.5768C45.2375 45.569 47.9005 38.2389 42.7415 33.3601C41.7725 32.4451 41.3208 35.4528 38.3075 35.4528C37.8633 35.7191 36.2651 35.9313 36.2651 35.9313" fill="#A1A3A2"/>
<path d="M33.1212 34.6471C33.1212 34.6471 32.5475 34.3418 32.1747 32.6115C31.8019 30.8812 35.0725 27.6842 35.0725 27.6842C35.0725 27.6842 36.0773 27.1905 40.2372 27.2638C44.397 27.337 45.3886 28.019 46.2497 29.0654C50.003 33.6293 57.0532 42.7135 58.7265 49.8761C59.1078 50.9434 59.6336 50.3613 59.6336 52.0839C59.6336 53.3186 58.9669 53.6591 58.7885 53.8608C54.4559 58.7729 43.8393 60.4004 39.1038 60.4004C34.3683 60.4004 34.3983 59.2961 33.078 59.2961C31.7578 59.2961 30.2948 63.7145 27.0307 64.3537C24.5986 59.4121 24.6991 49.4129 27.0307 44.1308C32.5184 44.1308 33.3935 46.2663 35.6603 46.2663C37.5976 46.2663 37.2961 45.0459 40.3527 45.0459C43.4092 45.0459 47.6263 48.5768 47.6263 48.5768C45.2375 45.569 47.9005 38.2389 42.7415 33.3601C41.7725 32.4451 41.3208 35.4528 38.3075 35.4528C37.8633 35.7191 36.2651 35.9313 36.2651 35.9313" stroke="#A1A3A2" stroke-linecap="round" stroke-linejoin="round"/>
<path d="M48.903 49.8226C49.7425 50.7929 51.4675 52.1084 53.0714 52.0865M31.6147 51.0697C29.7638 53.3222 29.5197 55.764 27.6548 56.7818M34.4693 52.0875C37.2535 54.9507 42.2895 54.7604 45.2305 51.7089M45.3554 31.2891C45.2268 31.8341 44.5384 32.6731 44.0314 32.8148M37.4901 29.1089C37.1136 29.5664 35.2834 31.9216 35.3266 32.3031C35.3698 32.6845 35.1012 34.5917 35.6712 34.7991C36.2412 35.0064 38.1784 34.6564 38.1568 33.8288C38.1352 33.0013 37.9737 32.5751 38.0169 32.1718C38.0601 31.7685 39.3513 29.7747 39.3513 29.7747" stroke="#A1A3A2" stroke-linecap="round" stroke-linejoin="round"/>
<path d="M35.6283 28.7598C35.155 29.3381 33.5943 31.5725 33.6159 32.5095C33.6375 33.4464 33.7343 34.1342 33.9493 34.3415C34.1643 34.5489 35.3278 34.0609 35.3278 34.0609" stroke="#A1A3A2" stroke-linecap="round" stroke-linejoin="round"/>
<path d="M35.7435 34.8201C35.7435 34.8201 36.2092 35.3338 36.2628 35.8893C36.3163 36.4448 35.5529 36.9794 34.8542 37.1753C34.1556 37.3713 33.1743 36.0415 33.1743 35.5402C33.1743 35.0389 33.949 34.3417 33.949 34.3417M40.1644 32.1738C40.1888 32.8787 40.3588 33.6425 39.7588 33.8641C39.1587 34.0858 38.1202 34.0316 38.1202 34.0316" fill="#A1A3A2"/>
<path d="M35.7435 34.8201C35.7435 34.8201 36.2092 35.3338 36.2628 35.8893C36.3163 36.4448 35.5529 36.9794 34.8542 37.1753C34.1556 37.3713 33.1743 36.0415 33.1743 35.5402C33.1743 35.0389 33.949 34.3417 33.949 34.3417M40.1644 32.1738C40.1888 32.8787 40.3588 33.6425 39.7588 33.8641C39.1587 34.0858 38.1202 34.0316 38.1202 34.0316" stroke="#A1A3A2" stroke-linecap="round" stroke-linejoin="round"/>
<defs>
<filter id="filter0_d_276_1238" x="0" y="0" width="91" height="92" filterUnits="userSpaceOnUse" color-interpolation-filters="sRGB">
<feFlood flood-opacity="0" result="BackgroundImageFix"/>
<feColorMatrix in="SourceAlpha" type="matrix" values="0 0 0 0 0 0 0 0 0 0 0 0 0 0 0 0 0 0 127 0" result="hardAlpha"/>
<feOffset dx="4" dy="4"/>
<feGaussianBlur stdDeviation="3.5"/>
<feComposite in2="hardAlpha" operator="out"/>
<feColorMatrix type="matrix" values="0 0 0 0 0 0 0 0 0 0 0 0 0 0 0 0 0 0 0.15 0"/>
<feBlend mode="normal" in2="BackgroundImageFix" result="effect1_dropShadow_276_1238"/>
<feBlend mode="normal" in="SourceGraphic" in2="effect1_dropShadow_276_1238" result="shape"/>
</filter>
</defs>
</svg>
