<svg width="41" height="41" viewBox="0 0 41 41" fill="none" xmlns="http://www.w3.org/2000/svg">
<path d="M20.4999 13.6667L18.2278 13.8204C16.7586 12.0779 12.6416 7.6875 8.54155 7.6875C8.54155 7.6875 5.17613 12.7442 8.47322 19.4921C7.53363 20.91 6.9528 21.6446 6.83322 23.3358L3.53613 23.8312L3.89488 25.5054L6.90155 25.0613L7.14072 26.2742L4.45863 27.88L5.26155 29.4004L7.73863 27.88C9.70322 32.0483 14.6745 34.1667 20.4999 34.1667C26.3253 34.1667 31.2965 32.0483 33.2611 27.88L35.7382 29.4004L36.5411 27.88L33.8591 26.2742L34.0982 25.0613L37.1049 25.5054L37.4636 23.8312L34.1666 23.3358C34.047 21.6446 33.4661 20.91 32.5266 19.4921C35.8236 12.7442 32.4582 7.6875 32.4582 7.6875C28.3582 7.6875 24.2411 12.0779 22.772 13.8204L20.4999 13.6667ZM15.3749 18.7917C15.828 18.7917 16.2625 18.9717 16.5829 19.292C16.9032 19.6124 17.0832 20.0469 17.0832 20.5C17.0832 20.9531 16.9032 21.3876 16.5829 21.708C16.2625 22.0283 15.828 22.2083 15.3749 22.2083C14.9218 22.2083 14.4873 22.0283 14.1669 21.708C13.8465 21.3876 13.6666 20.9531 13.6666 20.5C13.6666 20.0469 13.8465 19.6124 14.1669 19.292C14.4873 18.9717 14.9218 18.7917 15.3749 18.7917ZM25.6249 18.7917C26.078 18.7917 26.5125 18.9717 26.8329 19.292C27.1532 19.6124 27.3332 20.0469 27.3332 20.5C27.3332 20.9531 27.1532 21.3876 26.8329 21.708C26.5125 22.0283 26.078 22.2083 25.6249 22.2083C25.1718 22.2083 24.7373 22.0283 24.4169 21.708C24.0965 21.3876 23.9165 20.9531 23.9165 20.5C23.9165 20.0469 24.0965 19.6124 24.4169 19.292C24.7373 18.9717 25.1718 18.7917 25.6249 18.7917ZM18.7916 23.9167H22.2082L21.0124 26.2913C21.3541 27.3846 22.3107 28.1875 23.4895 28.1875C24.1691 28.1875 24.8209 27.9175 25.3014 27.437C25.782 26.9564 26.052 26.3046 26.052 25.625H26.9061C26.9061 26.5312 26.5462 27.4002 25.9054 28.0409C25.2647 28.6817 24.3956 29.0417 23.4895 29.0417C22.2082 29.0417 21.0978 28.3413 20.4999 27.3333C19.902 28.3413 18.7916 29.0417 17.5103 29.0417C16.6041 29.0417 15.7351 28.6817 15.0944 28.0409C14.4536 27.4002 14.0936 26.5312 14.0936 25.625H14.9478C14.9478 26.3046 15.2178 26.9564 15.6983 27.437C16.1789 27.9175 16.8307 28.1875 17.5103 28.1875C18.6891 28.1875 19.6457 27.3846 19.9874 26.2913L18.7916 23.9167Z" fill="white"/>
</svg>
