<svg width="92" height="92" viewBox="0 0 92 92" fill="none" xmlns="http://www.w3.org/2000/svg">
<g filter="url(#filter0_d_293_2509)">
<circle cx="42" cy="42" r="39" fill="white"/>
</g>
<g clip-path="url(#clip0_293_2509)">
<path d="M51.4999 49.1218C51.5639 49.0577 51.64 49.0068 51.7236 48.9721C51.8073 48.9374 51.8971 48.9195 51.9877 48.9195C52.0783 48.9195 52.168 48.9374 52.2517 48.9721C52.3354 49.0068 52.4114 49.0577 52.4754 49.1218C53.054 49.7005 53.7955 50.0888 54.6007 50.2349C55.4059 50.3809 56.2365 50.2778 56.9816 49.9392V56.2681C57.4231 56.2681 57.8465 56.4435 58.1586 56.7557C58.4708 57.0678 58.6462 57.4912 58.6462 57.9327C58.6462 58.3742 58.4708 58.7976 58.1586 59.1098C57.8465 59.422 57.4231 59.5974 56.9816 59.5974H27.0181C26.5767 59.5974 26.1533 59.422 25.8411 59.1098C25.5289 58.7976 25.3535 58.3742 25.3535 57.9327C25.3535 57.4912 25.5289 57.0678 25.8411 56.7557C26.1533 56.4435 26.5767 56.2681 27.0181 56.2681V49.9392C28.4997 50.6133 30.3058 50.3403 31.5243 49.1235C31.5883 49.0594 31.6644 49.0085 31.748 48.9738C31.8317 48.9391 31.9214 48.9212 32.0121 48.9212C32.1027 48.9212 32.1924 48.9391 32.2761 48.9738C32.3598 49.0085 32.4358 49.0594 32.4998 49.1235C32.8729 49.4967 33.3159 49.7927 33.8035 49.9946C34.291 50.1966 34.8136 50.3005 35.3413 50.3005C35.869 50.3005 36.3916 50.1966 36.8792 49.9946C37.3667 49.7927 37.8097 49.4967 38.1828 49.1235C38.2469 49.0594 38.3229 49.0085 38.4066 48.9738C38.4903 48.9391 38.58 48.9212 38.6706 48.9212C38.7612 48.9212 38.8509 48.9391 38.9346 48.9738C39.0183 49.0085 39.0943 49.0594 39.1583 49.1235C39.5315 49.4967 39.9745 49.7927 40.462 49.9946C40.9496 50.1966 41.4721 50.3005 41.9999 50.3005C42.5276 50.3005 43.0501 50.1966 43.5377 49.9946C44.0252 49.7927 44.4682 49.4967 44.8414 49.1235C44.9054 49.0594 44.9814 49.0085 45.0651 48.9738C45.1488 48.9391 45.2385 48.9212 45.3291 48.9212C45.4197 48.9212 45.5094 48.9391 45.5931 48.9738C45.6768 49.0085 45.7529 49.0594 45.8169 49.1235C46.19 49.4967 46.633 49.7927 47.1206 49.9946C47.6081 50.1966 48.1307 50.3005 48.6584 50.3005C49.1861 50.3005 49.7087 50.1966 50.1962 49.9946C50.6838 49.7927 51.1268 49.4967 51.4999 49.1235V49.1218ZM48.6584 32.9632C49.0999 32.9632 49.5233 33.1386 49.8355 33.4508C50.1476 33.763 50.323 34.1864 50.323 34.6279V37.9571H51.9877C53.3121 37.9571 54.5823 38.4833 55.5189 39.4198C56.4554 40.3563 56.9816 41.6266 56.9816 42.951V45.5911L55.8047 46.768C55.7407 46.8322 55.6646 46.883 55.5809 46.9177C55.4972 46.9524 55.4075 46.9703 55.3169 46.9703C55.2263 46.9703 55.1366 46.9524 55.0529 46.9177C54.9692 46.883 54.8932 46.8322 54.8292 46.768C54.456 46.3949 54.013 46.0989 53.5255 45.8969C53.0379 45.6949 52.5154 45.591 51.9877 45.591C51.4599 45.591 50.9374 45.6949 50.4498 45.8969C49.9623 46.0989 49.5193 46.3949 49.1461 46.768C49.0821 46.8322 49.0061 46.883 48.9224 46.9177C48.8387 46.9524 48.749 46.9703 48.6584 46.9703C48.5678 46.9703 48.4781 46.9524 48.3944 46.9177C48.3107 46.883 48.2347 46.8322 48.1707 46.768C47.7975 46.3949 47.3545 46.0989 46.867 45.8969C46.3794 45.6949 45.8568 45.591 45.3291 45.591C44.8014 45.591 44.2788 45.6949 43.7913 45.8969C43.3037 46.0989 42.8607 46.3949 42.4876 46.768C42.4236 46.8322 42.3476 46.883 42.2639 46.9177C42.1802 46.9524 42.0905 46.9703 41.9999 46.9703C41.9093 46.9703 41.8195 46.9524 41.7358 46.9177C41.6522 46.883 41.5761 46.8322 41.5121 46.768C41.139 46.3949 40.696 46.0989 40.2084 45.8969C39.7209 45.6949 39.1983 45.591 38.6706 45.591C38.1429 45.591 37.6203 45.6949 37.1328 45.8969C36.6452 46.0989 36.2022 46.3949 35.8291 46.768C35.765 46.8322 35.689 46.883 35.6053 46.9177C35.5216 46.9524 35.4319 46.9703 35.3413 46.9703C35.2507 46.9703 35.161 46.9524 35.0773 46.9177C34.9936 46.883 34.9176 46.8322 34.8536 46.768C34.4804 46.3949 34.0374 46.0989 33.5499 45.8969C33.0623 45.6949 32.5398 45.591 32.0121 45.591C31.4843 45.591 30.9618 45.6949 30.4742 45.8969C29.9867 46.0989 29.5437 46.3949 29.1705 46.768C29.1065 46.8322 29.0305 46.883 28.9468 46.9177C28.8631 46.9524 28.7734 46.9703 28.6828 46.9703C28.5922 46.9703 28.5025 46.9524 28.4188 46.9177C28.3351 46.883 28.2591 46.8322 28.195 46.768L27.0181 45.5911V42.951C27.0181 41.6266 27.5443 40.3563 28.4808 39.4198C29.4174 38.4833 30.6876 37.9571 32.0121 37.9571H33.6767V34.6279C33.6767 34.1864 33.8521 33.763 34.1642 33.4508C34.4764 33.1386 34.8998 32.9632 35.3413 32.9632C35.7828 32.9632 36.2062 33.1386 36.5184 33.4508C36.8306 33.763 37.006 34.1864 37.006 34.6279V37.9571H40.3352V34.6279C40.3352 34.1864 40.5106 33.763 40.8228 33.4508C41.135 33.1386 41.5584 32.9632 41.9999 32.9632C42.4413 32.9632 42.8648 33.1386 43.1769 33.4508C43.4891 33.763 43.6645 34.1864 43.6645 34.6279V37.9571H46.9938V34.6279C46.9938 34.1864 47.1691 33.763 47.4813 33.4508C47.7935 33.1386 48.2169 32.9632 48.6584 32.9632ZM42.8322 26.3047C42.3012 27.3667 42.7856 28.0526 43.2067 28.6518C43.4464 28.9897 43.6645 29.301 43.6645 29.634C43.6645 30.0754 43.4891 30.4988 43.1769 30.811C42.8648 31.1232 42.4413 31.2986 41.9999 31.2986C41.5584 31.2986 41.135 31.1232 40.8228 30.811C40.5106 30.4988 40.3352 30.0754 40.3352 29.634C40.3352 28.7151 41.1675 27.137 42.8322 26.3047ZM36.1736 26.3047C35.6426 27.3667 36.127 28.0526 36.5482 28.6518C36.7879 28.9897 37.006 29.301 37.006 29.634C37.006 30.0754 36.8306 30.4988 36.5184 30.811C36.2062 31.1232 35.7828 31.2986 35.3413 31.2986C34.8998 31.2986 34.4764 31.1232 34.1642 30.811C33.8521 30.4988 33.6767 30.0754 33.6767 29.634C33.6767 28.7151 34.509 27.137 36.1736 26.3047ZM49.4907 26.3047C48.9597 27.3667 49.4441 28.0526 49.8653 28.6518C50.105 28.9897 50.323 29.301 50.323 29.634C50.323 30.0754 50.1476 30.4988 49.8355 30.811C49.5233 31.1232 49.0999 31.2986 48.6584 31.2986C48.2169 31.2986 47.7935 31.1232 47.4813 30.811C47.1691 30.4988 46.9938 30.0754 46.9938 29.634C46.9938 28.7151 47.8261 27.137 49.4907 26.3047Z" fill="#A1A3A2"/>
</g>
<defs>
<filter id="filter0_d_293_2509" x="0" y="0" width="92" height="92" filterUnits="userSpaceOnUse" color-interpolation-filters="sRGB">
<feFlood flood-opacity="0" result="BackgroundImageFix"/>
<feColorMatrix in="SourceAlpha" type="matrix" values="0 0 0 0 0 0 0 0 0 0 0 0 0 0 0 0 0 0 127 0" result="hardAlpha"/>
<feOffset dx="4" dy="4"/>
<feGaussianBlur stdDeviation="3.5"/>
<feComposite in2="hardAlpha" operator="out"/>
<feColorMatrix type="matrix" values="0 0 0 0 0 0 0 0 0 0 0 0 0 0 0 0 0 0 0.15 0"/>
<feBlend mode="normal" in2="BackgroundImageFix" result="effect1_dropShadow_293_2509"/>
<feBlend mode="normal" in="SourceGraphic" in2="effect1_dropShadow_293_2509" result="shape"/>
</filter>
<clipPath id="clip0_293_2509">
<rect width="39.9512" height="39.9512" fill="white" transform="translate(22.0244 22.9756)"/>
</clipPath>
</defs>
</svg>
