<svg width="92" height="91" viewBox="0 0 92 91" fill="none" xmlns="http://www.w3.org/2000/svg">
<g filter="url(#filter0_d_284_2243)">
<ellipse cx="42" cy="41.5" rx="39" ry="38.5" fill="#C9E1F9"/>
</g>
<g clip-path="url(#clip0_284_2243)">
<path d="M49.6097 50.8903C50.6656 50.8903 51.5122 51.726 51.5122 52.7683V64.0366C51.5122 65.0789 50.6656 65.9146 49.6097 65.9146H34.3902C33.3344 65.9146 32.4878 65.0789 32.4878 64.0366V52.7683C32.4878 51.726 33.3344 50.8903 34.3902 50.8903H49.6097ZM38.6707 61.2195V55.5854H37.4817V58.872L35.1036 55.5854H33.9146V61.2195H35.1036V57.9329L37.5293 61.2195H38.6707ZM43.4268 56.7686V55.5854H39.6219V61.2195H43.4268V60.0457H41.0488V59.0034H43.4268V57.8203H41.0488V56.7686H43.4268ZM50.0854 60.2805V55.5854H48.8963V59.811H47.831V56.5244H46.6419V59.811H45.5671V55.5854H44.378V60.2805C44.378 60.5295 44.4783 60.7684 44.6566 60.9445C44.835 61.1206 45.077 61.2195 45.3293 61.2195H49.1341C49.3864 61.2195 49.6284 61.1206 49.8067 60.9445C49.9851 60.7684 50.0854 60.5295 50.0854 60.2805Z" fill="#A1A3A2"/>
</g>
<g clip-path="url(#clip1_284_2243)">
<path d="M27.7314 46.1952V39.4459H33.0583V40.7958H35.7217V39.4459H46.3753V40.7958H49.0388V39.4459H54.3656V46.1952H27.7314ZM27.7314 32.6967C27.7314 31.9543 27.9925 31.3185 28.5145 30.7893C29.0356 30.2611 29.6624 29.997 30.3949 29.997H34.39V27.2973C34.39 26.5549 34.651 25.9195 35.173 25.3913C35.6942 24.8622 36.321 24.5976 37.0534 24.5976H45.0436C45.7761 24.5976 46.4033 24.8622 46.9253 25.3913C47.4465 25.9195 47.7071 26.5549 47.7071 27.2973V29.997H51.7022C52.4346 29.997 53.0618 30.2611 53.5839 30.7893C54.105 31.3185 54.3656 31.9543 54.3656 32.6967V38.0961H49.0388V35.3964H46.3753V38.0961H35.7217V35.3964H33.0583V38.0961H27.7314V32.6967ZM37.0534 29.997H45.0436V27.2973H37.0534V29.997Z" fill="#A1A3A2"/>
</g>
<defs>
<filter id="filter0_d_284_2243" x="0" y="0" width="92" height="91" filterUnits="userSpaceOnUse" color-interpolation-filters="sRGB">
<feFlood flood-opacity="0" result="BackgroundImageFix"/>
<feColorMatrix in="SourceAlpha" type="matrix" values="0 0 0 0 0 0 0 0 0 0 0 0 0 0 0 0 0 0 127 0" result="hardAlpha"/>
<feOffset dx="4" dy="4"/>
<feGaussianBlur stdDeviation="3.5"/>
<feComposite in2="hardAlpha" operator="out"/>
<feColorMatrix type="matrix" values="0 0 0 0 0 0 0 0 0 0 0 0 0 0 0 0 0 0 0.15 0"/>
<feBlend mode="normal" in2="BackgroundImageFix" result="effect1_dropShadow_284_2243"/>
<feBlend mode="normal" in="SourceGraphic" in2="effect1_dropShadow_284_2243" result="shape"/>
</filter>
<clipPath id="clip0_284_2243">
<rect width="22.8293" height="22.5366" fill="white" transform="translate(30.5854 43.3781)"/>
</clipPath>
<clipPath id="clip1_284_2243">
<rect width="28.5366" height="33.8049" fill="white" transform="translate(25.8291 12.3903)"/>
</clipPath>
</defs>
</svg>
