<svg width="33" height="22" viewBox="0 0 33 22" fill="none" xmlns="http://www.w3.org/2000/svg">
<path d="M17.25 2.75C17.25 1.22375 18.585 0 20.25 0H25.5C27.15 0 28.5 1.2375 28.5 2.75V5.72C26.76 6.28375 25.5 7.79625 25.5 9.58375V12.375H17.25V2.75ZM7.5 9.57V12.375H15.75V2.75C15.75 1.22375 14.415 0 12.75 0H7.5C5.85 0 4.5 1.2375 4.5 2.75V5.70625C6.24 6.27 7.5 7.79625 7.5 9.57ZM29.49 6.91625C28.02 7.13625 27 8.415 27 9.79V13.75H6V9.625C6 8.89565 5.68393 8.19618 5.12132 7.68046C4.55871 7.16473 3.79565 6.875 3 6.875C2.20435 6.875 1.44129 7.16473 0.87868 7.68046C0.316071 8.19618 0 8.89565 0 9.625V16.5C0 18.0125 1.35 19.25 3 19.25V22H6V19.25H27V22H30V19.25C31.65 19.25 33 18.0125 33 16.5V9.625C33 7.96125 31.365 6.6275 29.49 6.91625Z" fill="white"/>
</svg>
