<svg width="24" height="34" viewBox="0 0 24 34" fill="none" xmlns="http://www.w3.org/2000/svg">
<path d="M3.42857 0H20.5714C21.4807 0 22.3528 0.358213 22.9958 0.995837C23.6388 1.63346 24 2.49826 24 3.4V11.9H0V3.4C0 2.49826 0.361223 1.63346 1.00421 0.995837C1.64719 0.358213 2.51926 0 3.42857 0ZM24 28.9C24 29.8017 23.6388 30.6665 22.9958 31.3042C22.3528 31.9418 21.4807 32.3 20.5714 32.3V34H17.1429V32.3H6.85714V34H3.42857V32.3C2.51926 32.3 1.64719 31.9418 1.00421 31.3042C0.361223 30.6665 0 29.8017 0 28.9V13.6H24V28.9ZM5.14286 5.1V8.5H8.57143V5.1H5.14286ZM5.14286 17V22.1H8.57143V17H5.14286Z" fill="white"/>
</svg>
