<svg width="24" height="24" viewBox="0 0 24 24" fill="none" xmlns="http://www.w3.org/2000/svg">
<path d="M13.1292 0.35835C11.9511 -0.11945 10.6368 -0.11945 9.45867 0.35835L1.33127 3.65726C0.93868 3.81644 0.602078 4.09111 0.364816 4.44592C0.127553 4.80072 0.000493282 5.21941 2.95557e-08 5.64806V16.591C-7.06773e-05 17.0201 0.126726 17.4395 0.364025 17.7948C0.601323 18.1502 0.938233 18.4253 1.33127 18.5847L9.45867 21.8807C10.6368 22.3585 11.9511 22.3585 13.1292 21.8807L13.2661 21.8249C12.7657 21.5563 12.3028 21.2213 11.8897 20.8288C11.4328 20.9652 10.9439 20.9415 10.5019 20.7615L10.0841 20.5898C10.0505 20.5779 10.0171 20.5654 9.98384 20.5526L1.85503 17.2565C1.72395 17.2033 1.61165 17.1114 1.53262 16.9927C1.4536 16.8741 1.41149 16.7342 1.41174 16.591V5.73679L10.5881 9.45791V13.1762C10.9452 12.4749 11.4252 11.8509 11.9998 11.3299V9.45791L21.1761 5.73679V12.0813C22.0585 13.1876 22.5879 14.5959 22.5879 16.1302V5.64806C22.5877 5.21916 22.4607 4.80016 22.2234 4.44508C21.9862 4.08999 21.6494 3.81509 21.2566 3.65583L13.1292 0.35835ZM9.98384 1.68937C10.8253 1.34813 11.764 1.34813 12.6054 1.68937L19.9818 4.68057L16.7644 5.98296L8.07657 2.46221L9.98384 1.68937ZM6.17637 3.23077L14.8642 6.75295L11.2939 8.20275L2.60608 4.67914L6.17637 3.23077ZM20.1921 19.1285C20.9402 18.1143 21.2816 16.8504 21.1476 15.5913C21.0136 14.3322 20.4141 13.1713 19.4698 12.3422C18.5255 11.5131 17.3064 11.0774 16.058 11.1228C14.8096 11.1681 13.6245 11.6912 12.7411 12.5867C11.8578 13.4822 11.3419 14.6837 11.2971 15.9493C11.2524 17.2149 11.6821 18.4507 12.5 19.4081C13.3178 20.3654 14.4629 20.9731 15.7049 21.109C16.9469 21.2449 18.1936 20.8988 19.194 20.1404L22.794 23.7899C22.9263 23.9243 23.1059 23.9999 23.2932 24C23.4806 24.0001 23.6602 23.9248 23.7928 23.7906C23.9253 23.6565 23.9999 23.4744 24 23.2845C24.0001 23.0946 23.9258 22.9124 23.7935 22.7781L20.1936 19.1285H20.1921ZM19.7644 16.1302C19.7644 17.0791 19.3925 17.9892 18.7307 18.6602C18.0688 19.3312 17.1711 19.7082 16.235 19.7082C15.299 19.7082 14.4013 19.3312 13.7394 18.6602C13.0775 17.9892 12.7057 17.0791 12.7057 16.1302C12.7057 15.1812 13.0775 14.2711 13.7394 13.6001C14.4013 12.9291 15.299 12.5522 16.235 12.5522C17.1711 12.5522 18.0688 12.9291 18.7307 13.6001C19.3925 14.2711 19.7644 15.1812 19.7644 16.1302Z" fill="#4F5150"/>
</svg>
