<svg width="26" height="26" viewBox="0 0 26 26" fill="none" xmlns="http://www.w3.org/2000/svg">
<path d="M9.81516 2.09086C7.76766 2.08003 5.77433 4.0517 6.68433 6.50003H3.25016C2.67553 6.50003 2.12443 6.7283 1.7181 7.13463C1.31177 7.54096 1.0835 8.09206 1.0835 8.6667V10.8334C1.0835 11.1207 1.19763 11.3962 1.4008 11.5994C1.60396 11.8026 1.87951 11.9167 2.16683 11.9167H11.9168V8.6667H14.0835V11.9167H23.8335C24.1208 11.9167 24.3964 11.8026 24.5995 11.5994C24.8027 11.3962 24.9168 11.1207 24.9168 10.8334V8.6667C24.9168 8.09206 24.6886 7.54096 24.2822 7.13463C23.8759 6.7283 23.3248 6.50003 22.7502 6.50003H19.316C20.5835 2.95753 15.8168 0.455032 13.6177 3.51003L13.0002 4.33336L12.3827 3.48836C11.7002 2.5242 10.7577 2.1017 9.81516 2.09086ZM9.75016 4.33336C10.7143 4.33336 11.2018 5.50337 10.5193 6.18586C9.83683 6.86837 8.66683 6.38087 8.66683 5.4167C8.66683 5.12938 8.78097 4.85383 8.98413 4.65067C9.18729 4.4475 9.46284 4.33336 9.75016 4.33336ZM16.2502 4.33336C17.2143 4.33336 17.7018 5.50337 17.0193 6.18586C16.3368 6.86837 15.1668 6.38087 15.1668 5.4167C15.1668 5.12938 15.281 4.85383 15.4841 4.65067C15.6873 4.4475 15.9628 4.33336 16.2502 4.33336ZM2.16683 13V21.6667C2.16683 22.2413 2.3951 22.7924 2.80143 23.1988C3.20776 23.6051 3.75886 23.8334 4.3335 23.8334H21.6668C22.2415 23.8334 22.7926 23.6051 23.1989 23.1988C23.6052 22.7924 23.8335 22.2413 23.8335 21.6667V13H14.0835V21.6667H11.9168V13H2.16683Z" fill="#4F5150"/>
</svg>
