<svg width="24" height="29" viewBox="0 0 24 29" fill="none" xmlns="http://www.w3.org/2000/svg">
<path d="M21 9H3C2.20459 9.0008 1.44199 9.31712 0.879557 9.87956C0.31712 10.442 0.000794215 11.2046 0 12V18C0.000529477 18.5303 0.211413 19.0387 0.586371 19.4136C0.961329 19.7886 1.46973 19.9995 2 20V27C2.00053 27.5303 2.21141 28.0387 2.58637 28.4136C2.96133 28.7886 3.46973 28.9995 4 29H8C8.53027 28.9995 9.03867 28.7886 9.41363 28.4136C9.78859 28.0387 9.99947 27.5303 10 27V15H8V27H4V18H2V12C2 11.7348 2.10536 11.4804 2.29289 11.2929C2.48043 11.1054 2.73478 11 3 11H21C21.2652 11 21.5196 11.1054 21.7071 11.2929C21.8946 11.4804 22 11.7348 22 12V18H20V27H16V15H14V27C14.0005 27.5303 14.2114 28.0387 14.5864 28.4136C14.9613 28.7886 15.4697 28.9995 16 29H20C20.5303 28.9995 21.0387 28.7886 21.4136 28.4136C21.7886 28.0387 21.9995 27.5303 22 27V20C22.5303 19.9995 23.0387 19.7886 23.4136 19.4136C23.7886 19.0387 23.9995 18.5303 24 18V12C23.9992 11.2046 23.6829 10.442 23.1204 9.87956C22.558 9.31712 21.7954 9.0008 21 9ZM6 8C5.20887 8 4.43552 7.76541 3.77772 7.32588C3.11992 6.88635 2.60723 6.26164 2.30448 5.53074C2.00173 4.79983 1.92252 3.99556 2.07686 3.21964C2.2312 2.44372 2.61216 1.73098 3.17157 1.17157C3.73098 0.612165 4.44371 0.231202 5.21964 0.0768607C5.99556 -0.0774802 6.79983 0.00173312 7.53073 0.304484C8.26164 0.607234 8.88635 1.11992 9.32588 1.77772C9.7654 2.43552 10 3.20888 10 4C9.99894 5.06054 9.57717 6.07734 8.82726 6.82726C8.07734 7.57718 7.06054 7.99894 6 8ZM6 2C5.60444 2 5.21776 2.1173 4.88886 2.33706C4.55996 2.55683 4.30362 2.86918 4.15224 3.23463C4.00087 3.60009 3.96126 4.00222 4.03843 4.39018C4.1156 4.77814 4.30608 5.13451 4.58579 5.41422C4.86549 5.69392 5.22186 5.8844 5.60982 5.96157C5.99778 6.03874 6.39991 5.99914 6.76537 5.84776C7.13082 5.69639 7.44318 5.44004 7.66294 5.11114C7.8827 4.78224 8 4.39556 8 4C7.99947 3.46973 7.78859 2.96133 7.41363 2.58637C7.03867 2.21142 6.53027 2.00053 6 2ZM18 8C17.2089 8 16.4355 7.76541 15.7777 7.32588C15.1199 6.88635 14.6072 6.26164 14.3045 5.53074C14.0017 4.79983 13.9225 3.99556 14.0769 3.21964C14.2312 2.44372 14.6122 1.73098 15.1716 1.17157C15.731 0.612165 16.4437 0.231202 17.2196 0.0768607C17.9956 -0.0774802 18.7998 0.00173312 19.5307 0.304484C20.2616 0.607234 20.8864 1.11992 21.3259 1.77772C21.7654 2.43552 22 3.20888 22 4C21.9989 5.06054 21.5772 6.07734 20.8273 6.82726C20.0773 7.57718 19.0605 7.99894 18 8ZM18 2C17.6044 2 17.2178 2.1173 16.8889 2.33706C16.56 2.55683 16.3036 2.86918 16.1522 3.23463C16.0009 3.60009 15.9613 4.00222 16.0384 4.39018C16.1156 4.77814 16.3061 5.13451 16.5858 5.41422C16.8655 5.69392 17.2219 5.8844 17.6098 5.96157C17.9978 6.03874 18.3999 5.99914 18.7654 5.84776C19.1308 5.69639 19.4432 5.44004 19.6629 5.11114C19.8827 4.78224 20 4.39556 20 4C19.9995 3.46973 19.7886 2.96133 19.4136 2.58637C19.0387 2.21142 18.5303 2.00053 18 2Z" fill="black"/>
</svg>
