<svg width="29" height="24" viewBox="0 0 29 24" fill="none" xmlns="http://www.w3.org/2000/svg">
<path d="M11.8671 2.27404C12.8749 3.12986 13.5573 4.25313 13.9142 5.64384C14.2711 7.03455 14.2606 8.37178 13.8827 9.65551C13.4628 10.8109 12.5494 11.3886 11.1427 11.3886C9.73595 11.3886 8.82262 10.7895 8.40269 9.59132C7.98277 8.43596 7.87779 7.16293 8.08775 5.77222C8.29771 4.38151 8.82262 3.21545 9.66247 2.27404C10.5023 1.5038 11.2372 1.5038 11.8671 2.27404ZM17.0951 0.0275086C15.6254 0.754958 14.9325 2.68056 15.0165 5.80431C15.3524 8.92806 16.3393 10.5113 17.977 10.5541C20.0346 9.6983 20.7695 7.38758 20.1816 3.62196C20.0556 2.63777 19.7302 1.76055 19.2053 0.990309C18.6803 0.220069 17.977 -0.100865 17.0951 0.0275086ZM27.2993 3.4294C25.5356 3.04428 24.4438 3.36522 24.0239 4.3922C23.562 5.29082 23.0161 7.02386 22.3862 9.59132C21.7563 12.1588 21.0004 14.0202 20.1186 15.1756C19.1108 16.4165 17.8825 17.3686 16.4338 18.0319C14.985 18.6951 13.5258 18.8984 12.056 18.6416C10.2924 18.3849 8.9486 17.5077 8.02476 16.01C7.52085 15.1542 6.94346 13.6137 6.29257 11.3886C5.64169 9.16341 4.93831 7.55875 4.18245 6.57455C3.17463 6.06106 2.38727 5.93268 1.82037 6.18943C1.25348 6.44618 0.833551 6.76711 0.560599 7.15223C0.287648 7.53735 0.119679 8.10433 0.0566898 8.85318C-0.00629887 9.60202 -0.016797 10.1904 0.0251955 10.6183C0.067188 11.0462 0.10918 11.4313 0.151173 11.7737V11.902C0.529105 14.2983 0.886041 15.796 1.22198 16.3951C2.60773 19.3477 4.88582 21.4873 8.05626 22.8138C11.2267 24.1403 14.3656 24.3543 17.4731 23.4556C20.7485 22.5142 23.4675 20.5138 25.6301 17.4542C27.7927 14.3946 28.916 11.0676 29 7.47316C29 5.33361 28.4331 3.98569 27.2993 3.4294Z" fill="#4F5150"/>
</svg>
